<?xml version="1.0" standalone="no"?><!DOCTYPE svg PUBLIC "-//W3C//DTD SVG 1.1//EN" "http://www.w3.org/Graphics/SVG/1.1/DTD/svg11.dtd"><svg t="1678893738296" class="icon" viewBox="0 0 1024 1024" version="1.1" xmlns="http://www.w3.org/2000/svg" p-id="6145" xmlns:xlink="http://www.w3.org/1999/xlink" width="200" height="200"><path d="M905.658863 598.936604c0 165.401539-176.241116 299.5163-393.656623 299.5163S118.345617 764.338143 118.345617 598.936604c0-165.433538 176.241116-363.657795 393.656623-363.657795s393.656623 198.232257 393.656623 363.657795z" fill="#F9CB58" p-id="6146"></path><path d="M905.658863 598.936604c0 165.401539-176.241116 299.5163-393.656623 299.5163S118.345617 764.338143 118.345617 598.936604c0-165.433538 176.241116-279.413085 393.656623-279.413085s393.656623 113.987547 393.656623 279.413085z" fill="#E29C37" p-id="6147"></path><path d="M512.00224 785.057334c192.472482 0 352.570228-105.139893 386.800891-244.022468-6.039764-26.542963-15.991375-53.229921-29.374853-79.196907-45.918206 52.453951-146.194289 170.417343-357.426038 170.417344s-311.491832-117.963392-357.426038-170.417344c-13.375478 25.966986-23.327089 52.653943-29.374853 79.196907 34.238663 138.882575 194.336409 244.022468 386.800891 244.022468z" fill="#96562C" p-id="6148"></path><path d="M894.875284 526.163447c-57.781743 64.197492-169.97736 171.209312-382.873044 171.209312s-325.083301-107.01182-382.865044-171.209312c-1.399945 4.967806-2.799891 9.919613-3.927847 14.871419 34.230663 138.882575 194.336409 244.022468 386.800891 244.022468 192.472482 0 352.570228-105.139893 386.80089-244.022468-1.135956-4.951807-2.535901-9.903613-3.935846-14.871419z" fill="#A8633D" p-id="6149"></path><path d="M512.00224 797.056865c-194.720394 0-362.297848-106.467841-398.448436-253.150111a11.991532 11.991532 0 0 1-0.047998-5.535784c6.231757-27.358931 16.463357-54.957853 30.406812-82.028796a12.03153 12.03153 0 0 1 9.207641-6.423749 12.079528 12.079528 0 0 1 10.48759 4.007844l1.919925 2.191914c46.606179 53.269919 143.586391 164.129589 346.474466 164.129589 202.912074 0 299.884286-110.85967 346.490465-164.145588l1.903926-2.175915a12.143526 12.143526 0 0 1 10.48759-4.007844c3.943846 0.487981 7.391711 2.879888 9.20764 6.415749 13.951455 27.078942 24.183055 54.677864 30.406813 82.036796 0.415984 1.831928 0.399984 3.719855-0.047998 5.535784-36.142588 146.68227-203.720042 253.150111-398.448436 253.150111zM137.552867 540.914871c34.990633 134.682739 191.864505 232.142932 374.449373 232.142931 182.592867 0 339.46674-97.460193 374.449373-232.142931a316.835624 316.835624 0 0 0-19.943221-57.589751c-52.357955 58.925698-154.36997 160.921714-354.506152 160.921714-200.136182 0-302.148197-102.004015-354.506152-160.921714a318.083575 318.083575 0 0 0-19.943221 57.589751z" fill="#33363A" p-id="6150"></path><path d="M905.658863 598.936604c0 165.401539-176.241116 299.5163-393.656623 299.5163S118.345617 764.338143 118.345617 598.936604c0-165.449537 50.094043 146.714269 393.656623 146.714269 343.570579 0 393.656623-312.155806 393.656623-146.714269z" fill="#F9F1D2" p-id="6151"></path><path d="M905.658863 598.936604c0 165.401539-176.241116 218.863451-393.656623 218.863451S118.345617 764.338143 118.345617 598.936604c0-165.449537 50.094043 146.714269 393.656623 146.714269 343.570579 0 393.656623-312.155806 393.656623-146.714269z" fill="#FFE98D" p-id="6152"></path><path d="M512.00224 910.460435c-223.679263 0-405.656154-139.746541-405.656154-311.515831 0-37.830522 2.095918-54.437874 15.11141-59.325683 13.463474-5.055803 23.695074 6.615742 44.038279 29.878833 46.614179 53.277919 143.61039 164.161587 346.506465 164.161587 202.904074 0 299.892285-110.875669 346.506465-164.161587 20.351205-23.263091 30.582805-34.918636 44.038279-29.878833 13.007492 4.879809 15.11141 21.49516 15.11141 59.325683 0 171.76929-181.976892 311.515831-405.656154 311.515831z m-380.489137-342.78661c-0.647975 5.807773-1.167954 15.407398-1.167955 31.262779 0 158.537807 171.209312 287.516769 381.657092 287.516769s381.657092-128.978962 381.657091-287.516769c0-15.855381-0.51998-25.463005-1.167954-31.262779-4.543823 4.61582-10.455592 11.375556-15.919378 17.615312-48.942088 55.949814-150.77811 172.361267-364.569759 172.361267-213.783649 0-315.627671-116.411453-364.569759-172.353267-5.455787-6.247756-11.375556-13.007492-15.919378-17.623312z" fill="#33363A" p-id="6153"></path><path d="M512.00224 910.460435c-223.679263 0-405.656154-139.746541-405.656154-311.515831 0-170.153353 180.952932-375.657326 405.656154-375.657326s405.656154 205.503973 405.656154 375.657326c0 171.76929-181.976892 311.515831-405.656154 311.515831z m0-663.182094c-211.415742 0-381.657092 192.376485-381.657092 351.658263 0 158.537807 171.209312 287.516769 381.657092 287.516769s381.657092-128.978962 381.657091-287.516769c0-159.281778-170.24135-351.658263-381.657091-351.658263z" fill="#33363A" p-id="6154"></path><path d="M140.704744 90.524464l-20.183212 166.321503-85.468661-47.318152 39.470458 140.730503L12.005771 359.761947l253.894082 269.221483h79.156908z" fill="#F9F1D2" p-id="6155"></path><path d="M303.026403 628.98343L140.704744 201.264138 120.521532 367.585641l-48.710097-26.966946 2.711894 9.639623-29.782837 4.535823 15.807383 56.429796 205.351978 217.759493z" fill="#FFE98D" p-id="6156"></path><path d="M345.056761 640.982962h-79.156908c-3.303871 0-6.463748-1.359947-8.727659-3.767853L3.278112 367.993625a11.999531 11.999531 0 0 1 6.91973-20.103214l49.102082-7.463709-35.798602-127.651014a11.999531 11.999531 0 0 1 17.367322-13.743463l69.88527 38.686489 18.039295-148.642194a11.999531 11.999531 0 0 1 10.463591-10.471591 12.079528 12.079528 0 0 1 12.663506 7.655701l204.352017 538.466967a11.999531 11.999531 0 0 1-11.215562 16.255365z m-73.97311-23.999063h56.58179L146.752507 140.274521l-14.31944 118.01139a11.999531 11.999531 0 0 1-17.727308 9.055646l-60.341643-33.406695 31.710762 113.083583a12.015531 12.015531 0 0 1-9.751619 15.111409l-39.878443 6.055764 234.638835 248.798281z" fill="#33363A" p-id="6157"></path><path d="M883.299736 90.524464l20.207211 166.321503 85.444662-47.318152-39.446459 140.730503 62.501558 9.503629-253.894082 269.221483h-79.148908z" fill="#F9F1D2" p-id="6158"></path><path d="M720.994076 628.98343l162.30566-427.719292 20.207211 166.321503 48.694098-26.966946-2.695895 9.639623 29.774837 4.535823-15.823382 56.429796-205.343979 217.759493z" fill="#FFE98D" p-id="6159"></path><path d="M758.112626 640.982962h-79.148908a11.999531 11.999531 0 0 1-11.215562-16.255365l204.336018-538.466967a12.071528 12.071528 0 0 1 12.663506-7.655701 11.999531 11.999531 0 0 1 10.463591 10.471591l18.055295 148.642194 69.86927-38.686489a11.991532 11.991532 0 0 1 17.367322 13.743463l-35.790602 127.659014 49.094082 7.463708a11.999531 11.999531 0 0 1 6.91973 20.103215L766.840285 637.215109a11.975532 11.975532 0 0 1-8.727659 3.767853z m-61.757587-23.999063h56.57379l234.638834-248.806281-39.870442-6.055763a12.03153 12.03153 0 0 1-9.75162-15.11141l31.702762-113.083583-60.333643 33.406695a11.999531 11.999531 0 0 1-17.727308-9.055646l-14.33544-118.01939-180.896933 476.725378z" fill="#33363A" p-id="6160"></path><path d="M382.71129 668.197899a64.397484 64.397484 0 0 1-64.413484 64.405484 64.389485 64.389485 0 0 1-64.405484-64.405484 64.413484 64.413484 0 1 1 128.818968 0z" fill="#5B524D" p-id="6161"></path><path d="M286.267058 647.262716m-26.238975 0a26.238975 26.238975 0 1 0 52.47795 0 26.238975 26.238975 0 1 0-52.47795 0Z" fill="#FFFFFF" p-id="6162"></path><path d="M318.297806 591.784883c-25.942987 0-48.870091 13.023491-62.685551 32.854717a36.694567 36.694567 0 0 0-2.335909 3.647858 75.837038 75.837038 0 0 0-11.375555 39.91844c0 42.134354 34.278661 76.405015 76.405015 76.405016 42.134354 0 76.413015-34.270661 76.413015-76.405016-0.008-42.142354-34.286661-76.421015-76.421015-76.421015z m0 128.818968a52.47795 52.47795 0 0 1-48.37411-32.278739c5.511785-0.151994 12.223523-1.607937 19.783227-3.175876a37.998516 37.998516 0 0 0 7.719699-1.503941c6.551744-1.191953 13.55947-2.143916 20.871184-2.143916 19.303246 0 36.574571 6.511746 48.382111 6.831733a52.48595 52.48595 0 0 1-48.382111 32.270739z" fill="#33363A" p-id="6163"></path><path d="M286.259058 647.262716m-14.231444 0a14.231444 14.231444 0 1 0 28.462888 0 14.231444 14.231444 0 1 0-28.462888 0Z" fill="#FFFFFF" p-id="6164"></path><path d="M770.120157 668.197899a64.397484 64.397484 0 0 1-64.405484 64.405484 64.421484 64.421484 0 1 1 64.405484-64.405484z" fill="#5B524D" p-id="6165"></path><path d="M673.675925 647.262716m-26.238976 0a26.238975 26.238975 0 1 0 52.477951 0 26.238975 26.238975 0 1 0-52.477951 0Z" fill="#FFFFFF" p-id="6166"></path><path d="M705.714673 591.784883c-25.990985 0-48.966087 13.071489-62.781548 32.958713a38.158509 38.158509 0 0 0-2.183914 3.423866 75.845037 75.845037 0 0 0-11.455553 40.038436c0 42.134354 34.278661 76.405015 76.421015 76.405016 42.126354 0 76.405015-34.270661 76.405015-76.405016 0-42.142354-34.278661-76.421015-76.405015-76.421015z m0 128.818968a52.493949 52.493949 0 0 1-48.39011-32.278739c5.511785-0.151994 12.223523-1.607937 19.783227-3.175876 2.671896-0.239991 5.247795-0.743971 7.727699-1.511941 6.551744-1.191953 13.55947-2.143916 20.871184-2.143916 19.295246 0 36.566572 6.511746 48.374111 6.831733a52.461951 52.461951 0 0 1-48.366111 32.278739z" fill="#33363A" p-id="6167"></path><path d="M673.675925 647.262716m-14.231445 0a14.231444 14.231444 0 1 0 28.462889 0 14.231444 14.231444 0 1 0-28.462889 0Z" fill="#FFFFFF" p-id="6168"></path><path d="M595.494978 717.507972c0 11.159564-37.526534 13.159486-83.820725 13.159486s-83.820726-1.999922-83.820726-13.159486c0-11.143565 37.526534-40.278427 83.820726-40.278426 46.286192 0 83.820726 29.142862 83.820725 40.278426z" fill="#A8633D" p-id="6169"></path><path d="M659.668472 785.809304l-147.666232 147.666232L364.352007 785.809304l147.666232-97.156205z" fill="#E5B1C4" p-id="6170"></path><path d="M512.018239 688.653099L659.668472 785.809304l-147.666232 147.666232" fill="#B78094" p-id="6171"></path><path d="M659.668472 785.809304l-147.666232 147.666232L364.352007 785.809304l147.666232 36.62257z" fill="#C191A0" p-id="6172"></path><path d="M512.00224 945.475067c-3.183876 0-6.231757-1.263951-8.487669-3.511862L355.864339 794.288973a11.999531 11.999531 0 0 1 1.887926-18.511277l147.674232-97.148205c3.999844-2.639897 9.183641-2.639897 13.191484 0l147.650233 97.156205a11.991532 11.991532 0 0 1 1.879926 18.511277L520.481909 941.963205c-2.247912 2.239913-5.295793 3.511863-8.479669 3.511862zM383.247269 787.737229l128.754971 128.77097 128.77097-128.77097-128.754971-84.716691-128.77097 84.716691z" fill="#33363A" p-id="6173"></path><path d="M742.969218 320.715472L667.500166 152.770032l-72.141182 32.422734-83.356744-83.356744-83.356744 83.356744-72.125183-32.422734-75.477051 167.94544 167.92944 75.477052 3.751853-8.351674 59.277685 59.293684 59.277684-59.285684 3.751854 8.343674z" fill="#F9CB58" p-id="6174"></path><path d="M595.358984 325.843272l-83.356744-83.356744-83.356744 83.356744-72.125183-32.422734-22.887106 50.918011 115.339495 51.853975 3.751853-8.351674 59.277685 59.293684 59.277684-59.285684 3.751854 8.343674 115.355494-51.853975-22.887106-50.918011z" fill="#E29C37" p-id="6175"></path><path d="M742.977217 332.715003a11.999531 11.999531 0 0 1-10.951572-7.079723l-70.557244-157.001867-61.189609 27.502925a11.991532 11.991532 0 0 1-13.399477-2.463903l-74.869075-74.869076-74.869076 74.869076a12.015531 12.015531 0 0 1-13.399476 2.463903l-61.181611-27.502925-70.557243 157.001867a11.999531 11.999531 0 1 1-21.887145-9.839616L345.59274 147.850225a11.999531 11.999531 0 0 1 15.855381-6.023765l64.581477 29.030866 77.500973-77.500973a11.999531 11.999531 0 0 1 16.967337 0l77.500973 77.500973 64.589477-29.030866a11.967533 11.967533 0 0 1 15.85538 6.023765l75.477052 167.945439a11.999531 11.999531 0 0 1-10.943573 16.919339z" fill="#33363A" p-id="6176"></path></svg>