<?xml version="1.0" standalone="no"?><!DOCTYPE svg PUBLIC "-//W3C//DTD SVG 1.1//EN" "http://www.w3.org/Graphics/SVG/1.1/DTD/svg11.dtd"><svg t="1678894001020" class="icon" viewBox="0 0 1024 1024" version="1.1" xmlns="http://www.w3.org/2000/svg" p-id="10535" xmlns:xlink="http://www.w3.org/1999/xlink" width="200" height="200"><path d="M511.995947 511.983789m-499.825734 0a499.825735 499.825735 0 1 0 999.651469 0 499.825735 499.825735 0 1 0-999.651469 0Z" fill="#7BC7FF" p-id="10536"></path><path d="M12.170213 511.983789a499.825735 382.832827 0 1 0 999.651469 0 499.825735 382.832827 0 1 0-999.651469 0Z" fill="#0086FF" p-id="10537"></path><path d="M46.050659 331.128673h290.066869v-109.422493H105.219858a498.642351 498.642351 0 0 0-59.169199 109.422493z" fill="#FF6666" p-id="10538"></path><path d="M71.412361 331.128673h264.705167v-109.422493H186.305978c-46.508612 30.654509-85.641337 67.696049-114.893617 109.422493z" fill="#FF1A1A" p-id="10539"></path><path d="M918.763931 221.70618H687.874367v109.422493h290.066869a498.326241 498.326241 0 0 0-59.177305-109.422493z" fill="#FF6666" p-id="10540"></path><path d="M837.685917 221.70618H687.874367v109.422493h264.705167c-29.25228-41.726444-68.385005-78.767984-114.893617-109.422493z" fill="#FF1A1A" p-id="10541"></path><path d="M12.170213 511.983789c0 276.077001 223.781155 499.841945 499.825734 499.841946s499.825735-223.764944 499.825735-499.841946H12.170213z" fill="#FFFFFF" p-id="10542"></path><path d="M511.995947 894.816616c276.04458 0 499.825735-171.412361 499.825735-382.832827H12.170213c0 211.420466 223.781155 382.832827 499.825734 382.832827z" fill="#D8E5EA" p-id="10543"></path><path d="M989.507599 327.635258c-0.089159-0.299899-0.113475-0.607903-0.226951-0.899696-1.43465-3.704154-2.966565-7.375887-4.490374-11.047619-0.486322-1.159068-0.932118-2.342452-1.41844-3.493414a496.567376 496.567376 0 0 0-8.996961-19.866262l-1.953394-4.052684a510.151976 510.151976 0 0 0-22.362715-41.045593l-0.534954-0.883485a513.41844 513.41844 0 0 0-20.863222-31.700102c-0.356636-0.494428-0.802432-0.899696-1.215806-1.337386C834.395137 84.247214 682.889564 0 511.995947 0S189.596758 84.247214 96.555218 213.300912c-0.421479 0.429585-0.867275 0.834853-1.215806 1.337386a510.986829 510.986829 0 0 0-20.863221 31.700101l-0.534955 0.883485a511.537994 511.537994 0 0 0-22.362715 41.045593l-1.953394 4.052685c-3.128673 6.573455-6.160081 13.187437-9.005066 19.882472-0.486322 1.142857-0.924012 2.301925-1.402229 3.444782-1.531915 3.679838-3.06383 7.367781-4.506586 11.088146-0.113475 0.291793-0.137791 0.599797-0.22695 0.899696A509.14691 509.14691 0 0 0 0.012158 511.983789c0 282.318136 229.673759 512 511.983789 512s511.983789-229.681864 511.98379-512a509.14691 509.14691 0 0 0-34.472138-184.348531z m-29.91692-8.656535H700.032422v-85.106383h212.222897a487.278622 487.278622 0 0 1 47.33536 85.106383z m-847.854103-85.106383h212.222897v85.106383H64.401216a487.278622 487.278622 0 0 1 47.33536-85.106383z m-57.045593 109.422493h281.426545a12.158055 12.158055 0 0 0 12.158055-12.158055v-109.422492a12.158055 12.158055 0 0 0-12.158055-12.158055H129.949342C219.311044 96.818642 357.280648 24.316109 511.995947 24.316109s292.684904 72.502533 382.046606 185.240122H687.874367a12.158055 12.158055 0 0 0-12.158055 12.158055v109.422492a12.158055 12.158055 0 0 0 12.158055 12.158055h281.426545a484.928065 484.928065 0 0 1 30.054711 156.539007H24.636272a484.847011 484.847011 0 0 1 30.054711-156.539007z m457.304964 656.372847c-264.826748 0-480.867275-212.231003-487.359675-475.525836h974.719351c-6.492401 263.294833-222.532928 475.525836-487.359676 475.525836z" fill="#33363A" p-id="10544"></path><path d="M511.995947 558.200608m-135.878419 0a135.878419 135.878419 0 1 0 271.756839 0 135.878419 135.878419 0 1 0-271.756839 0Z" fill="#A7BBC1" p-id="10545"></path><path d="M511.995947 511.991895m-135.878419 0a135.878419 135.878419 0 1 0 271.756839 0 135.878419 135.878419 0 1 0-271.756839 0Z" fill="#FFFFFF" p-id="10546"></path><path d="M415.914894 608.072948c-53.065856-53.065856-53.065856-139.088146 0-192.170212 53.065856-53.057751 139.104357-53.057751 192.154002 0" fill="#D8E5EA" p-id="10547"></path><path d="M511.995947 660.036474c-39.537994 0-76.717325-15.400203-104.680851-43.363728-57.718338-57.710233-57.718338-151.635258 0-209.361702a147.104357 147.104357 0 0 1 104.680851-43.355624 147.031408 147.031408 0 0 1 104.672746 43.355624c57.710233 57.734549 57.710233 151.651469 0 209.361702a147.015198 147.015198 0 0 1-104.672746 43.363728z m0-271.764944c-33.045593 0-64.113475 12.863222-87.481256 36.231003-48.235056 48.251266-48.235056 126.743668 0 174.978723a122.909828 122.909828 0 0 0 87.481256 36.239109c33.053698 0 64.113475-12.871327 87.473151-36.239109 48.235056-48.235056 48.235056-126.727457 0-174.978723a122.877406 122.877406 0 0 0-87.473151-36.231003z" fill="#33363A" p-id="10548"></path><path d="M558.220871 558.216819a65.410334 65.410334 0 0 1-92.433637 0A65.369807 65.369807 0 0 1 558.220871 465.791287a65.353597 65.353597 0 0 1 0 92.425532z" fill="#FFFFFF" p-id="10549"></path><path d="M465.787234 465.791287A65.361702 65.361702 0 0 1 558.220871 558.216819" fill="#D8E5EA" p-id="10550"></path><path d="M512.004053 589.463019a77.284701 77.284701 0 0 1-54.808511-22.646403c-30.224924-30.233029-30.216819-79.408308 0-109.625127a76.960486 76.960486 0 0 1 54.808511-22.711246h0.008105c20.70922 0 40.178318 8.072948 54.816616 22.711246 30.216819 30.216819 30.216819 79.383992 0 109.617022h-0.008105a77.292806 77.292806 0 0 1-54.816616 22.654508z m-0.008106-130.666666a52.81459 52.81459 0 0 0-37.608916 15.586626 53.25228 53.25228 0 0 0 0 75.234042 53.292806 53.292806 0 0 0 75.242148 0c20.733536-20.757852 20.733536-54.500507 0-75.234042a52.944276 52.944276 0 0 0-37.633232-15.586626z" fill="#33363A" p-id="10551"></path></svg>