<?xml version="1.0" standalone="no"?><!DOCTYPE svg PUBLIC "-//W3C//DTD SVG 1.1//EN" "http://www.w3.org/Graphics/SVG/1.1/DTD/svg11.dtd"><svg t="1678893936737" class="icon" viewBox="0 0 1024 1024" version="1.1" xmlns="http://www.w3.org/2000/svg" p-id="9259" xmlns:xlink="http://www.w3.org/1999/xlink" width="200" height="200"><path d="M667.699987 531.701825c-31.290895 53.584744-89.272752 89.775743-155.691874 89.775742s-124.400979-36.190998-155.691874-89.775742H90.477496c41.715784 194.405939 214.833855 340.622115 421.522504 340.622115s379.798607-146.216176 421.514391-340.622115H667.699987z" fill="#FFBE08" p-id="9260"></path><path d="M512 621.477567c-66.419122 0-124.400979-36.190998-155.691874-89.775742H128.120677C199.585933 671.168189 344.788015 766.906806 512 766.906806c167.203873 0 312.414067-95.738617 383.879323-235.204981H667.699987c-31.299007 53.592857-89.272752 89.775743-155.699987 89.775742z" fill="#FF960B" p-id="9261"></path><path d="M512 884.493072c-207.597278 0-389.874648-147.295173-433.423915-350.243842a12.185357 12.185357 0 0 1 11.901411-14.72465h265.83063a12.169132 12.169132 0 0 1 10.506017 6.027777c30.163222 51.662021 85.800493 83.747966 145.185857 83.747965s115.022635-32.085944 145.185857-83.747965a12.169132 12.169132 0 0 1 10.506017-6.027777h265.822517a12.169132 12.169132 0 0 1 11.901411 14.72465c-43.541154 202.948669-225.818525 350.243842-433.415802 350.243842zM105.818715 543.870956c46.607775 184.15953 215.036674 316.283851 406.181285 316.283852s359.57351-132.124322 406.173172-316.283852H674.539039c-35.233693 55.556144-96.86629 89.775743-162.530926 89.775743s-127.297233-34.227712-162.530926-89.775743H105.818715z" fill="#33363A" p-id="9262"></path><path d="M356.308126 352.791247c31.290895-53.576631 89.272752-89.775743 155.691874-89.775742 66.427235 0 124.400979 36.207224 155.691874 89.775742h265.822517C891.80672 158.401534 718.688649 12.169132 512 12.169132S132.19328 158.401534 90.477496 352.791247h265.83063z" fill="#FFBE08" p-id="9263"></path><path d="M512 263.015505c66.427235 0 124.400979 36.207224 155.691874 89.775742h228.187449c-71.473368-139.48259-216.67545-235.204982-383.879323-235.204982-167.211985 0-312.42218 95.722392-383.879323 235.204982h228.187449c31.290895-53.568519 89.272752-89.775743 155.691874-89.775742z" fill="#FF960B" p-id="9264"></path><path d="M933.514391 364.960379H667.699987a12.169132 12.169132 0 0 1-10.506018-6.027777c-30.179447-51.662021-85.808606-83.747966-145.193969-83.747966s-115.014522 32.085944-145.185857 83.747966a12.169132 12.169132 0 0 1-10.506017 6.027777H90.477496a12.169132 12.169132 0 0 1-11.901411-14.72465C122.133464 147.295173 304.410835 0 512 0c207.589165 0 389.866536 147.295173 433.415802 350.243842a12.185357 12.185357 0 0 1-11.901411 14.716537z m-258.983465-24.338264h243.650359C871.57351 156.462585 703.136499 24.338264 512 24.338264S152.42649 156.462585 105.818715 340.622115h243.658472C384.718993 285.074084 446.35159 250.846373 512 250.846373s127.28912 34.227712 162.530926 89.775742z" fill="#33363A" p-id="9265"></path><path d="M605.970037 442.242479c0 51.937855-42.064633 93.994375-93.970037 93.994375s-93.994375-42.05652-93.994375-93.994375c0-51.889179 42.088971-93.994375 93.994375-93.994374s93.970037 42.097084 93.970037 93.994374z" fill="#FFBE08" p-id="9266"></path><path d="M418.005625 442.242479c0-51.889179 42.088971-93.994375 93.994375-93.994374s93.970037 42.097084 93.970037 93.994374" fill="#FF960B" p-id="9267"></path><path d="M512 548.405986c-58.541637 0-106.163507-47.62187-106.163507-106.163507s47.62187-106.163507 106.163507-106.163506c58.525412 0 106.139169 47.62187 106.139169 106.163506s-47.613757 106.163507-106.139169 106.163507z m0-187.98875c-45.123141 0-81.825243 36.702102-81.825243 81.825243s36.702102 81.825243 81.825243 81.825243c45.106916 0 81.800905-36.702102 81.800905-81.825243s-36.693989-81.825243-81.800905-81.825243zM332.740574 454.411611H199.951007a12.169132 12.169132 0 1 1 0-24.338263h132.789567a12.169132 12.169132 0 1 1 0 24.338263zM123.480182 454.371048c-3.245102 0-6.327949-1.289928-8.59952-3.488485-2.271571-2.271571-3.569612-5.435546-3.569612-8.680647 0-3.163974 1.298041-6.319836 3.488484-8.59952 4.62427-4.543143 12.737025-4.543143 17.280167 0.081127a12.047441 12.047441 0 0 1 0 17.126025c-2.271571 2.271571-5.435546 3.561499-8.599519 3.5615zM53.791619 454.371048a12.152906 12.152906 0 0 1-12.169131-12.169132c0-3.163974 1.298041-6.319836 3.569612-8.59952 4.462015-4.543143 12.655897-4.543143 17.199039 0.081127 2.271571 2.198557 3.569612 5.354418 3.569612 8.518393a12.19347 12.19347 0 0 1-12.169132 12.169132zM824.048993 454.411611H691.267539a12.169132 12.169132 0 1 1 0-24.338263h132.781454a12.169132 12.169132 0 1 1 0 24.338263zM900.519818 454.371048c-3.163974 0-6.327949-1.289928-8.599519-3.5615-2.271571-2.198557-3.569612-5.354418-3.569613-8.607632 0-3.163974 1.298041-6.319836 3.569613-8.59952 4.543143-4.543143 12.737025-4.543143 17.199039 0.081127 2.271571 2.198557 3.569612 5.354418 3.569612 8.518393a12.19347 12.19347 0 0 1-12.169132 12.169132zM970.208381 454.371048a12.169132 12.169132 0 0 1-8.59952-20.768652c4.543143-4.543143 12.737025-4.543143 17.280167 0.081127 2.190444 2.198557 3.488484 5.354418 3.488484 8.518393a12.19347 12.19347 0 0 1-12.169131 12.169132z" fill="#33363A" p-id="9268"></path><path d="M675.60181 812.841223a22.204609 22.204609 0 0 0-17.985977-15.162738l-86.814588-12.631559-38.81953-78.685607a22.285737 22.285737 0 0 0-39.96343 0l-38.827643 78.685607-86.814587 12.631559a22.228948 22.228948 0 0 0-17.99409 15.162738 22.318188 22.318188 0 0 0 5.638364 22.845517l62.825172 61.210733-14.838228 86.465739a22.29385 22.29385 0 0 0 8.867241 21.815197c6.895841 4.956893 15.974014 5.638364 23.486424 1.663115l77.639062-40.799043 77.639062 40.799043a22.285737 22.285737 0 0 0 23.462086-1.663115 22.277624 22.277624 0 0 0 8.867241-21.815197l-14.838228-86.465739 62.825171-61.210733a22.253286 22.253286 0 0 0 5.646478-22.845517z" fill="#FFD00B" p-id="9269"></path><path d="M607.138273 896.905586l50.737168-49.455352c-0.08924 0-0.170368-0.032451-0.251496-0.048676l-86.814587-12.631559-38.819531-78.669382a22.261399 22.261399 0 0 0-19.981714-12.404402 22.245173 22.245173 0 0 0-19.981715 12.404402l-38.827643 78.669382-86.814588 12.631559c-0.08924 0.016226-0.170368 0.048677-0.259608 0.048676l50.737168 49.455352-7.301479 42.591962 7.301479 7.131111-9.491923 55.296536c1.062771 1.184462 2.198557 2.29591 3.512823 3.261327 6.895841 4.956893 15.974014 5.638364 23.486424 1.663115l77.639062-40.799043 77.639061 40.799043a22.285737 22.285737 0 0 0 23.462087-1.663115c1.314266-0.965418 2.466277-2.076865 3.520935-3.261327l-9.491923-55.296536 7.301479-7.131111-7.301479-42.591962z" fill="#FFBE08" p-id="9270"></path><path d="M423.9685 1021.639188a34.462982 34.462982 0 0 1-20.192647-6.571331 34.316952 34.316952 0 0 1-13.751119-33.765285l13.751119-80.154015-58.241465-56.740606a34.292614 34.292614 0 0 1-8.729324-35.306708 34.219599 34.219599 0 0 1 27.842974-23.470199l80.4623-11.706705 35.996292-72.949889a34.657688 34.657688 0 0 1 30.89337-19.186665c13.012858 0 25.141427 7.536749 30.89337 19.186665l35.988179 72.949889 80.486639 11.706705a34.154697 34.154697 0 0 1 27.810522 23.462086 34.243937 34.243937 0 0 1-8.729324 35.314821l-58.241465 56.740606 13.759232 80.162128a34.284501 34.284501 0 0 1-13.69433 33.716608c-10.400551 7.5692-24.922382 8.615745-36.320802 2.579856l-71.952021-37.813549-71.984472 37.829775a34.195261 34.195261 0 0 1-16.047028 4.015813z m88.0315-315.513139c-3.82922 0-7.382607 2.198557-9.061947 5.614026l-38.835756 78.69372a12.185357 12.185357 0 0 1-9.1593 6.652458l-86.814587 12.631559a10.04359 10.04359 0 0 0-8.169544 6.887729c-1.184462 3.683191-0.210932 7.666553 2.56363 10.3681l62.825172 61.210734a12.169132 12.169132 0 0 1 3.50471 10.773738l-14.838228 86.465739a10.100379 10.100379 0 1 0 14.659747 10.676385l77.679626-40.823381a12.201583 12.201583 0 0 1 11.325405 0l77.639062 40.799043a10.140943 10.140943 0 0 0 10.652047-0.738261c3.139636-2.279684 4.689172-6.084566 4.032039-9.905673l-14.846341-86.473852a12.169132 12.169132 0 0 1 3.50471-10.773738l62.825171-61.210734a10.059816 10.059816 0 0 0 2.555518-10.376213v-0.008112a10.019252 10.019252 0 0 0-8.12898-6.871504l-86.838925-12.631559a12.161019 12.161019 0 0 1-9.1593-6.652458l-38.819531-78.685607a10.238296 10.238296 0 0 0-9.094398-5.622139z" fill="#33363A" p-id="9271"></path><path d="M337.32428 887.08104a14.116193 14.116193 0 0 0-11.406533-9.621727l-55.069378-8.015401-24.630323-49.909667a14.116193 14.116193 0 0 0-12.672123-7.861259c-5.378756 0-10.311311 3.042283-12.680235 7.861259l-24.62221 49.909667-55.069379 8.015401a14.148644 14.148644 0 0 0-7.828808 24.11922l39.849851 38.819531-9.418908 54.842221a14.124306 14.124306 0 1 0 20.509043 14.895017l49.252534-25.871574 49.24442 25.871574c2.068752 1.111447 4.324098 1.630664 6.587557 1.630664 2.920592 0 5.841183-0.88429 8.299348-2.677209a14.140531 14.140531 0 0 0 5.622139-13.848472l-9.410796-54.842221 39.849851-38.819531a14.132419 14.132419 0 0 0 3.59395-14.497493z" fill="#FFD00B" p-id="9272"></path><path d="M293.896705 940.398064l32.183298-31.355797c-0.056789 0-0.105466-0.032451-0.154143-0.032451l-55.069378-8.015401-24.630323-49.909667a14.116193 14.116193 0 0 0-12.672123-7.861259c-5.378756 0-10.311311 3.042283-12.680235 7.861259l-24.622211 49.909667-55.069378 8.015401c-0.056789 0-0.113579 0.032451-0.154142 0.032451l32.183297 31.355797-4.640495 27.015473 4.640495 4.518804-6.019664 35.079551c0.665246 0.762599 1.395394 1.460296 2.222895 2.076865a14.124306 14.124306 0 0 0 14.886905 1.046545l49.252533-25.871574 49.244421 25.871574c2.068752 1.111447 4.324098 1.630664 6.587556 1.630664a13.596977 13.596977 0 0 0 10.530356-4.754074l-6.019664-35.079551 4.632383-4.518804-4.632383-27.015473z" fill="#FFBE08" p-id="9273"></path><path d="M177.713946 1023.975662a26.366452 26.366452 0 0 1-15.398008-4.997457 26.179859 26.179859 0 0 1-10.522243-25.79856l8.339912-48.530498-35.266144-34.349403a26.131183 26.131183 0 0 1-6.668685-26.958683 26.471918 26.471918 0 0 1 21.271643-17.921075l48.700866-7.090548 21.798972-44.173949a26.44758 26.44758 0 0 1 23.59189-14.643522 26.44758 26.44758 0 0 1 23.59189 14.659748l21.790859 44.157723 48.74143 7.09866a26.455693 26.455693 0 0 1 21.231079 17.896737v0.016226a26.163634 26.163634 0 0 1-6.668685 26.966796l-35.266144 34.34129 8.331799 48.530498a26.488144 26.488144 0 0 1-10.465453 25.749883c-7.974838 5.808732-19.170439 6.571331-27.794298 1.930836l-43.492477-22.85363-43.597943 22.902306a26.041942 26.041942 0 0 1-12.25026 3.066622z m55.831977-200.133544a1.963287 1.963287 0 0 0-1.752355 1.062771l-24.630323 49.925892a12.169132 12.169132 0 0 1-9.1593 6.652459l-55.069378 8.015401a1.971399 1.971399 0 0 0-1.103334 3.342455l39.866076 38.835757a12.169132 12.169132 0 0 1 3.50471 10.773738l-9.418908 54.842221a1.987625 1.987625 0 0 0 0.786937 1.947061c0.576006 0.41375 1.362943 0.486765 2.00385 0.154142l49.325548-25.912138a12.201583 12.201583 0 0 1 11.325406 0l49.24442 25.871574c0.624682 0.32451 1.233139 0.494878 2.068753-0.121691a1.963287 1.963287 0 0 0 0.786937-1.922723l-9.418908-54.858446a12.169132 12.169132 0 0 1 3.50471-10.773738l39.84985-38.819531a2.011963 2.011963 0 0 0 0.502991-2.020076 1.930836 1.930836 0 0 0-1.549536-1.330492l-55.101829-8.023514a12.185357 12.185357 0 0 1-9.1593-6.652459l-24.630323-49.909666a2.020076 2.020076 0 0 0-1.776694-1.078997z" fill="#33363A" p-id="9274"></path><path d="M894.240546 887.08104a14.116193 14.116193 0 0 0-11.414645-9.621727l-55.069379-8.015401-24.62221-49.909667a14.116193 14.116193 0 0 0-12.680235-7.861259c-5.378756 0-10.303198 3.042283-12.680236 7.861259l-24.62221 49.909667-55.061266 8.015401a14.124306 14.124306 0 0 0-7.836921 24.11922l39.849851 38.819531-9.418908 54.842221a14.172982 14.172982 0 0 0 5.622139 13.848472c4.372775 3.139636 10.140943 3.577725 14.895017 1.046545l49.244421-25.871574 49.24442 25.871574c2.076865 1.111447 4.324098 1.630664 6.587557 1.630664a14.099968 14.099968 0 0 0 13.9296-16.525681l-9.410796-54.842221 39.849851-38.819531a14.16487 14.16487 0 0 0 3.59395-14.497493z" fill="#FFD00B" p-id="9275"></path><path d="M850.804858 940.398064l32.183298-31.355797c-0.064902 0-0.113579-0.032451-0.170368-0.032451l-55.069378-8.015401-24.622211-49.909667a14.116193 14.116193 0 0 0-12.680235-7.861259c-5.378756 0-10.303198 3.042283-12.680236 7.861259l-24.62221 49.909667-55.061265 8.015401c-0.064902 0-0.113579 0.032451-0.170368 0.032451l32.183297 31.355797-4.632383 27.015473 4.632383 4.518804-6.019664 35.079551c0.673359 0.762599 1.395394 1.460296 2.222895 2.076865 4.372775 3.139636 10.140943 3.577725 14.895018 1.046545l49.24442-25.871574 49.244421 25.871574c2.076865 1.111447 4.324098 1.630664 6.587556 1.630664 2.920592 0 5.841183-0.88429 8.307461-2.677209a14.278448 14.278448 0 0 0 2.231008-2.076865l-6.019664-35.079551 4.62427-4.518804-4.608045-27.015473z" fill="#FFBE08" p-id="9276"></path><path d="M734.622099 1023.975662a26.398904 26.398904 0 0 1-15.406121-4.997457 26.179859 26.179859 0 0 1-10.522242-25.79856l8.339911-48.530498-35.266144-34.349403a26.147408 26.147408 0 0 1-6.668684-26.958683 26.155521 26.155521 0 0 1 21.279755-17.921075l48.692753-7.090548 21.798972-44.173949c4.453902-9.029496 13.499624-14.643522 23.59189-14.643522s19.129875 5.605913 23.591891 14.643522l21.798971 44.173949 48.74143 7.09866a26.463806 26.463806 0 0 1 21.247304 17.929188 26.187972 26.187972 0 0 1-6.668684 26.942458l-35.274257 34.349403 8.331799 48.530498a26.171746 26.171746 0 0 1-10.465453 25.749883c-8.015402 5.808732-19.146101 6.563218-27.786185 1.938949l-43.508703-22.861743-43.58983 22.902306a26.098732 26.098732 0 0 1-12.258373 3.066622z m55.831978-200.133544a1.955174 1.955174 0 0 0-1.760468 1.078997l-24.62221 49.909666a12.169132 12.169132 0 0 1-9.1593 6.652459l-55.061266 8.015401a1.979512 1.979512 0 0 0-1.606325 1.35483 1.987625 1.987625 0 0 0 0.50299 1.995738l39.857964 38.827644a12.169132 12.169132 0 0 1 3.50471 10.773738l-9.418908 54.842221a1.947061 1.947061 0 1 0 2.7989 2.101203l49.317435-25.912138a12.201583 12.201583 0 0 1 11.325406 0l49.24442 25.871574c0.397525 0.219044 1.095222 0.600344 2.093091-0.129804a2.011963 2.011963 0 0 0 0.770712-1.930835l-9.410796-54.842221a12.169132 12.169132 0 0 1 3.50471-10.773738l39.849851-38.819531a2.020076 2.020076 0 0 0 0.494878-2.036302 1.922723 1.922723 0 0 0-1.557649-1.314266l-55.101829-8.023514a12.169132 12.169132 0 0 1-9.1593-6.652459l-24.62221-49.909666a2.00385 2.00385 0 0 0-1.784806-1.078997z" fill="#33363A" p-id="9277"></path></svg>