<?xml version="1.0" standalone="no"?><!DOCTYPE svg PUBLIC "-//W3C//DTD SVG 1.1//EN" "http://www.w3.org/Graphics/SVG/1.1/DTD/svg11.dtd"><svg t="1678893840612" class="icon" viewBox="0 0 1024 1024" version="1.1" xmlns="http://www.w3.org/2000/svg" p-id="7131" xmlns:xlink="http://www.w3.org/1999/xlink" width="200" height="200"><path d="M512.004033 511.995967m-499.905067 0a499.905067 499.905067 0 1 0 999.810134 0 499.905067 499.905067 0 1 0-999.810134 0Z" fill="#FFD00B" p-id="7132"></path><path d="M512.004033 12.098966v999.802068c276.090333 0 499.905067-223.814735 499.905067-499.913133C1011.901034 235.905634 788.0863 12.098966 512.004033 12.098966z" fill="#FFBE08" p-id="7133"></path><path d="M512.004033 1024C229.686766 1024 0 794.313234 0 511.995967S229.686766 0 512.004033 0s512.004033 229.6787 512.004033 511.995967c-0.008066 282.317267-229.686766 512.004033-512.004033 512.004033zM512.004033 24.197932C243.027892 24.197932 24.197932 243.019826 24.197932 511.995967c0 268.984207 218.829961 487.814167 487.806101 487.814167s487.806101-218.829961 487.806101-487.814167C999.802068 243.019826 780.972108 24.197932 512.004033 24.197932z" fill="#33363A" p-id="7134"></path><path d="M512.004033 512.004033m-386.989453 0a386.989453 386.989453 0 1 0 773.978906 0 386.989453 386.989453 0 1 0-773.978906 0Z" fill="#FFD00B" p-id="7135"></path><path d="M238.373823 238.365757l547.276552 547.284618c151.124148-151.124148 151.124148-396.152403 0-547.292684-151.132214-151.124148-396.152403-151.132214-547.276552 0.008066z" fill="#FFBE08" p-id="7136"></path><path d="M512.004033 95.025277a12.098966 12.098966 0 0 1-12.098966-12.098966V54.51794a12.098966 12.098966 0 1 1 24.197932 0v28.408371a12.098966 12.098966 0 0 1-12.098966 12.098966zM512.004033 981.589092a12.098966 12.098966 0 0 1-12.098966-12.098966v-28.408371a12.098966 12.098966 0 1 1 24.197932 0v28.408371a12.098966 12.098966 0 0 1-12.098966 12.098966zM815.405764 220.693201a12.098966 12.098966 0 0 1-8.558001-20.648901l20.084283-20.084283a12.098966 12.098966 0 1 1 17.107937 17.107937l-20.084283 20.084283a12.042504 12.042504 0 0 1-8.549936 3.540964zM188.509953 847.589013a12.098966 12.098966 0 0 1-8.558002-20.648901l20.084283-20.084283a12.098966 12.098966 0 1 1 17.107937 17.107937l-20.084283 20.084283a12.026372 12.026372 0 0 1-8.549935 3.540964zM969.490126 524.102999h-28.416437a12.098966 12.098966 0 1 1 0-24.197932h28.416437a12.098966 12.098966 0 1 1 0 24.197932zM82.926311 524.102999H54.509874a12.098966 12.098966 0 1 1 0-24.197932h28.416437a12.098966 12.098966 0 1 1 0 24.197932zM835.490047 847.589013c-3.097335 0-6.19467-1.177633-8.558001-3.540964l-20.084283-20.084283a12.098966 12.098966 0 1 1 17.107937-17.107937l20.084283 20.084283a12.098966 12.098966 0 0 1-8.549936 20.648901zM208.594236 220.693201c-3.097335 0-6.19467-1.177633-8.558002-3.540964l-20.084283-20.084283a12.098966 12.098966 0 1 1 17.107937-17.107937l20.084283 20.084283a12.098966 12.098966 0 0 1-8.549935 20.648901zM297.473238 152.519562a12.098966 12.098966 0 0 1-10.48577-6.049483l-14.212252-24.609296a12.098966 12.098966 0 1 1 20.955409-12.098966l14.212251 24.609297a12.098966 12.098966 0 0 1-10.469638 18.148448zM740.755146 920.295731c-4.186242 0-8.243429-2.177814-10.493837-6.057548l-14.19612-24.609297a12.107032 12.107032 0 0 1 20.971541-12.0909l14.19612 24.609297a12.107032 12.107032 0 0 1-10.477704 18.148448zM623.072539 109.648894a12.115098 12.115098 0 0 1-11.703733-15.228565l7.340039-27.440455a12.098966 12.098966 0 1 1 23.383268 6.251133l-7.340039 27.440454a12.098966 12.098966 0 0 1-11.679535 8.977433zM393.619686 965.997558a12.115098 12.115098 0 0 1-11.703733-15.228565l7.340039-27.440454a12.098966 12.098966 0 1 1 23.383268 6.251132l-7.340039 27.440455a12.107032 12.107032 0 0 1-11.679535 8.977432z" fill="#33363A" p-id="7137"></path><path d="M883.595535 309.564138a12.098966 12.098966 0 0 1-6.057549-22.57667l24.609297-14.212252a12.098966 12.098966 0 1 1 12.098966 20.955409l-24.609297 14.212251a12.066702 12.066702 0 0 1-6.041417 1.621262zM115.8113 752.846045a12.098966 12.098966 0 0 1-6.057549-22.57667l24.609297-14.204186a12.098966 12.098966 0 0 1 12.098966 20.955409l-24.609297 14.204186a12.066702 12.066702 0 0 1-6.041417 1.621261z" fill="#33363A" p-id="7138"></path><path d="M953.906658 642.511544a12.098966 12.098966 0 0 1-3.145731-0.419431l-27.440454-7.356171a12.107032 12.107032 0 0 1-8.558002-14.8172 12.13123 12.13123 0 0 1 14.825266-8.558002l27.440455 7.356171a12.107032 12.107032 0 0 1-3.121534 23.794633zM97.557994 413.042559c-1.040511 0-2.089088-0.137122-3.137665-0.419431l-27.440455-7.348105a12.107032 12.107032 0 0 1-8.566067-14.8172 12.13123 12.13123 0 0 1 14.8172-8.558002l27.440454 7.348105a12.107032 12.107032 0 0 1-3.113467 23.794633z" fill="#33363A" p-id="7139"></path><path d="M140.404465 309.564138c-2.056824 0-4.137846-0.524289-6.041417-1.629327l-24.609297-14.212252a12.098966 12.098966 0 1 1 12.098966-20.955409l24.609297 14.212252a12.098966 12.098966 0 0 1-6.057549 22.584736zM908.1887 752.846045c-2.056824 0-4.137846-0.524289-6.041417-1.629327l-24.593165-14.212252a12.098966 12.098966 0 1 1 12.098966-20.947342l24.593165 14.212251a12.098966 12.098966 0 0 1-6.057549 22.57667zM400.943593 109.648894a12.098966 12.098966 0 0 1-11.679535-8.969367l-7.356171-27.432388a12.098966 12.098966 0 0 1 23.383268-6.267265l7.356171 27.432389a12.098966 12.098966 0 0 1-11.703733 15.236631zM630.412578 965.997558a12.098966 12.098966 0 0 1-11.679535-8.969366l-7.356171-27.440455a12.098966 12.098966 0 0 1 23.383268-6.259198l7.356171 27.440454a12.098966 12.098966 0 0 1-11.703733 15.228565z" fill="#33363A" p-id="7140"></path><path d="M726.526762 152.511496a12.098966 12.098966 0 0 1-10.469638-18.156514l14.212251-24.601231a12.098966 12.098966 0 0 1 20.955409 12.107032l-14.212252 24.601231a12.098966 12.098966 0 0 1-10.48577 6.049482zM283.244854 920.295731a12.098966 12.098966 0 0 1-10.469638-18.156514l14.212252-24.593165a12.098966 12.098966 0 1 1 20.955408 12.107032l-14.212251 24.593165a12.098966 12.098966 0 0 1-10.485771 6.049482z" fill="#33363A" p-id="7141"></path><path d="M926.442006 413.042559a12.098966 12.098966 0 0 1-3.113467-23.786567l27.440454-7.348105a12.098966 12.098966 0 0 1 6.251133 23.375202l-27.440455 7.348105a12.018306 12.018306 0 0 1-3.137665 0.411365zM70.093342 642.51961a12.107032 12.107032 0 0 1-3.121534-23.786567l27.440455-7.364237a12.098966 12.098966 0 0 1 6.267264 23.367136l-27.440454 7.364237a12.098966 12.098966 0 0 1-3.145731 0.419431z" fill="#33363A" p-id="7142"></path><path d="M673.968855 584.121935a12.098966 12.098966 0 0 1-12.098966-12.098966c0-2.016494-1.629327-3.653888-3.637756-3.653888s-3.637756 1.637393-3.637756 3.653888a12.098966 12.098966 0 1 1-24.197931 0c0-15.357621 12.486133-27.851819 27.835687-27.851819s27.835687 12.494199 27.835687 27.851819a12.098966 12.098966 0 0 1-12.098965 12.098966z" fill="#33363A" p-id="7143"></path><path d="M640.067553 658.925807m-42.249589 0a42.249588 42.249588 0 1 0 84.499177 0 42.249588 42.249588 0 1 0-84.499177 0Z" fill="#E04038" p-id="7144"></path><path d="M640.067553 616.684285a42.249588 42.249588 0 1 1 0 84.499177" fill="#FF6155" p-id="7145"></path><path d="M640.067553 713.290493a54.413082 54.413082 0 0 1-54.348555-54.35662c0-29.965105 24.375383-54.340488 54.348555-54.340488s54.348554 24.375383 54.348554 54.340488c0 29.965105-24.383449 54.35662-54.348554 54.35662z m0-84.507243a30.182887 30.182887 0 0 0-30.150623 30.142557c0 16.632045 13.526644 30.158689 30.150623 30.158689s30.150623-13.526644 30.150622-30.158689a30.182887 30.182887 0 0 0-30.150622-30.142557z" fill="#33363A" p-id="7146"></path><path d="M794.20031 229.79969c-155.600766-155.600766-408.783723-155.600766-564.384488 0.008066-147.308941 147.308941-155.068411 382.020811-23.471994 538.654021 0.379101 0.516223 0.798532 1.008247 1.258292 1.468008a398.709318 398.709318 0 0 0 22.19757 24.262459c77.804416 77.804416 180.000347 116.698558 282.204343 116.698558 102.195931 0 204.391862-38.902208 282.188211-116.698558 155.608832-155.5927 155.608832-408.783723 0.008066-564.392554z m-101.179617 610.408954c-142.453223 78.481958-325.478311 57.502351-446.113066-63.116271a378.996069 378.996069 0 0 1-15.139839-16.148087c41.499453-53.437099 72.158232-101.123156 99.243783-143.372744 32.392964-50.517215 57.970178-90.411538 90.072767-121.844651a12.0909 12.0909 0 0 0-3.26672-19.568061 242.027711 242.027711 0 0 1-55.17935-36.264633c-0.048396-0.04033-0.072594-0.112924-0.12099-0.153254-3.807141-3.315117-7.461029-6.614101-10.969729-10.042141-0.459761-0.451695-0.959851-0.846928-1.411546-1.298622a234.46989 234.46989 0 0 1-11.945712-12.921696c-1.048577-1.217963-2.040692-2.484321-3.065071-3.718415a244.842737 244.842737 0 0 1-8.065978-10.211527 222.596772 222.596772 0 0 1-3.032807-4.21044 244.221657 244.221657 0 0 1-7.380369-10.993927c-0.766268-1.217963-1.548668-2.427859-2.298804-3.653888a245.520279 245.520279 0 0 1-18.180712-36.61147l35.361244-35.353178a243.455389 243.455389 0 0 1 82.337495 53.929123 241.584082 241.584082 0 0 1 52.961206 79.9419 12.098966 12.098966 0 0 0 16.430395 6.331792c21.528093-10.316385 44.290281-11.735997 65.681252-11.735997 57.792726 0 160.34356 46.113191 202.585083 132.693391 37.918159 77.71569 18.124251 169.796885-57.236174 266.298236-0.492025 0.645278-0.911455 1.32282-1.266358 2.02456z m-310.927288-356.112892c3.476436 2.137484 6.920608 4.315298 10.493836 6.291462-2.314935 2.516585-4.573409 5.162225-6.839949 7.767536a211.562515 211.562515 0 0 0-3.653887-14.058998z m-18.44689 26.367679a194.712689 194.712689 0 0 1-101.647444-53.541956 193.64798 193.64798 0 0 1-37.740708-53.687144L256.46581 371.03495a193.906091 193.906091 0 0 1 35.877467 22.213701c0.766268 1.28249 1.621261 2.500453 2.403661 3.766811 1.500272 2.435925 3.040873 4.839586 4.621805 7.227116 1.072775 1.613195 2.137484 3.234457 3.250589 4.823454 2.573047 3.710349 5.218687 7.364237 7.985317 10.945531 0.693674 0.895323 1.427678 1.766449 2.137484 2.653707a269.774673 269.774673 0 0 0 10.267989 12.195757c3.234457 3.613558 6.533442 7.170654 9.977614 10.60676l0.016132 0.016132 0.008066 0.008066 0.016132 0.016132c2.984412 2.992478 6.017219 5.751042 9.074224 8.469276 0.984049 0.895323 1.927769 1.847109 2.92795 2.734366a193.664112 193.664112 0 0 1 18.616275 53.751672z m413.445858 266.628942a376.955377 376.955377 0 0 1-29.432751 26.464471c54.985766-91.105212 53.57422-164.174899 36.200106-216.34564 11.615007-9.792096 14.793002-26.819374 6.662497-40.208896-7.227116-11.873118-21.124794-17.099872-33.981962-14.091262-50.444621-73.50525-142.090254-117.924586-207.594055-117.924586-20.640836 0-42.539964 1.24216-64.576213 9.251675a264.838294 264.838294 0 0 0-53.388703-76.707443 267.887234 267.887234 0 0 0-97.840303-62.19675c-0.145188-0.056462-0.266177-0.16132-0.419431-0.209715-0.854994-0.306507-1.726119-0.548486-2.581112-0.846928a255.691476 255.691476 0 0 0-10.961663-3.581293c-1.016313-0.306507-2.02456-0.629146-3.040874-0.927588a267.225824 267.225824 0 0 0-14.236449-3.718415c-0.717872-0.169386-1.435744-0.298441-2.153616-0.459761a262.966988 262.966988 0 0 0-16.002899-3.057005 267.225824 267.225824 0 0 0-14.397769-1.943901 12.13123 12.13123 0 0 0-13.284665 13.260467v0.024198l0.024198 0.185517c0.58075 5.549392 1.355084 11.082653 2.290738 16.607847 0.298441 1.790647 0.717872 3.54903 1.056643 5.331611 0.725938 3.799075 1.451876 7.590085 2.347199 11.364962 0.451695 1.919703 1.000181 3.807141 1.492206 5.710712 0.943719 3.653888 1.911637 7.307775 3.008609 10.929399 0.508157 1.677723 1.088907 3.331249 1.637394 5.000906 0.887257 2.742432 1.701921 5.500996 2.68597 8.211164 0.129056 0.362969 0.354903 0.66141 0.516223 1.008247 0.451695 1.226029 0.814664 2.492387 1.290556 3.71035a224.56487 224.56487 0 0 0-13.550842-6.339858c-0.096792-0.04033-0.169386-0.112924-0.266177-0.153254-0.298441-0.129056-0.604948-0.217781-0.903389-0.346837a218.781565 218.781565 0 0 0-14.389704-5.549392l-0.362969-0.12099a215.555174 215.555174 0 0 0-14.542956-4.387891l-1.355085-0.371035a219.717218 219.717218 0 0 0-14.317109-3.169929l-2.734366-0.483959a213.595142 213.595142 0 0 0-14.559089-2.081022 12.155428 12.155428 0 0 0-9.808228 3.476436 12.139296 12.139296 0 0 0-3.484502 9.775965v0.024198l0.016131 0.112923c0.588816 5.670382 1.451876 11.332698 2.500453 16.96275 0.508157 2.742432 1.193765 5.444535 1.806779 8.162769 0.629146 2.758564 1.217963 5.517128 1.951967 8.259561 0.935653 3.524832 2.040692 6.985136 3.153797 10.453506 0.596882 1.839043 1.161501 3.678086 1.806779 5.509063 1.314754 3.758745 2.758564 7.452963 4.274968 11.122982 0.346837 0.838862 0.613014 1.701921 0.975983 2.540783 0.104858 0.241979 0.274243 0.443629 0.395233 0.677542 10.872937 25.198113 26.270888 48.403929 45.863146 67.988122a218.878357 218.878357 0 0 0 112.754295 59.897946c-15.494742 21.520027-30.691043 45.129142-47.008515 70.585366-26.077304 40.676723-55.518121 86.451143-94.694572 137.331328-114.222303-146.945972-103.970446-359.976495 30.981418-494.920294 73.093885-73.093885 169.070948-109.624696 265.080274-109.624695 95.985128 0 192.010587 36.546943 265.080274 109.616629 146.179704 146.203902 146.179704 384.037305 0.016132 530.208944z" fill="#33363A" p-id="7147"></path><path d="M362.468882 727.801186a12.107032 12.107032 0 0 1-10.816475-6.662497c-0.951785-1.871307-23.43973-45.040417-66.32653-32.772065a12.0909 12.0909 0 1 1-6.646366-23.262278c49.847739-14.244516 83.676447 23.334872 94.605847 45.19367a12.098966 12.098966 0 0 1-10.816476 17.50317z" fill="#33363A" p-id="7148"></path><path d="M330.600206 773.680464a12.107032 12.107032 0 0 1-10.816475-6.662497c-0.951785-1.871307-23.520389-45.016219-66.342662-32.780131a12.098966 12.098966 0 1 1-6.646365-23.270344c49.928399-14.23645 83.700645 23.342938 94.613912 45.201736a12.098966 12.098966 0 0 1-10.80841 17.511236z" fill="#33363A" p-id="7149"></path><path d="M666.749805 314.621506a12.098966 12.098966 0 0 1-11.453688-16.002899l1.951967-5.742976a12.098966 12.098966 0 0 1 22.907375 7.791734l-1.951966 5.742976a12.098966 12.098966 0 0 1-11.453688 8.211165zM637.397714 400.653218a12.098966 12.098966 0 0 1-11.453687-16.010965l11.502083-33.715784a12.098966 12.098966 0 0 1 22.907375 7.815932l-11.502083 33.715784a12.098966 12.098966 0 0 1-11.453688 8.195033z" fill="#33363A" p-id="7150"></path><path d="M497.904705 291.496349a12.098966 12.098966 0 0 1-10.848739-6.727025l-2.710169-5.468732a12.098966 12.098966 0 0 1 21.681347-10.743882l2.710168 5.468732a12.098966 12.098966 0 0 1-10.832607 17.470907zM537.984545 373.083708a12.123164 12.123164 0 0 1-10.872937-6.767355l-15.720589-32.029995a12.098966 12.098966 0 1 1 21.729742-10.663222l15.72059 32.029995a12.098966 12.098966 0 0 1-10.856806 17.430577z" fill="#33363A" p-id="7151"></path><path d="M814.526573 399.523981a12.098966 12.098966 0 0 1-5.331611-22.963837l5.468732-2.68597a12.098966 12.098966 0 0 1 10.64709 21.729742l-5.468732 2.677905a12.042504 12.042504 0 0 1-5.315479 1.24216zM732.971478 439.595756a12.098966 12.098966 0 0 1-5.347743-22.955771l31.965467-15.72059a12.098966 12.098966 0 0 1 10.679354 21.713611l-31.965467 15.720589a12.002174 12.002174 0 0 1-5.331611 1.242161z" fill="#33363A" p-id="7152"></path></svg>