<?xml version="1.0" standalone="no"?><!DOCTYPE svg PUBLIC "-//W3C//DTD SVG 1.1//EN" "http://www.w3.org/Graphics/SVG/1.1/DTD/svg11.dtd"><svg t="1678893983482" class="icon" viewBox="0 0 1024 1024" version="1.1" xmlns="http://www.w3.org/2000/svg" p-id="10173" xmlns:xlink="http://www.w3.org/1999/xlink" width="200" height="200"><path d="M512 511.991895m-499.841753 0a499.841753 499.841753 0 1 0 999.683506 0 499.841753 499.841753 0 1 0-999.683506 0Z" fill="#FF1A1A" p-id="10174"></path><path d="M12.158247 511.991895a499.841753 382.838887 0 1 0 999.683506 0 499.841753 382.838887 0 1 0-999.683506 0Z" fill="#D60909" p-id="10175"></path><path d="M12.158247 511.991895c0 276.081372 223.784698 499.849858 499.849858 499.849858 276.04895 0 499.833647-223.768487 499.833648-499.849858H12.158247z" fill="#FFFFFF" p-id="10176"></path><path d="M512.008105 894.830782c276.04895 0 499.833647-171.415074 499.833648-382.838887H12.158247c0 211.423813 223.784698 382.838887 499.849858 382.838887z" fill="#D8E5EA" p-id="10177"></path><path d="M12.158247 511.991895a499.841753 135.896782 0 1 0 999.683506 0 499.841753 135.896782 0 1 0-999.683506 0Z" fill="#80949B" p-id="10178"></path><path d="M177.072712 511.991895a334.927288 91.057166 0 1 0 669.854576 0 334.927288 91.057166 0 1 0-669.854576 0Z" fill="#63797F" p-id="10179"></path><path d="M12.158247 511.991895c0-75.056913 223.784698-135.896782 499.849858-135.896782 276.04895 0 499.833647 60.839869 499.833648 135.896782" fill="#3E5054" p-id="10180"></path><path d="M512.008105 0C229.6855 0 0 229.677395 0 511.991895c0 282.322605 229.6855 512.008105 512.008105 512.008105 282.3145 0 511.991895-229.6855 511.991895-512.008105C1024 229.677395 794.322605 0 512.008105 0z m484.773632 524.150142c-25.175677 55.036332-217.162506 111.580287-484.773632 111.580287-267.619232 0-459.614166-56.543955-484.789842-111.580287h969.563474z m-969.563474-24.316495C52.39394 444.797315 244.388874 388.25336 512.008105 388.25336c267.611126 0 459.597955 56.543955 484.773632 111.580287H27.218263zM512.008105 24.316494c251.991831 0 459.946491 192.116517 485.114063 437.575317-73.184543-63.944275-284.227397-97.954945-485.114063-97.954945-200.894771 0-411.945731 34.002565-485.130273 97.946839C52.045403 216.433011 260.008169 24.316494 512.008105 24.316494z m0 975.367012c-251.999937 0-459.962702-192.124622-485.130273-437.591528 73.184543 63.944275 284.235503 97.946839 485.130273 97.94684 200.886666 0 411.92952-34.002565 485.114063-97.94684-25.167572 245.466905-233.122232 437.591527-485.114063 437.591528z" fill="#33363A" p-id="10181"></path></svg>