<?xml version="1.0" standalone="no"?><!DOCTYPE svg PUBLIC "-//W3C//DTD SVG 1.1//EN" "http://www.w3.org/Graphics/SVG/1.1/DTD/svg11.dtd"><svg t="1678893656136" class="icon" viewBox="0 0 1024 1024" version="1.1" xmlns="http://www.w3.org/2000/svg" p-id="4094" xmlns:xlink="http://www.w3.org/1999/xlink" width="200" height="200"><path d="M928.072137 525.139965c0 166.369826-197.389156 269.445733-416.077448 269.445734S95.917242 691.509791 95.917242 525.139965c0-166.402012 197.389156-365.786704 416.077447-365.786704s416.077448 199.392739 416.077448 365.786704z" fill="#F4D647" p-id="4095"></path><path d="M928.072137 525.139965c0 166.369826-197.389156 258.711677-416.077448 258.711677S95.917242 691.509791 95.917242 525.139965c0-166.402012 197.389156-281.048813 416.077447-281.048813s416.077448 114.654848 416.077448 281.048813z" fill="#E2B90E" p-id="4096"></path><path d="M596.322208 754.417476c0 11.208801-37.74622 13.220431-84.311426 13.220431s-84.319472-2.01163-84.319472-13.220431c0-11.224894 37.74622-40.530316 84.319472-40.530316 46.557159 0 84.311425 29.313468 84.311426 40.530316z" fill="#E2B90E" p-id="4097"></path><path d="M928.072137 525.139965c0-166.418105-70.495552 147.573157-416.077448 147.573158-345.573849 0-416.077448-313.983215-416.077447-147.573158 0 96.445576 78.63863 164.840987 163.601823 236.744681l175.092252 156.778375c42.727016 36.804778 112.03973 36.804778 154.766745 0l175.076159-156.762282c84.99538-81.293981 163.617916-140.685337 163.617916-236.760774z" fill="#E0A010" p-id="4098"></path><path d="M668.652366 847.676631c-38.084174-43.708691-94.120132-71.364576-156.64963-71.364577-62.529499 0-118.565457 27.663932-156.665724 71.38067l79.266258 70.970297c42.727016 36.804778 112.03973 36.804778 154.766745 0l79.282351-70.98639z" fill="#F4EC8E" p-id="4099"></path><path d="M940.141915 525.139965c0-170.095364-197.566179-377.856483-428.147226-377.856482S83.847463 355.052648 83.847463 525.139965c0 62.304196 25.024674 107.968191 69.650668 146.15697 0.096558 0.096558 0.128744 0.233349 0.225303 0.337954l272.422945 268.270942c0.18507 0.18507 0.386233 0.378186 0.587396 0.547163 23.503882 20.245042 54.378375 30.359516 85.260914 30.359516 30.874493 0 61.757033-10.130567 85.260915-30.359516a13.196291 13.196291 0 0 0 0.603489-0.547163l271.038944-267.200755c45.639855-38.470407 71.243879-84.504542 71.243878-147.565111zM581.202799 922.412698c-38.253151 32.668867-100.171114 32.676913-138.424266-0.008046l-73.34402-72.225554a195.635015 195.635015 0 0 1 142.560176-61.805312 195.626968 195.626968 0 0 1 142.519944 61.757033l-73.311834 72.281879z m90.515291-89.227848a219.758479 219.758479 0 0 0-159.707308-68.942574 219.734339 219.734339 0 0 0-159.763633 68.9989L248.913753 731.492944c14.773409 7.362565 30.391702 14.604432 46.798554 21.838252a12.069778 12.069778 0 0 0 9.744334-22.087695c-121.904762-53.774886-197.461575-107.010655-197.461575-206.103536 0-155.917397 190.219708-353.716926 404.00767-353.716926s404.007669 197.799529 404.007669 353.716926c0 44.030552-14.982618 78.976583-42.252271 108.974006-0.096558 0.088512-0.225303 0.112651-0.313814 0.20921l-15.956247 15.730944c-33.851705 30.230772-81.084771 55.681911-138.92315 81.197423a12.069778 12.069778 0 0 0 9.744335 22.087694 1103.016816 1103.016816 0 0 0 46.347949-21.620996l-102.939117 101.466604z" fill="#33363A" p-id="4100"></path><path d="M80.797832 65.249222C19.451172 127.231557-5.259688 217.14336 25.21248 299.274179 55.668554 381.453277 133.011694 433.506208 219.962377 440.530819c61.354707-62.014521 119.740248-114.252522 89.268082-196.431621C278.774384 161.952287 167.756563 72.25774 80.797832 65.249222z" fill="#E2B90E" p-id="4101"></path><path d="M80.797832 65.249222C19.451172 127.231557-5.259688 217.14336 25.21248 299.274179 55.668554 381.453277 133.011694 433.506208 219.962377 440.530819c61.354707-62.014521-52.334559-48.263021-82.806726-130.442119-30.472167-82.146912 30.600912-237.83096-56.357819-244.839478z" fill="#F4EC8E" p-id="4102"></path><path d="M137.155651 310.0887c-24.928116-67.220619 11.377778-183.605469-22.216439-227.563602C65.147353 143.260223 46.994406 224.449599 74.754897 299.274179c25.338488 68.363225 83.160773 115.781361 151.93437 133.869935 45.092692-53.589816-60.348892-44.336319-89.533616-123.055414z" fill="#DBD279" p-id="4103"></path><path d="M219.962377 452.600597a12.069778 12.069778 0 0 1-8.577589-20.558856c13.807826-13.96071 14.636618-20.365739 14.35499-22.473927-0.796605-5.914191-13.928524-13.494012-26.642024-20.824391-24.50165-14.137734-58.071727-33.489612-73.255509-74.462486-12.560616-33.843659-10.70187-77.310954-8.915543-119.362062 3.017445-70.841553 2.840421-114.421499-37.094452-117.640107a12.069778 12.069778 0 0 1-11.063963-12.995128 12.085871 12.085871 0 0 1 13.003174-11.063964c65.128524 5.24633 62.151312 75.138394 59.278705 142.729153-1.689769 39.653245-3.435864 80.650259 7.426937 109.939588 12.166337 32.797611 40.184316 48.963068 62.690429 61.942103 19.384064 11.184661 36.120824 20.832438 38.502593 38.51064 1.721955 12.810058-4.988842 26.360396-21.122112 42.67069-2.365677 2.389816-5.471633 3.588747-8.585636 3.588747z" fill="#33363A" p-id="4104"></path><path d="M219.978471 452.600597c-0.329907 0-0.651768-0.016093-0.981676-0.040232-95.278831-7.700519-173.869181-64.830803-205.105767-149.09395-31.25268-84.247053-8.907496-178.785604 58.329215-246.70627a12.069778 12.069778 0 0 1 9.551218-3.540469c91.344083 7.362565 218.808989 126.137231 250.946786 212.814333a12.069778 12.069778 0 0 1-22.634857 8.392519c-28.52491-76.924721-143.067107-185.56882-224.707088-196.552318-57.436052 60.83973-76.176395 143.541851-48.850417 217.199686 27.937514 75.363696 98.593997 126.491278 184.402075 133.41933a12.069778 12.069778 0 0 1-0.949489 24.107371z" fill="#33363A" p-id="4105"></path><path d="M174.547825 514.301304a12.069778 12.069778 0 0 1-9.229358-19.842715c26.038535-30.963005 55.818702-69.328807 58.50624-77.319001 1.054094-6.582052 7.105076-10.806475 13.7515-9.647776 6.582052 1.054094 10.983498 7.595914 9.921358 14.177966-2.059909 12.850291-35.78287 55.134748-63.712337 88.342732-2.38177 2.824328-5.793494 4.288795-9.237403 4.288794z" fill="#33363A" p-id="4106"></path><path d="M943.199593 65.249222c61.34666 61.982335 86.065567 151.894138 55.585352 234.024957-30.456074 82.179098-107.807261 134.232029-194.749897 141.25664-61.34666-62.014521-119.748295-114.252522-89.276128-196.431621 30.480214-82.146912 141.481942-171.841458 228.440673-178.849976z" fill="#E2B90E" p-id="4107"></path><path d="M943.199593 65.249222c61.34666 61.982335 86.065567 151.894138 55.585352 234.024957-30.456074 82.179098-107.807261 134.232029-194.749897 141.25664-61.34666-62.014521 52.342606-48.263021 82.814773-130.442119C917.305895 227.941788 856.240862 72.25774 943.199593 65.249222z" fill="#F4EC8E" p-id="4108"></path><path d="M886.849821 310.0887c24.928116-67.220619-11.377778-183.605469 22.208392-227.563602 49.799906 60.743171 67.944806 141.932548 40.184315 216.757127-25.330442 68.363225-83.160773 115.781361-151.93437 133.869936-45.092692-53.597863 60.340846-44.344366 89.541663-123.063461z" fill="#DBD279" p-id="4109"></path><path d="M804.035048 452.600597c-3.114003 0-6.219959-1.190885-8.57759-3.580701-16.125224-16.302247-22.836021-29.860632-21.114065-42.67069 2.38177-17.670156 19.118529-27.325978 38.502593-38.510639 22.506113-12.979035 50.524092-29.136445 62.690429-61.942103 10.854754-29.281282 9.108659-70.27025 7.41889-109.923495-2.880654-67.590759-5.865912-137.498916 59.278705-142.745246 6.734936-0.434512 12.472104 4.417539 13.003175 11.063963a12.069778 12.069778 0 0 1-11.063964 12.995128c-39.94292 3.218608-40.119943 46.806601-37.102498 117.6562 1.794374 42.043061 3.645073 85.510357-8.89945 119.345969-15.191828 40.972874-48.753858 60.324752-73.263555 74.462486-12.705453 7.330379-25.837372 14.9102-26.642024 20.824391-0.281628 2.108188 0.547163 8.521264 14.354989 22.473928a12.053685 12.053685 0 0 1-8.585635 20.550809z" fill="#33363A" p-id="4110"></path><path d="M804.027001 452.600597a12.077825 12.077825 0 0 1-0.957536-24.099324c85.816124-6.928053 156.472607-58.055634 184.402075-133.419331 27.334025-73.657834 8.593682-156.368003-48.84237-217.199685-81.639981 10.983498-196.182178 119.627597-224.707088 196.552318a12.069778 12.069778 0 1 1-22.634858-8.392519c32.137797-86.677102 159.602703-205.451768 250.946786-212.814333 3.572654-0.241396 7.040704 1.005815 9.551218 3.540468 67.236712 67.928713 89.589942 162.467264 58.329216 246.706271-31.22854 84.263146-109.81889 141.385384-205.097721 149.085903a13.936571 13.936571 0 0 1-0.989722 0.040232z" fill="#33363A" p-id="4111"></path><path d="M849.457647 514.301304c-3.44391 0-6.855634-1.464466-9.24545-4.296841-27.929467-33.207984-61.660475-75.492441-63.712337-88.342731a12.069778 12.069778 0 1 1 23.833789-3.806004c2.534653 7.2821 32.31482 45.647902 58.353355 76.610907a12.061732 12.061732 0 0 1-9.229357 19.834669z" fill="#33363A" p-id="4112"></path><path d="M432.857176 752.832312a12.069778 12.069778 0 0 1-11.232941-7.636147c-0.193116-0.490838-18.321924-46.347949-23.721138-59.045356-13.365268-10.903033-108.185447-61.732893-173.161087-95.335156a12.069778 12.069778 0 0 1 11.080056-21.443973c177.369417 91.706176 181.432909 100.822882 183.380167 105.208235 4.337074 9.784567 24.034952 59.632752 24.87179 61.757033a12.061732 12.061732 0 0 1-11.216847 16.495364zM591.156343 752.832312a12.053685 12.053685 0 0 1-11.216848-16.495364c0.836838-2.124281 20.52667-51.980512 24.87179-61.748986 1.939211-4.377306 5.994657-13.502059 183.356027-105.200189a12.069778 12.069778 0 1 1 11.080057 21.443973c-64.97564 33.602263-159.803866 84.424077-173.153041 95.335156-5.407261 12.681314-23.519975 58.554518-23.713091 59.045356a12.069778 12.069778 0 0 1-11.224894 7.620054z" fill="#33363A" p-id="4113"></path><path d="M489.190855 905.563288a12.085871 12.085871 0 0 1-11.385825-8.054566l-7.451076-21.122112a12.069778 12.069778 0 0 1 22.771648-8.030426l7.451077 21.122112a12.069778 12.069778 0 0 1-11.385824 16.084992zM534.80657 905.563288a12.069778 12.069778 0 0 1-11.385824-16.084992l7.451077-21.122112a12.085871 12.085871 0 0 1 22.771648 8.030426l-7.451076 21.122112a12.077825 12.077825 0 0 1-11.385825 8.054566z" fill="#33363A" p-id="4114"></path></svg>