<?xml version="1.0" standalone="no"?><!DOCTYPE svg PUBLIC "-//W3C//DTD SVG 1.1//EN" "http://www.w3.org/Graphics/SVG/1.1/DTD/svg11.dtd"><svg t="1678894041801" class="icon" viewBox="0 0 1024 1024" version="1.1" xmlns="http://www.w3.org/2000/svg" p-id="11461" xmlns:xlink="http://www.w3.org/1999/xlink" width="200" height="200"><path d="M763.930973 567.437522l244.087454-157.034892-279.744736 56.001915 67.430223-152.291824-116.843205 90.960979 54.70981-388.763082-223.542183 395.945902L286.51023 16.310618l54.685734 388.763082-116.827155-90.960979 67.422197 152.291824L12.038245 410.40263l244.103505 157.034892L12.038245 724.472415l294.904899-59.003451-82.574335 186.480439 212.988655-147.829648 10.786268 13.466784 61.884604 151.665835v-0.786499l0.016051 0.786499 61.884605-151.665835 10.786267-13.466784 212.988655 147.829648-82.574335-186.480439 294.888848 59.003451z" fill="#FFF24D" p-id="11462"></path><path d="M437.357464 704.119755l10.786268 13.466784 61.884604 151.665835v-0.786499l0.016051 0.786499 61.884605-151.665835 10.786267-13.466784 164.867777 114.427531-34.453457-77.815215 36.564163 7.327278-36.564163-82.590385 125.101442 25.031524-74.300048-47.783807 58.497845-37.639579-58.497845-37.63958 74.251895-47.767756-109.909177 21.989861 36.564163-82.58236-36.564163 7.327278 16.580676-37.446967-65.993658 51.387255 11.901811-84.532556-11.901811 9.261423 40.600987-288.508578-209.43336 370.94648-209.417309-370.94648 40.584937 288.508578-11.877735-9.261423 11.877735 84.532556-65.977608-51.387255 16.57265 37.446967-36.572188-7.327278 36.572188 82.58236-109.917201-21.989861 74.267945 47.767756-58.497845 37.63958 58.497845 37.639579-74.292022 47.783807 125.093416-25.031524-36.564163 82.590385 36.564163-7.327278-34.461483 77.815215z" fill="#FFD00B" p-id="11463"></path><path d="M510.052413 881.290619a12.038245 12.038245 0 0 1-11.163466-7.487788L437.662433 723.75012l-2.664465-3.322555-203.759334 141.417276a12.038245 12.038245 0 0 1-17.872781-14.766914l73.168453-165.244976-272.136565 54.444969a12.038245 12.038245 0 0 1-8.868174-21.925656l228.365507-146.914742L5.529567 420.530807a12.038245 12.038245 0 0 1 8.876199-21.933683l256.984428 51.443434-58.016315-131.05636a12.054296 12.054296 0 0 1 18.410489-14.373665l93.368628 72.694949L274.584342 17.987947a12.030219 12.030219 0 1 1 22.407186-7.59212l213.036808 377.374902L723.081195 10.395827a12.038245 12.038245 0 1 1 22.407187 7.59212l-50.560629 359.32556 93.376653-72.702974a12.038245 12.038245 0 0 1 18.402464 14.373665l-58.024341 131.048334 256.984428-51.435408a12.038245 12.038245 0 0 1 8.876199 21.933683L786.17765 567.437522l228.349455 146.914742a12.038245 12.038245 0 0 1-8.876199 21.925656L733.530392 681.832951l73.168452 165.244976a12.038245 12.038245 0 0 1-17.872781 14.766914L585.082781 720.419539l-2.664465 3.322556-61.226514 150.05271a12.038245 12.038245 0 0 1-11.139389 7.495814z m-72.702974-189.209108c3.539244 0 7.038361 1.556946 9.405882 4.518354l10.786267 13.466783c0.722295 0.898856 1.308156 1.902043 1.749558 2.97746l50.745216 124.371121 50.745215-124.371121c0.441402-1.075417 1.027264-2.078604 1.749558-2.97746l10.786268-13.466783a12.038245 12.038245 0 0 1 16.259656-2.367521l177.748699 123.367934-65.20716-147.259838a12.038245 12.038245 0 0 1 13.362452-16.676982l232.54679 46.53183-190.61357-122.629589a12.038245 12.038245 0 0 1 0-20.256353l190.597519-122.613538-217.386627 43.514243a12.054296 12.054296 0 0 1-13.362452-16.676982l48.032597-108.488663-79.043116 61.531482a12.04627 12.04627 0 0 1-19.31737-11.171491l45.841636-325.795036-192.258797 340.56195a12.062321 12.062321 0 0 1-20.978648 0L307.280215 77.609361l45.833611 325.795036a12.038245 12.038245 0 0 1-19.31737 11.171491l-79.035091-61.531482 48.032597 108.488663a12.054296 12.054296 0 0 1-13.370477 16.676982L72.052909 434.695808l190.605545 122.613538a12.038245 12.038245 0 0 1 0 20.256353L72.036858 700.195288l232.554815-46.53183a12.038245 12.038245 0 0 1 13.362452 16.676982l-65.20716 147.259838 177.7487-123.367934c2.086629-1.452615 4.486253-2.150833 6.853774-2.150833z" fill="#33363A" p-id="11464"></path><path d="M545.549184 658.494807l-35.520848 353.145928-35.504797-353.145928 35.504797-46.884951z" fill="#FFFCDC" p-id="11465"></path><path d="M479.651831 709.384481l30.376505 302.256254L540.420892 709.384481l-30.392556-40.143534z" fill="#F9F4B7" p-id="11466"></path><path d="M510.028336 1023.67898a12.038245 12.038245 0 0 1-11.974041-10.83442L462.549498 659.706657a12.022194 12.022194 0 0 1 2.375547-8.474924l35.504797-46.892977c4.558482-6.019122 14.646531-6.019122 19.196988 0l35.520848 46.892977c1.837839 2.4237 2.688541 5.449312 2.383573 8.474924l-35.520848 353.145928a12.038245 12.038245 0 0 1-11.982067 10.826395z m-23.049226-361.685056l23.049226 229.328566 23.065277-229.320541-23.065277-30.45676-23.049226 30.448735z" fill="#33363A" p-id="11467"></path><path d="M510.028336 631.777929a12.038245 12.038245 0 0 1-12.038245-12.038245v-71.884373a12.038245 12.038245 0 0 1 24.07649 0v71.884373a12.038245 12.038245 0 0 1-12.038245 12.038245zM510.028336 518.867217c-3.137969 0-6.259887-1.284079-8.515052-3.523193a12.054296 12.054296 0 0 1 0-17.014053c4.502304-4.494278 12.5278-4.494278 17.014053 0 2.247139 2.247139 3.531219 5.377083 3.531219 8.507026s-1.284079 6.259887-3.531219 8.507027a12.022194 12.022194 0 0 1-8.499001 3.523193zM510.028336 474.48622c-3.137969 0-6.259887-1.284079-8.515052-3.531218a12.198755 12.198755 0 0 1-3.523193-8.507026c0-3.210199 1.284079-6.340142 3.523193-8.507027 4.502304-4.494278 12.5278-4.494278 17.014053 0 2.247139 2.166884 3.531219 5.296828 3.531219 8.507027 0 3.129944-1.284079 6.259887-3.531219 8.507026a11.95799 11.95799 0 0 1-8.499001 3.531218z" fill="#33363A" p-id="11468"></path></svg>