<?xml version="1.0" standalone="no"?><!DOCTYPE svg PUBLIC "-//W3C//DTD SVG 1.1//EN" "http://www.w3.org/Graphics/SVG/1.1/DTD/svg11.dtd"><svg t="1678893686947" class="icon" viewBox="0 0 1024 1024" version="1.1" xmlns="http://www.w3.org/2000/svg" p-id="4708" xmlns:xlink="http://www.w3.org/1999/xlink" width="200" height="200"><path d="M918.926964 612.639222c0 170.986687-182.180774 309.618082-406.915013 309.618082-224.750173 0-406.92298-138.631395-406.92298-309.618082 0-171.002622 182.172807-375.914165 406.92298-375.914165 224.734238 0 406.915013 204.911543 406.915013 375.914165z" fill="#A2F255" p-id="4709"></path><path d="M918.926964 612.639222c0 170.986687-182.180774 309.618082-406.915013 309.618082-224.750173 0-406.92298-138.631395-406.92298-309.618082 0-171.002622 182.172807-288.815406 406.92298-288.815406 224.734238 0 406.915013 117.812784 406.915013 288.815406z" fill="#83D839" p-id="4710"></path><path d="M598.656573 652.643143c0 11.51278-38.792889 13.584283-86.644622 13.584284s-86.644622-2.071504-86.644622-13.584284c0-11.528714 38.792889-41.661124 86.644622-41.661124 47.843766 0.007967 86.644622 30.13241 86.644622 41.661124z" fill="#A2F255" p-id="4711"></path><path d="M918.926964 612.639222c0 170.986687-182.180774 309.618082-406.915013 309.618082-224.750173 0-406.92298-138.631395-406.92298-309.618082 0-171.018557 51.771655 151.657965 406.92298 151.657965 355.13539 0 406.915013-322.676522 406.915013-151.657965z" fill="#20B518" p-id="4712"></path><path d="M403.967104 604.050449c0 79.147372-64.128971 143.212605-143.22854 143.212605-79.083634 0-143.19667-64.065232-143.196669-143.212605 0-79.099568 64.113036-143.212605 143.196669-143.212604 79.099568 0 143.228539 64.113036 143.22854 143.212604z" fill="#FFF800" p-id="4713"></path><path d="M403.967104 604.050449c0 79.147372-64.128971 29.582665-143.22854 29.582665-79.083634 0-143.19667 49.564707-143.196669-29.582665 0-79.099568 64.113036-143.212605 143.196669-143.212604 79.099568 0 143.228539 64.113036 143.22854 143.212604z" fill="#FFB000" p-id="4714"></path><path d="M906.450138 604.050449c0 79.147372-64.128971 143.212605-143.228539 143.212605-79.083634 0-143.19667-64.065232-143.19667-143.212605 0-79.099568 64.113036-143.212605 143.19667-143.212604 79.107535 0 143.228539 64.113036 143.228539 143.212604z" fill="#FFF800" p-id="4715"></path><path d="M906.450138 604.050449c0 79.147372-64.128971 29.582665-143.228539 29.582665-79.083634 0-143.19667 49.564707-143.19667-29.582665 0-79.099568 64.113036-143.212605 143.19667-143.212604 79.107535 0 143.228539 64.113036 143.228539 143.212604z" fill="#FFB000" p-id="4716"></path><path d="M512.011951 224.774075c-232.032305 0-418.873962 212.185707-418.873962 387.865147 0 177.312741 187.901311 321.569064 418.873962 321.569064 230.964684 0 418.865995-144.256324 418.865995-321.569064 0-175.67944-186.841657-387.865147-418.865995-387.865147z m0 685.532247c-184.27618 0-339.455701-95.607858-382.853702-224.46335 27.423521 43.955713 76.079953 73.363097 131.588283 73.363097 85.561066 0 155.179521-69.602521 155.179521-155.163587S346.315565 448.878895 260.746532 448.878895c-49.971041 0-94.380891 23.854161-122.768458 60.663186 52.767571-134.647734 199.844326-260.874009 374.033877-260.874009 174.213453 0 321.298175 126.250177 374.049811 260.913846-28.395534-36.832927-72.829286-60.703023-122.824228-60.703023-85.545131 0-155.147652 69.602521-155.147653 155.163587S677.684435 759.206069 763.229566 759.206069c55.540198 0 104.220533-29.423318 131.644054-73.402933-43.382066 128.871426-198.569555 224.503186-382.861669 224.503186z m-382.511107-306.255873c0-72.375149 58.878506-131.261622 131.245688-131.261622 72.383116 0 131.277557 58.886473 131.277557 131.261622S333.129648 735.304104 260.746532 735.304104c-72.367181 0-131.245688-58.878506-131.245688-131.253655z m764.998312 0c0 72.375149-58.894441 131.261622-131.277557 131.261623-72.367181 0-131.245688-58.886473-131.245688-131.261623s58.878506-131.261622 131.245688-131.261622c72.391083 0 131.277557 58.886473 131.277557 131.261622z" fill="#33363A" p-id="4717"></path><path d="M344.3078 604.050449c0 46.170628-37.406575 83.545334-83.561268 83.545334-46.122824 0-83.529399-37.374705-83.529399-83.545334 0-46.154694 37.406575-83.529399 83.529399-83.529399 46.146726-0.007967 83.561268 37.374705 83.561268 83.529399z" fill="#6D5C4D" p-id="4718"></path><path d="M219.204917 576.897818m-34.044365 0a34.044365 34.044365 0 1 0 68.08873 0 34.044365 34.044365 0 1 0-68.08873 0Z" fill="#FFFFFF" p-id="4719"></path><path d="M260.746532 508.562101c-31.168162 0-58.814768 15.08214-76.247267 38.25111a45.86787 45.86787 0 0 0-6.517269 9.823708 94.763322 94.763322 0 0 0-12.715845 47.405563c0 52.656028 42.832321 95.496316 95.480381 95.496316 52.663995 0 95.512251-42.840288 95.51225-95.496316 0-52.648061-42.848255-95.480381-95.51225-95.480381z m0 167.0827c-30.299724 0-56.193519-18.954258-66.622743-45.604949 15.249453 1.258837 39.38247-8.732184 66.622743-8.732184 27.264174 0 51.405159 9.991021 66.654612 8.732184-10.437191 26.650691-36.346921 45.604948-66.654612 45.604949z" fill="#33363A" p-id="4720"></path><path d="M219.204917 576.897818m-22.077448 0a22.077448 22.077448 0 1 0 44.154896 0 22.077448 22.077448 0 1 0-44.154896 0Z" fill="#FFFFFF" p-id="4721"></path><path d="M846.790834 604.050449c0 46.170628-37.406575 83.545334-83.529398 83.545334-46.154694 0-83.553301-37.374705-83.553301-83.545334 0-46.154694 37.398607-83.529399 83.553301-83.529399 46.122824-0.007967 83.529399 37.374705 83.529398 83.529399z" fill="#6D5C4D" p-id="4722"></path><path d="M721.703886 576.897818m-34.036397 0a34.036398 34.036398 0 1 0 68.072795 0 34.036398 34.036398 0 1 0-68.072795 0Z" fill="#FFFFFF" p-id="4723"></path><path d="M763.261436 508.562101c-31.176129 0-58.830702 15.08214-76.27117 38.25111a46.090955 46.090955 0 0 0-6.501334 9.791839 94.77129 94.77129 0 0 0-12.739747 47.437432c0 52.656028 42.840288 95.496316 95.504283 95.496316 52.648061 0 95.480381-42.840288 95.480381-95.496316 0.007967-52.648061-42.824353-95.480381-95.472413-95.480381z m0 167.0827c-30.307691 0-56.209453-18.954258-66.646645-45.604949 15.249453 1.258837 39.38247-8.732184 66.646645-8.732184 27.24824 0 51.373289 9.991021 66.622742 8.732184-10.429224 26.650691-36.323019 45.604948-66.622742 45.604949z" fill="#33363A" p-id="4724"></path><path d="M721.695919 576.897818m-22.077448 0a22.077448 22.077448 0 1 0 44.154896 0 22.077448 22.077448 0 1 0-44.154896 0Z" fill="#FFFFFF" p-id="4725"></path><path d="M1012.049018 123.907784c0-138.057748-223.8658 100.077526-500.037067 100.077526C235.840685 223.98531 11.950982-14.149963 11.950982 123.907784c0 123.97949 180.523571 226.837611 417.288466 246.5647 7.298067 45.812099 41.565516 158.613437 82.772503 158.613437 41.191052 0 75.458502-112.801338 82.772503-158.613437 236.756927-19.711153 417.264563-122.569274 417.264564-246.5647z" fill="#EA81BD" p-id="4726"></path><path d="M512.019918 296.687119c-247.775732 0-453.428236-191.606116-493.113464-131.349263C53.914865 270.219677 219.443937 353.008115 429.239448 370.480451c7.298067 45.812099 41.565516 158.613437 82.772503 158.613437 41.191052 0 75.458502-112.801338 82.772503-158.613437 209.795511-17.472336 375.324583-100.260774 410.325027-205.142595-39.685229-60.256853-245.321797 131.349263-493.089563 131.349263z" fill="#CC549E" p-id="4727"></path><path d="M1004.225108 75.203548c-28.10871-17.886637-75.91264 4.469667-148.279821 38.290947-88.97108 41.589418-210.823295 98.539833-343.933336 98.539833-133.118008 0-254.970224-56.950414-343.949271-98.539833C95.687532 79.665248 47.867668 57.332846 19.774892 75.203548 6.469465 83.672811 0 99.599486 0 123.907784c0 127.509014 175.695374 235.123626 419.128917 257.679113 8.843727 43.899942 41.430072 159.457973 92.883034 159.457974 51.405159 0 84.023373-115.558032 92.883034-159.457974 243.425575-22.531585 419.112982-130.154165 419.112982-257.679113-0.007967-24.308298-6.477432-40.242941-19.782859-48.704236zM603.134207 357.676966a12.190002 12.190002 0 0 0-2.238817-0.223085c-36.338954 0-65.897716 29.574698-65.897716 65.913651a11.950982 11.950982 0 1 0 23.901964 0c0-15.249453 8.23821-28.491142 20.420245-35.852947-12.73178 57.109761-43.119144 129.628321-67.307932 129.628321-24.21269 0-54.592087-72.518561-67.307932-129.628321 12.182035 7.361805 20.428212 20.611461 20.428212 35.852947a11.950982 11.950982 0 1 0 23.901965 0c0-36.346921-29.56673-65.913651-65.913651-65.913651-0.764863 0-1.505824 0.087641-2.23085 0.223085C193.924606 336.459988 23.901965 236.828633 23.901965 123.907784c0-15.265388 2.931974-24.866011 8.708282-28.538945 2.828399-1.808582 6.644746-2.629216 11.297662-2.629216 23.312383 0 67.602723 20.707069 114.04424 42.402085 91.002747 42.53753 215.643525 100.786617 354.067769 100.786617s263.049088-58.257055 354.051835-100.786617c55.707512-26.029239 108.299802-50.624361 125.325967-39.772869 5.776308 3.672935 8.708282 13.273558 8.708283 28.538945-0.007967 112.928815-170.022642 212.576106-396.971796 233.769182z" fill="#33363A" p-id="4728"></path><path d="M646.237417 823.709504c0 65.97739-60.097506 119.462019-134.233433 119.462019-74.151862 0-134.249368-53.484629-134.249368-119.462019 0-65.97739 60.097506-145.013219 134.249368-145.013219 74.135927 0 134.233433 79.03583 134.233433 145.013219z" fill="#A2F255" p-id="4729"></path><path d="M646.237417 823.709504c0 65.97739-60.097506 119.462019-134.233433 119.462019-74.151862 0-134.249368-53.484629-134.249368-119.462019 0-65.97739 60.097506-111.430959 134.249368-111.430959 74.135927 0 134.233433 45.453569 134.233433 111.430959z" fill="#83D839" p-id="4730"></path><path d="M540.590733 792.445734c0 4.453733-12.795518 5.258432-28.578782 5.258433-15.791231 0-28.58675-0.812667-28.58675-5.258433 0-4.437798 12.795518-16.06212 28.58675-16.06212 15.775297 0.007967 28.578782 11.632289 28.578782 16.06212z" fill="#FFF800" p-id="4731"></path><path d="M646.237417 823.709504c0 65.97739-60.097506 119.462019-134.233433 119.462019-74.151862 0-134.249368-53.484629-134.249368-119.462019 0-65.97739 17.089905 58.527944 134.249368 58.527944 117.151496 0 134.233433-124.505334 134.233433-58.527944z" fill="#25931C" p-id="4732"></path><path d="M512.011951 955.122505c-80.613359 0-146.20035-58.950212-146.20035-131.413001 0-71.100377 65.212527-156.964202 146.20035-156.964202 80.979856 0 146.184415 85.863824 146.184415 156.964202-0.007967 72.462789-65.586991 131.413001-146.184415 131.413001z m0-264.475238c-67.746135 0-122.298386 72.797417-122.298386 133.062237 0 59.276872 54.862976 107.511037 122.298386 107.511037 67.427442 0 122.282451-48.234165 122.282451-107.511037-0.007967-60.26482-54.552251-133.062237-122.282451-133.062237z" fill="#33363A" p-id="4733"></path><path d="M598.576899 866.143458c0 42.529562-38.761019 77.028065-86.564948 77.028065-47.819864 0-86.572916-34.498502-86.572916-77.028065 0-42.577366 38.753052-93.552289 86.572916-93.552289 47.803929 0 86.564948 50.98289 86.564948 93.552289z" fill="#A2F255" p-id="4734"></path><path d="M598.576899 866.143458c0 42.529562-38.761019 77.028065-86.564948 77.028065-47.819864 0-86.572916-34.498502-86.572916-77.028065 0-42.577366 38.753052-71.873208 86.572916-71.873207 47.803929 0 86.564948 29.303809 86.564948 71.873207z" fill="#83D839" p-id="4735"></path><path d="M530.432398 845.962233c0 2.876203-8.246178 3.394079-18.420447 3.394079-10.182237 0-18.436382-0.509909-18.436382-3.394079 0-2.860268 8.246178-10.349551 18.436382-10.349551 10.17427 0 18.420447 7.489282 18.420447 10.349551z" fill="#A2F255" p-id="4736"></path><path d="M598.576899 866.143458c0 42.529562-38.761019 77.028065-86.564948 77.028065-47.819864 0-86.572916-34.498502-86.572916-77.028065 0-42.577366 11.018806 37.7173 86.572916 37.717301 75.546143 0.007967 86.564948-80.286699 86.564948-37.717301z" fill="#20B518" p-id="4737"></path><path d="M512.011951 955.122505c-54.329166 0-98.523898-39.916281-98.523898-88.979047 0-48.791877 43.039471-105.503272 98.523898-105.503271 55.484427 0 98.515931 56.711395 98.515931 105.503271 0 49.070733-44.194733 88.979047-98.515931 88.979047z m0-170.580354c-40.18717 0-74.621933 44.871955-74.621933 81.601307 0 35.884816 33.478685 65.077082 74.621933 65.077083s74.613966-29.192266 74.613966-65.077083c0-36.729352-34.426796-81.601307-74.613966-81.601307z" fill="#33363A" p-id="4738"></path></svg>