<?xml version="1.0" standalone="no"?><!DOCTYPE svg PUBLIC "-//W3C//DTD SVG 1.1//EN" "http://www.w3.org/Graphics/SVG/1.1/DTD/svg11.dtd"><svg t="1678893905840" class="icon" viewBox="0 0 1024 1024" version="1.1" xmlns="http://www.w3.org/2000/svg" p-id="8667" xmlns:xlink="http://www.w3.org/1999/xlink" width="200" height="200"><path d="M901.817417 676.408612c0 163.786767-174.528441 296.592201-389.813456 296.5922-215.292936 0-389.813456-132.813355-389.813456-296.5922 0-163.818453 174.52052-360.107498 389.813456-360.107499 215.277093 0 389.813456 196.289045 389.813456 360.107499z" fill="#F4D3A2" p-id="8668"></path><path d="M901.817417 676.408612c0 163.786767-174.528441 296.592201-389.813456 296.5922-215.292936 0-389.813456-132.813355-389.813456-296.5922 0-163.818453 174.52052-276.685248 389.813456-276.685249 215.277093 0 389.813456 112.866795 389.813456 276.685249z" fill="#7C34C1" p-id="8669"></path><path d="M901.817417 676.408612c0 163.786767-174.528441 296.592201-389.813456 296.5922-215.292936 0-389.813456-132.813355-389.813456-296.5922 0-163.834296 49.597067 145.281936 389.813456 145.281935 340.208468 0 389.813456-309.116232 389.813456-145.281935z" fill="#5F1DAA" p-id="8670"></path><path d="M512.003961 984.891117c-221.49554 0-401.695839-138.382232-401.695839-308.474584 0-168.492191 179.186335-371.989881 401.695839-371.989881s401.695839 203.497691 401.695839 371.989881c0 170.092351-180.200299 308.474584-401.695839 308.474584z m0-656.707621c-209.351745 0-377.931073 190.498364-377.931073 348.225116 0 156.990044 169.53784 284.709818 377.931073 284.709817s377.931073-127.719774 377.931073-284.709817c0-157.726752-168.579328-348.225115-377.931073-348.225116z" fill="#33363A" p-id="8671"></path><path d="M594.665738 773.693642c0 11.034773-37.160172 13.01517-83.010327 13.01517s-83.002406-1.980397-83.002406-13.01517c0-11.050616 37.160172-39.901042 83.002406-39.901042s83.010327 28.858347 83.010327 39.901042z" fill="#8844D8" p-id="8672"></path><path d="M744.391685 906.427781l178.013941-12.112109-11.011009-70.011 100.723-44.313367-55.839278-94.821416 49.8664-50.365461-137.384112-113.856994-116.08296 117.27912 6.812566 5.648093-71.619083 31.496237 39.68716 67.412719-8.840493 0.617884z" fill="#5F1DAA" p-id="8673"></path><path d="M744.375842 918.310164a11.882383 11.882383 0 0 1-0.792159-23.733079l165.070065-11.240735-8.998925-57.185948a11.882383 11.882383 0 0 1 6.955155-12.722071l88.484145-38.926687-49.050477-83.311348a11.874461 11.874461 0 0 1 1.798201-14.385605l40.732809-41.128888-127.387068-105.571012a11.882383 11.882383 0 1 1 15.161921-18.29887l137.384112 113.856994a11.874461 11.874461 0 0 1 0.863453 17.514632l-43.426149 43.853915 51.189306 86.947357a11.882383 11.882383 0 0 1-5.457974 16.90467l-92.349881 40.629828 9.593044 60.964547a11.882383 11.882383 0 0 1-10.931792 13.704348l-178.021862 12.112109a28.034502 28.034502 0 0 1-0.815924 0.015843z" fill="#33363A" p-id="8674"></path><path d="M279.600393 906.427781l-178.01394-12.112109 11.026851-70.011L11.882383 779.991305l55.839278-94.821416-49.8664-50.365461 137.384112-113.856994 116.08296 117.27912-6.812566 5.648093 71.627004 31.496237-39.687159 67.412719 8.82465 0.617884z" fill="#5F1DAA" p-id="8675"></path><path d="M279.608315 918.310164a9.664338 9.664338 0 0 1-0.823846-0.031686l-178.01394-12.112109a11.858618 11.858618 0 0 1-10.931792-13.704349l9.600965-60.964546L7.097743 790.867646a11.921991 11.921991 0 0 1-6.527389-7.224489 11.914069 11.914069 0 0 1 1.069415-9.680181L52.836996 687.02354l-43.426149-43.853914a11.882383 11.882383 0 0 1 0.863453-17.514633L147.658412 511.797999a11.882383 11.882383 0 1 1 15.161921 18.29887L35.433266 635.675803l40.732809 41.128888a11.882383 11.882383 0 0 1 1.7982 14.385605L28.905877 774.501644l88.492067 38.926687a11.882383 11.882383 0 0 1 6.955155 12.722071l-9.006847 57.185948 165.062143 11.240735a11.882383 11.882383 0 0 1-0.80008 23.733079z" fill="#33363A" p-id="8676"></path><path d="M410.369978 772.212305a101.633982 62.802355 0 1 0 203.267965 0 101.633982 62.802355 0 1 0-203.267965 0Z" fill="#CC4306" p-id="8677"></path><path d="M613.637943 772.212305c0 34.688637-45.509527 62.802355-101.633982 62.802355-56.132377 0-101.633982-28.113718-101.633983-62.802355s45.501605-8.309746 101.633983-8.309747c56.124456 0 101.633982-26.37889 101.633982 8.309747z" fill="#A83C11" p-id="8678"></path><path d="M740.708147 413.990144L665.967958 247.684312l-71.421043 32.106199L511.996039 197.247557l-82.542954 82.542954-71.428964-32.106199-74.732268 166.305832 166.282068 74.748111 3.715225-8.27806 58.706893 58.714815 58.706894-58.698972 3.715225 8.262217z" fill="#8844D8" p-id="8679"></path><path d="M594.546915 419.067883l-82.550876-82.542954-82.542954 82.542954-71.428964-32.106199-22.663666 50.420912 114.213466 51.355659 3.715225-8.27806 58.706893 58.714815 58.706894-58.698972 3.715225 8.262217 114.213465-51.355659-22.663665-50.420912z" fill="#7C34C1" p-id="8680"></path><path d="M740.716068 425.872527a11.882383 11.882383 0 0 1-10.844655-7.010606l-69.868411-155.469098-60.58431 27.234421a11.858618 11.858618 0 0 1-13.268661-2.439849l-74.14607-74.138148-74.138148 74.138148a11.914069 11.914069 0 0 1-13.268661 2.439849l-60.600154-27.234421-69.868411 155.469098a11.882383 11.882383 0 1 1-21.673467-9.743554l74.740189-166.305832a11.882383 11.882383 0 0 1 15.700589-5.964956l63.950985 28.747445 76.744351-76.744351a11.882383 11.882383 0 0 1 16.801689 0l76.752273 76.744351 63.950985-28.747445a11.850697 11.850697 0 0 1 15.700588 5.964956l74.740189 166.305832a11.882383 11.882383 0 0 1-10.82089 16.75416z" fill="#33363A" p-id="8681"></path><path d="M387.49243 312.435378l-171.573688-48.987104-13.387485 69.606999-109.777375 7.525509 20.366404 108.129685-63.990593 30.482274 90.622974 153.694663 148.973396-70.95367-4.491541-7.612647 78.059335-5.354994-14.464821-76.879017 8.515708 2.416084z" fill="#8844D8" p-id="8682"></path><path d="M312.340319 417.935096l-109.793219 7.517587 20.382248 108.15345-64.014358 30.458508 27.487913 46.602706 102.32316-48.733613-4.491541-7.612647 78.059335-5.354994-14.464821-76.879017 8.515708 2.416084 21.396211-111.306242-52.021073-14.868822z" fill="#7C34C1" p-id="8683"></path><path d="M139.760589 644.769787a11.86654 11.86654 0 0 1-10.242615-5.846133L38.895 485.22107a11.86654 11.86654 0 0 1 5.125268-16.762082l55.728376-26.545244-18.671184-99.146603a11.850697 11.850697 0 0 1 2.281417-9.458377c2.075456-2.69334 5.196562-4.356874 8.587002-4.5866l100.651706-6.899704 11.652657-60.615996a11.882383 11.882383 0 0 1 14.932194-9.181121l171.573689 48.987104a11.882383 11.882383 0 0 1-6.519468 22.845862L225.131549 278.443841l-10.931792 56.861163a11.874461 11.874461 0 0 1-10.860498 9.608887l-96.43742 6.606605 17.894869 94.995691a11.882383 11.882383 0 0 1-6.566997 12.928033l-52.274564 24.897553 84.024291 142.517302a11.882383 11.882383 0 0 1-10.218849 17.910712z" fill="#33363A" p-id="8684"></path><path d="M636.50757 312.435378l171.565767-48.987104 13.379563 69.606999 109.793218 7.525509-20.382247 108.129685 63.998515 30.482274-90.622975 153.694663-148.981317-70.95367 4.507384-7.612647-78.075178-5.354994 14.464821-76.879017-8.507786 2.416084z" fill="#8844D8" p-id="8685"></path><path d="M711.65176 417.935096l109.793218 7.517587-20.374326 108.15345 63.998515 30.458508-27.479991 46.602706-102.331082-48.733613 4.507384-7.612647-78.075178-5.354994 14.464821-76.879017-8.507786 2.416084-21.396211-111.306242 52.021072-14.868822z" fill="#7C34C1" p-id="8686"></path><path d="M884.23149 644.769787a11.882383 11.882383 0 0 1-10.218849-17.918634l84.032212-142.517301-52.282485-24.897553a11.882383 11.882383 0 0 1-6.566997-12.928033l17.90279-94.995691-96.445342-6.606605a11.882383 11.882383 0 0 1-10.860498-9.608887l-10.931792-56.861164-159.089265 45.414468a11.874461 11.874461 0 1 1-6.519467-22.845861l171.565767-48.987105a11.906148 11.906148 0 0 1 14.932194 9.181122l11.652657 60.615996 100.659627 6.899704a11.882383 11.882383 0 0 1 10.86842 14.044976l-18.679106 99.146604 55.736297 26.545243a11.86654 11.86654 0 0 1 5.125268 16.762082l-90.622974 153.694663c-2.233888 3.770676-6.194682 5.861976-10.258457 5.861976z" fill="#33363A" p-id="8687"></path><path d="M392.498874 674.673784c0 53.906411-43.663797 97.538521-97.538521 97.538521-53.858881 0-97.522678-43.63211-97.522677-97.538521 0-53.858881 43.663797-97.522678 97.522677-97.522678 53.874724 0.007922 97.538521 43.671718 97.538521 97.522678z" fill="#CC4306" p-id="8688"></path><path d="M246.464388 642.971586m-39.742611 0a39.74261 39.74261 0 1 0 79.485221 0 39.74261 39.74261 0 1 0-79.485221 0Z" fill="#FFFFFF" p-id="8689"></path><path d="M294.960353 565.276644c-35.758051 0-67.468171 17.324514-87.446417 43.941053a51.672523 51.672523 0 0 0-7.351234 11.090224 108.60498 108.60498 0 0 0-14.599488 54.373784c0 60.330819 49.074242 109.420904 109.405061 109.420904s109.420904-49.082163 109.420904-109.420904c-0.007922-60.330819-49.090085-109.405061-109.428826-109.405061z m0 195.053278c-36.589818 0-67.808799-23.115196-80.047653-55.474886 17.617613 2.74087 46.887883-10.028731 80.047653-10.028731 33.15977 0 62.437962 12.769601 80.055575 10.028731-12.238854 32.35969-43.457835 55.474885-80.055575 55.474886z" fill="#33363A" p-id="8690"></path><path d="M246.456466 615.143045a27.883992 27.883992 0 0 0-27.852306 27.836463 27.891914 27.891914 0 0 0 27.852306 27.868148 27.899835 27.899835 0 0 0 27.868149-27.868148 27.883992 27.883992 0 0 0-27.868149-27.836463z" fill="#FFFFFF" p-id="8691"></path><path d="M826.546481 674.673784c0 53.906411-43.663797 97.538521-97.514756 97.538521-53.874724 0-97.538521-43.63211-97.538521-97.538521 0-53.858881 43.663797-97.522678 97.538521-97.522678 53.85096 0.007922 97.514756 43.671718 97.514756 97.522678z" fill="#CC4306" p-id="8692"></path><path d="M680.519916 642.971586m-39.734689 0a39.734689 39.734689 0 1 0 79.469378 0 39.734689 39.734689 0 1 0-79.469378 0Z" fill="#FFFFFF" p-id="8693"></path><path d="M729.023803 565.276644c-35.797659 0-67.539465 17.356201-87.517711 44.012347-2.851772 3.303302-5.2837 6.963076-7.23241 10.908028a108.581216 108.581216 0 0 0-14.670783 54.476765c0 60.330819 49.082163 109.420904 109.420904 109.420904 60.322898 0 109.405061-49.082163 109.405061-109.420904 0-60.322898-49.082163-109.397139-109.405061-109.39714z m0 195.053278c-36.59774 0-67.81672-23.115196-80.063496-55.474886 17.617613 2.74087 46.895805-10.028731 80.063496-10.028731 33.151848 0 62.422119 12.769601 80.047654 10.028731-12.238854 32.35969-43.457835 55.474885-80.047654 55.474886z" fill="#33363A" p-id="8694"></path><path d="M680.519916 615.143045a27.883992 27.883992 0 0 0-27.852306 27.836463c0 15.35996 12.492345 27.868149 27.852306 27.868148s27.852306-12.500267 27.852306-27.868148a27.87607 27.87607 0 0 0-27.852306-27.836463z" fill="#FFFFFF" p-id="8695"></path><path d="M643.446881 462.462345l9.284102-367.252771L515.695421 415.907169" fill="#9A5AE5" p-id="8696"></path><path d="M643.446881 564.516172L652.730983 197.247557 515.695421 517.945152" fill="#7C34C1" p-id="8697"></path><path d="M643.454803 474.344728h-0.308942a11.882383 11.882383 0 0 1-11.573441-12.183403l7.715627-305.250497-112.668755 263.670078a11.874461 11.874461 0 0 1-15.597608 6.250134 11.882383 11.882383 0 0 1-6.258055-15.597608l137.043483-320.697595a11.882383 11.882383 0 0 1 22.806254 4.974757l-9.284102 367.252772a11.882383 11.882383 0 0 1-11.874461 11.581362z" fill="#33363A" p-id="8698"></path><path d="M380.553119 462.462345l-9.299945-367.252771 137.051405 320.697595" fill="#9A5AE5" p-id="8699"></path><path d="M380.553119 564.516172L371.253174 197.247557l137.051405 320.697595" fill="#7C34C1" p-id="8700"></path><path d="M380.553119 474.344728a11.882383 11.882383 0 0 1-11.874462-11.581362l-9.299945-367.252772a11.882383 11.882383 0 0 1 22.806254-4.974757l137.051405 320.697595a11.882383 11.882383 0 1 1-21.855663 9.347474L384.704031 156.91875l7.731471 305.242575a11.882383 11.882383 0 0 1-11.573441 12.183403h-0.308942z" fill="#33363A" p-id="8701"></path><path d="M91.803291 39.108883c-2.122986 0-4.08754 0.602041-5.814446 1.576396-12.983484 2.408163-22.901313 14.25886-22.901313 28.549406 0 16.009531 12.436894 29.040544 27.72556 29.040544s27.72556-13.031013 27.725561-29.040544a30.498116 30.498116 0 0 0-0.459453-4.768797C229.583482 77.520667 316.404094 172.532201 316.404094 287.490295a11.882383 11.882383 0 1 0 23.764766 0c0-136.956346-111.417144-248.381412-248.365569-248.381412z m-0.990199 35.40158c-2.146751 0-3.960794-2.416085-3.960794-5.275778 0-2.867615 1.814044-5.291621 3.960794-5.291621s3.960794 2.424006 3.960795 5.291621c0 2.859694-1.814044 5.275778-3.960795 5.275778zM938.019077 40.685279a11.779402 11.779402 0 0 0-5.814446-1.576396c-136.956346 0-248.373491 111.425066-248.373491 248.381412a11.882383 11.882383 0 1 0 23.764766 0c0-114.966016 86.820612-209.969629 198.324894-223.032328a30.498116 30.498116 0 0 0-0.459453 4.768796c0 16.009531 12.436894 29.040544 27.725561 29.040544s27.72556-13.031013 27.72556-29.040544c0-14.282624-9.917829-26.125399-22.893391-28.541484z m-4.832169 33.825184c-2.146751 0-3.960794-2.416085-3.960795-5.275778 0-2.867615 1.814044-5.291621 3.960795-5.291621s3.960794 2.424006 3.960794 5.291621c0 2.859694-1.814044 5.275778-3.960794 5.275778z" fill="#33363A" p-id="8702"></path><path d="M491.518733 820.066622l-26.569009 58.049401-26.545243-58.049401" fill="#FFFFFF" p-id="8703"></path><path d="M585.603441 820.066622l-26.569008 58.049401-26.545244-58.049401" fill="#FFFFFF" p-id="8704"></path><path d="M625.520326 772.212305c0-41.889361-49.858479-74.700581-113.516365-74.700581s-113.516365 32.81122-113.516366 74.700581c0 19.257382 10.638694 36.55021 28.224621 49.660439 0.166353 1.061493 0.419844 2.115064 0.887218 3.136949l26.553165 58.049402a11.882383 11.882383 0 0 0 21.610094 0l17.05518-37.271075c6.242212 0.673335 12.619091 1.101101 19.194009 1.101101 6.566997 0 12.943876-0.427766 19.186088-1.101101l17.047259 37.271075a11.882383 11.882383 0 0 0 21.610094 0l26.569008-58.049402c0.467374-1.021885 0.720865-2.075456 0.887218-3.136949 17.570084-13.110229 28.208777-30.403057 28.208777-49.660439z m-160.56268 77.346391l-4.911385-10.741674c2.820086 0.934747 5.679779 1.821965 8.642453 2.598281l-3.731068 8.143393z m94.084708 0l-3.723146-8.143393c2.954753-0.784237 5.822368-1.663534 8.642453-2.598281l-4.919307 10.741674z m-13.823172-30.22086l-1.924946-4.214286a11.86654 11.86654 0 0 0-22.33888 7.739393 151.627128 151.627128 0 0 1-17.90279 0 11.882383 11.882383 0 0 0-22.33888-7.739393l-1.932868 4.214286c-32.763691-7.668098-56.536378-26.141243-56.536378-47.125531 0-27.606736 41.097202-50.935815 89.751599-50.935815s89.751599 23.321157 89.7516 50.935815c0.007922 20.984288-23.764766 39.457433-56.528457 47.125531z" fill="#33363A" p-id="8705"></path></svg>