<?xml version="1.0" standalone="no"?><!DOCTYPE svg PUBLIC "-//W3C//DTD SVG 1.1//EN" "http://www.w3.org/Graphics/SVG/1.1/DTD/svg11.dtd"><svg t="1678893729665" class="icon" viewBox="0 0 1024 1024" version="1.1" xmlns="http://www.w3.org/2000/svg" p-id="5951" xmlns:xlink="http://www.w3.org/1999/xlink" width="200" height="200"><path d="M972.091425 541.7103c0 183.964184-218.283039 333.151071-460.091425 333.151071S51.908575 725.674484 51.908575 541.7103c0-183.996356 218.283039-404.467051 460.091425-404.467051s460.091425 220.470695 460.091425 404.467051z" fill="#FFDDD2" p-id="5952"></path><path d="M972.091425 541.7103c0 183.964184-218.283039 333.151071-460.091425 333.151071S51.908575 725.674484 51.908575 541.7103c0-183.996356 218.283039-310.783895 460.091425-310.783895s460.091425 126.78754 460.091425 310.783895z" fill="#F4C4B3" p-id="5953"></path><path d="M605.240799 646.48455c0 12.410123-41.750452 14.637993-93.232756 14.637994-51.490347 0-93.232756-2.22787-93.232756-14.637994 0-12.394037 41.734366-44.798693 93.232756-44.798693 51.490347 0 93.232756 32.404656 93.232756 44.798693z" fill="#FFDDD2" p-id="5954"></path><path d="M972.091425 541.7103c0 183.964184-218.283039 333.151071-460.091425 333.151071S51.908575 725.674484 51.908575 541.7103c0-184.012441 77.951334 163.181451 460.091425 163.181451s460.091425-347.193892 460.091425-163.181451z" fill="#E8B5A6" p-id="5955"></path><path d="M512 886.917608c-255.931636 0-472.155705-158.090325-472.155705-345.215351 0-187.50304 217.872854-416.531331 472.155705-416.531331s472.155705 229.036334 472.155705 416.531331c0 187.125026-216.216026 345.215351-472.155705 345.215351z m0-737.610079c-237.08723 0-448.027145 219.433167-448.027145 392.402771 0 83.983474 47.69412 164.154636 134.291522 225.722679 85.230117 60.6029 199.583405 95.356069 313.735623 95.356069s228.505506-34.753169 313.735623-95.356069c86.605445-61.568042 134.291522-141.739204 134.291522-225.722679 0-172.969604-210.939914-392.402771-448.027145-392.402771z" fill="#33363A" p-id="5956"></path><path d="M310.156553 774.132676c0-51.208847 102.650937-92.742142 201.843447-92.742142 99.200553 0 201.859533 41.533295 201.859533 92.742142 0 51.241019-102.65898 112.632118-201.859533 112.632118s-201.843447-61.391099-201.843447-112.632118z" fill="#FFDDD2" p-id="5957"></path><path d="M310.156553 774.132676c0-51.208847 102.650937-92.742142 201.843447-92.742142 99.200553 0 201.859533 41.533295 201.859533 92.742142 0 51.241019-102.65898 86.541102-201.859533 86.541101s-201.843447-35.300083-201.843447-86.541101z" fill="#F4C4B3" p-id="5958"></path><path d="M473.740147 744.961247c0-3.458427 17.123235-4.053598 38.25181-4.053598 21.11249 0 38.243768 0.595171 38.243768 4.053598s-17.131278 12.474466-38.243768 12.474465c-21.128576 0-38.25181-9.016039-38.25181-12.474465z" fill="#FFDDD2" p-id="5959"></path><path d="M310.156553 774.132676c0-51.208847 102.650937-92.742142 201.843447-92.742142 99.200553 0 201.859533 41.533295 201.859533 92.742142 0 51.241019-45.096279-45.426036-201.859533-45.426036-156.755211 0-201.843447 96.667054-201.843447 45.426036z" fill="#E8B5A6" p-id="5960"></path><path d="M511.991957 898.829074c-103.953879 0-213.907727-64.101541-213.907727-124.696398a12.06428 12.06428 0 1 1 24.12856 0c0 42.05608 95.629526 100.567838 189.779167 100.567838 94.157684 0 189.795253-58.503715 189.795253-100.567838a12.06428 12.06428 0 1 1 24.12856 0c0 60.594857-109.961891 124.696398-213.923813 124.696398z" fill="#33363A" p-id="5961"></path><path d="M368.193782 601.685857a71.621609 71.621609 0 0 1-71.645737 71.629652 71.613566 71.613566 0 0 1-71.629652-71.629652 71.637695 71.637695 0 0 1 71.629652-71.645737 71.637695 71.637695 0 0 1 71.645737 71.645737z" fill="#2C9DCE" p-id="5962"></path><path d="M260.918205 578.401797m-29.187515 0a29.187515 29.187515 0 1 0 58.37503 0 29.187515 29.187515 0 1 0-58.37503 0Z" fill="#FFFFFF" p-id="5963"></path><path d="M799.08965 601.685857a71.613566 71.613566 0 0 1-71.629652 71.629652 71.621609 71.621609 0 0 1-71.645738-71.629652 71.645737 71.645737 0 1 1 143.27539 0z" fill="#2C9DCE" p-id="5964"></path><path d="M691.822115 578.401797m-29.187515 0a29.187515 29.187515 0 1 0 58.375029 0 29.187515 29.187515 0 1 0-58.375029 0Z" fill="#FFFFFF" p-id="5965"></path><path d="M296.548045 517.967797c-4.608555 0-9.10451 0.474528-13.511994 1.190342a11.887337 11.887337 0 0 0-5.147426-1.190342 36.353697 36.353697 0 0 1-36.321525-36.30544 12.06428 12.06428 0 1 0-24.12856 0c0 22.294789 12.168837 41.758494 30.192871 52.23029a84.232803 84.232803 0 0 0-19.729119 20.034747c-0.965142 1.302942-1.809642 2.670227-2.62197 4.08577a83.098761 83.098761 0 0 0-12.426209 43.664651c0 46.149892 37.544039 83.693932 83.693932 83.693931 46.157935 0 83.710017-37.544039 83.710017-83.693931 0-46.157935-37.552082-83.710017-83.710017-83.710018z m0 143.283432c-24.900674 0-46.246407-15.369893-55.13376-37.109725 13.142022 0.136729 32.959613-7.640711 55.13376-7.640711 22.190232 0 42.007823 7.777439 55.149845 7.640711-8.887353 21.739833-30.241129 37.109725-55.149845 37.109725zM776.376632 533.90069c18.015991-10.471795 30.192871-29.943543 30.192871-52.23029a12.06428 12.06428 0 1 0-24.12856 0 36.353697 36.353697 0 0 1-36.321525 36.30544c-1.849856 0-3.57907 0.4504-5.147427 1.190342a83.163103 83.163103 0 0 0-13.511993-1.190342c-28.447572 0-53.589532 14.29215-68.718139 36.040026a40.487724 40.487724 0 0 0-2.50937 3.916869 83.082675 83.082675 0 0 0-12.482509 43.761165c0 46.149892 37.552082 83.693932 83.710018 83.693932 46.149892 0 83.693932-37.544039 83.693932-83.693932 0-27.892615-13.761322-52.568089-34.777298-67.79321z m-48.924677 127.350539c-24.908717 0-46.262492-15.369893-55.149845-37.109725 13.142022 0.136729 32.967656-7.640711 55.149845-7.640711s41.99978 7.777439 55.141802 7.640711c-8.887353 21.739833-30.241129 37.109725-55.141802 37.109725z" fill="#33363A" p-id="5966"></path><path d="M42.257151 166.173393C-2.243956 277.719725 2.026799 405.689565 58.833472 515.611241a475.75086 475.75086 0 0 1 131.203066-167.420035 476.265603 476.265603 0 0 1 190.840824-94.028998c-95.935154-78.168491-220.269624-108.626777-338.620211-87.988815z" fill="#FFDDD2" p-id="5967"></path><path d="M214.374213 394.59847c24.07226-19.560219 25.182174-82.600104 51.538604-96.715311-61.511742-63.136399-141.514004-105.152264-227.717307-120.674972C-1.777471 286.116464 3.868612 409.276677 58.825429 515.619284c29.613786-63.039884 97.841311-74.179236 155.548784-121.020814z" fill="#F4C4B3" p-id="5968"></path><path d="M58.841515 527.675521a12.06428 12.06428 0 0 1-10.729166-6.530797C-9.434267 409.783377-15.651393 278.765296 31.053457 161.709609a12.072323 12.072323 0 0 1 9.128638-7.415511c124.173613-21.683533 251.138095 11.33238 348.311849 90.514272a12.06428 12.06428 0 1 1-15.233164 18.707676c-90.015614-73.342779-207.103473-104.701865-322.244961-86.56523C9.595124 285.899307 16.246564 406.928164 69.546553 510.077758a12.06428 12.06428 0 0 1-10.705038 17.597763z" fill="#33363A" p-id="5969"></path><path d="M981.750891 166.173393c44.501107 111.546333 40.230352 239.508129-16.57632 349.437848a475.75086 475.75086 0 0 0-131.203067-167.420035 476.297774 476.297774 0 0 0-190.848866-94.028998c95.935154-78.168491 220.269624-108.626777 338.628253-87.988815z" fill="#FFDDD2" p-id="5970"></path><path d="M809.625787 394.59847c-24.07226-19.560219-25.182174-82.600104-51.538604-96.715311 61.511742-63.136399 141.505961-105.152264 227.717307-120.674972 39.972981 108.908277 34.326898 232.06849-20.629919 338.411097-29.613786-63.039884-97.841311-74.179236-155.548784-121.020814z" fill="#F4C4B3" p-id="5971"></path><path d="M965.158485 527.675521a12.06428 12.06428 0 0 1-10.705038-17.597763c53.299989-103.149594 59.951429-224.178451 18.538777-333.126942-115.149531-18.136634-232.23739 13.214408-322.244961 86.56523a12.06428 12.06428 0 0 1-15.241207-18.707676c97.181797-79.181891 224.138237-112.173675 348.311849-90.514272 4.125984 0.715814 7.576368 3.52277 9.128638 7.415511 46.704849 117.06373 40.487724 248.081811-17.058892 359.443158-2.139399 4.150112-6.353854 6.522754-10.729166 6.522754z" fill="#33363A" p-id="5972"></path><path d="M691.822115 578.401797m-17.123235 0a17.123235 17.123235 0 1 0 34.246469 0 17.123235 17.123235 0 1 0-34.246469 0Z" fill="#FFFFFF" p-id="5973"></path><path d="M260.918205 578.401797m-17.123235 0a17.123235 17.123235 0 1 0 34.24647 0 17.123235 17.123235 0 1 0-34.24647 0Z" fill="#FFFFFF" p-id="5974"></path></svg>