<?xml version="1.0" standalone="no"?><!DOCTYPE svg PUBLIC "-//W3C//DTD SVG 1.1//EN" "http://www.w3.org/Graphics/SVG/1.1/DTD/svg11.dtd"><svg t="1678893826688" class="icon" viewBox="0 0 1024 1024" version="1.1" xmlns="http://www.w3.org/2000/svg" p-id="6938" xmlns:xlink="http://www.w3.org/1999/xlink" width="200" height="200"><path d="M512 343.470695c-36.182862 0-67.714438-19.473277-84.933753-48.480097-0.015929-0.031858-0.047787-0.047787-0.063716-0.063716L332.288335 200.188792c-38.596115-38.580186-38.596115-101.10175 0-139.681936 29.835131-29.859025 73.918807-36.334188 110.260959-19.998935a98.417703 98.417703 0 0 1 69.450706-28.560807c27.079404 0 51.586264 10.911407 69.426812 28.576736 36.350117-16.351181 80.457687-9.876018 110.292818 19.959113 38.580186 38.604079 38.580186 101.125643 0 139.721758L596.98154 294.926882l-0.095574 0.079645c-17.219315 28.990891-48.750891 48.464168-84.885966 48.464168z" fill="#E8E8ED" p-id="6939"></path><path d="M427.002531 294.926882l15.52287 6.714099-110.237066-101.452189c-38.596115-38.580186-38.596115-101.10175 0-139.681936 15.76977-15.809593 35.609416-24.873229 56.141975-27.63692 20.53256 2.763692 40.332382 11.819363 56.141975 27.613027 38.556292 38.596115 20.994502 195.863733-17.569754 234.443919z" fill="#FFFFFF" p-id="6940"></path><path d="M512 355.41749c-38.317356 0-74.348892-20.26973-94.411544-53.00395L323.837968 208.631194c-20.922822-20.906892-32.447497-48.719033-32.447497-78.291334s11.524676-57.376477 32.447497-78.291335c30.289109-30.305038 76.085159-40.077517 116.178606-25.454639A110.006095 110.006095 0 0 1 512 0.000319c26.649319 0 51.904845 9.398146 71.951568 26.609496 40.11734-14.630842 85.921355-4.874293 116.210464 25.422781 43.159791 43.183684 43.159791 113.438807 0 156.614527l-93.822169 93.822169c-20.070617 32.702362-56.070294 52.948199-94.339863 52.948198z m-74.659509-66.527723c15.849416 26.697106 43.75713 42.634132 74.659509 42.634132 30.87052 0 58.762306-15.929061 74.619686-42.618202 0.59734-0.995566 1.330077-1.911487 2.190246-2.692012l94.459331-94.451367c33.849254-33.857219 33.849254-88.963805 0-122.828988-25.605965-25.605965-63.660492-32.479355-96.9363-17.506038a11.930867 11.930867 0 0 1-13.300766-2.405288A86.239936 86.239936 0 0 0 512 23.89391a86.33551 86.33551 0 0 0-61.056091 25.1042 11.938831 11.938831 0 0 1-13.292801 2.405288c-33.283773-14.957388-71.314406-8.068069-96.912407 17.545861-16.414897 16.406933-25.446675 38.213817-25.446674 61.398565s9.039742 44.991633 25.446674 61.390601l94.594729 94.618622c0.772559 0.748666 1.457509 1.608835 2.007061 2.53272z" fill="#33363A" p-id="6941"></path><path d="M903.878792 779.465021c0 200.562806-175.450642 232.588183-391.878792 232.588183-216.428151 0-391.878792-32.025377-391.878792-232.588183s175.450642-438.487225 391.878792-438.487224c216.428151 0 391.878792 237.932383 391.878792 438.487224z" fill="#FFFFFF" p-id="6942"></path><path d="M560.360629 345.119353c-193.585877 31.842193-343.510199 248.979187-343.510199 434.345668s149.924321 226.742218 343.518163 231.943056c193.593842-5.200838 343.518163-46.576574 343.518164-231.943056S753.954471 376.961545 560.360629 345.119353z" fill="#E8E8ED" p-id="6943"></path><path d="M512 1024c-209.737945 0-403.825588-29.628053-403.825588-244.534979 0-204.019412 180.133785-450.43402 403.825588-450.43402s403.825588 246.414608 403.825588 450.43402c0 214.91489-194.087643 244.534979-403.825588 244.534979z m0-671.067443c-210.454753 0-379.931997 233.336849-379.931997 426.540429 0 183.120484 151.883596 220.641387 379.931997 220.641387s379.931997-37.520903 379.931997-220.641387c0-193.20358-169.477244-426.540429-379.931997-426.540429z" fill="#33363A" p-id="6944"></path><path d="M676.348086 346.94323a45.28632 45.28632 0 0 1-45.278356 45.294285h-238.13946a45.28632 45.28632 0 0 1-45.286321-45.294285 45.294285 45.294285 0 0 1 45.286321-45.302249h238.13946a45.294285 45.294285 0 0 1 45.278356 45.302249z" fill="#FFBE08" p-id="6945"></path><path d="M676.348086 346.94323a45.28632 45.28632 0 0 1-45.278356 45.294285h-238.13946a45.28632 45.28632 0 0 1-45.286321-45.294285" fill="#FF900B" p-id="6946"></path><path d="M631.061766 289.694185h-101.388473l32.383781-32.383781a11.946796 11.946796 0 1 0-16.892769-16.892769l-33.180234 33.180234-33.164305-33.180234a11.95476 11.95476 0 0 0-16.900734 16.900734l32.375817 32.383781H392.922305c-31.55547 0-57.233116 25.677646-57.233116 57.249045 0 31.563434 25.677646 57.24108 57.233116 57.24108h238.139461c31.55547 0 57.233116-25.677646 57.233116-57.24108 0-31.579363-25.677646-57.257009-57.233116-57.25701z m0 90.58857h-238.139461a33.379347 33.379347 0 0 1-33.339524-33.34749 33.379347 33.379347 0 0 1 33.339524-33.355453h238.139461a33.379347 33.379347 0 0 1 33.339524 33.355453 33.379347 33.379347 0 0 1-33.339524 33.34749z" fill="#33363A" p-id="6947"></path><path d="M308.737218 754.46436a51.657945 51.657945 0 0 1 51.657945-51.665909 51.450867 51.450867 0 0 1 38.404966 17.21135 51.64998 51.64998 0 0 0-102.336252 9.915841c0 13.252979 5.041548 25.311278 13.237049 34.446594a52.111923 52.111923 0 0 1-0.963708-9.907876z" fill="#FFF1D9" p-id="6948"></path><path d="M265.896009 849.313953a51.681838 51.681838 0 0 1 67.746296-27.382055 51.458831 51.458831 0 0 1 28.640451 30.854591 51.64998 51.64998 0 0 0-98.075228-30.854591 51.323434 51.323434 0 0 0-1.274325 36.88374 51.928739 51.928739 0 0 1 2.962806-9.501685z" fill="#FFFFFF" p-id="6949"></path><path d="M330.671535 597.714436a31.029811 31.029811 0 0 1 31.021846-31.029811 30.902378 30.902378 0 0 1 23.06528 10.337961 31.021846 31.021846 0 0 0-61.462281 5.965433c0 7.956566 3.018557 15.196324 7.948601 20.683886a31.220959 31.220959 0 0 1-0.573446-5.957469z" fill="#FFF1D9" p-id="6950"></path><path d="M375.440161 479.767705a30.997953 30.997953 0 0 1 55.958791 14.877742 31.021846 31.021846 0 0 0-53.322532-31.133349 30.806804 30.806804 0 0 0-5.646852 21.416622 30.02628 30.02628 0 0 1 3.010593-5.161015zM252.937718 619.44964a31.013882 31.013882 0 0 1 43.303152-7.008787 31.053704 31.053704 0 0 1 12.663603 21.88653 31.029811 31.029811 0 0 0-53.330496-31.13335 30.814768 30.814768 0 0 0-5.662781 21.416622c0.84424-1.77609 1.823877-3.504393 3.026522-5.161015z" fill="#FFFFFF" p-id="6951"></path><path d="M477.242789 160.828082a11.946796 11.946796 0 0 1-10.84769-16.924627c1.640693-3.560145 40.842112-87.506296 110.722902-114.514019a11.938831 11.938831 0 0 1 15.451189 6.833567 11.946796 11.946796 0 0 1-6.833567 15.451189C524.990149 75.145663 488.464812 153.094523 488.106409 153.875047a11.970689 11.970689 0 0 1-10.86362 6.953035zM400.408964 117.52493a11.946796 11.946796 0 0 1-11.540605-15.060927c0.589375-2.190246 14.92553-53.927836 52.613688-76.308166a11.95476 11.95476 0 0 1 12.201661 20.548488c-29.444869 17.482144-41.622636 61.541927-41.742104 61.987941a11.962725 11.962725 0 0 1-11.53264 8.832664z" fill="#33363A" p-id="6952"></path><path d="M511.992035 700.759531m-219.900686 0a219.900686 219.900686 0 1 0 439.801373 0 219.900686 219.900686 0 1 0-439.801373 0Z" fill="#FFD00B" p-id="6953"></path><path d="M512 480.858845v439.817301c121.44316 0 219.892722-98.457526 219.892722-219.90865 0.007965-121.44316-98.449561-219.908651-219.892722-219.908651z" fill="#FFBE08" p-id="6954"></path><path d="M511.992035 700.767496m-170.233874 0a170.233874 170.233874 0 1 0 340.467749 0 170.233874 170.233874 0 1 0-340.467749 0Z" fill="#FFD00B" p-id="6955"></path><path d="M391.616122 580.399547L632.367949 821.143409c66.4879-66.479936 66.4879-174.271891 0-240.743862-66.479936-66.479936-174.263926-66.4879-240.751827 0z" fill="#FFBE08" p-id="6956"></path><path d="M583.242725 739.11671c-2.580508 0-4.969867-0.820347-6.921177-2.206175a11.946796 11.946796 0 0 1-18.867973-9.740621 18.883902 18.883902 0 0 1 18.852044-18.867972 18.891866 18.891866 0 0 1 18.883902 18.867972 11.946796 11.946796 0 0 1-11.946796 11.946796z" fill="#33363A" p-id="6957"></path><path d="M586.914374 765.39966a18.589214 18.589214 0 1 1-37.186393 0.007965 18.589214 18.589214 0 0 1 37.186393-0.007965z" fill="#E04038" p-id="6958"></path><path d="M568.325159 746.826375a18.589214 18.589214 0 0 1 0 37.170464" fill="#FF6155" p-id="6959"></path><path d="M512 468.912049c-127.846643 0-231.855446 104.008803-231.855446 231.847482 0 127.846643 104.008803 231.855446 231.855446 231.855446 127.838678 0 231.839517-104.008803 231.839517-231.855446 0.007965-127.838678-104.000839-231.847482-231.839517-231.847482zM715.20703 744.843207a11.914938 11.914938 0 0 0-5.710568-3.512358l-12.074228-3.249528a11.922902 11.922902 0 0 0-7.191971 0.326546c1.911487-9.15921 2.994663-18.533462 3.488464-28.027183 1.975204 1.449545 4.396421 2.333607 7.040645 2.333607h12.488384c2.381395 0 4.58757-0.716808 6.451269-1.911487a208.256543 208.256543 0 0 1-4.491995 34.040403z m-22.953777 46.218171l-10.807867-6.252157a11.875115 11.875115 0 0 0-7.072503-1.52919 180.595728 180.595728 0 0 0 10.783974-26.028085c1.521225 1.831842 3.584039 3.233599 6.053043 3.90262l12.074228 3.249528c1.043353 0.278759 2.086707 0.414156 3.114132 0.414156 1.250431 0 2.46104-0.230971 3.623861-0.59734-3.528287 10.983088-7.96453 21.552019-13.181298 31.651044a11.86715 11.86715 0 0 0-4.58757-4.810576zM353.696993 700.767496c0-19.369738 3.615897-38.150101 10.234421-55.759678 0.254865 0.876098 0.573446 1.728303 0.852205 2.588472 0.254865 0.788489 0.501765 1.584942 0.780524 2.37343 0.637162 1.823877 1.338041 3.615897 2.070778 5.399952 0.151326 0.358404 0.26283 0.732737 0.414155 1.091141 0.047787 0.103539 0.119468 0.183184 0.167256 0.286723a102.535365 102.535365 0 0 0 21.583877 31.993519 102.798195 102.798195 0 0 0 43.33501 25.749327c-5.00969 7.359226-10.027344 15.172431-15.315792 23.415719-10.170705 15.865345-21.512197 33.514744-35.959855 52.876518a157.140186 157.140186 0 0 1-28.162579-90.015123z m-26.54578 95.104458a206.607885 206.607885 0 0 1-13.181298-31.651044 11.787505 11.787505 0 0 0 6.737992 0.183184l12.074229-3.249528c2.469004-0.661056 4.531818-2.070778 6.053043-3.90262a179.082467 179.082467 0 0 0 10.783974 26.020121 11.899009 11.899009 0 0 0-7.072503 1.537154l-10.807868 6.252157c-2.03892 1.170786-3.56811 2.867231-4.587569 4.810576z m-22.858203-85.06915c1.8637 1.202644 4.069875 1.911487 6.45127 1.911487h12.488384c2.644224 0 5.065441-0.884063 7.040644-2.333607 0.493801 9.49372 1.569013 18.867973 3.488465 28.027183a11.922902 11.922902 0 0 0-7.191971-0.326546l-12.074228 3.249528a11.755647 11.755647 0 0 0-5.710569 3.512358 207.396373 207.396373 0 0 1-4.491995-34.040403z m4.484031-54.103055c1.489367 1.640693 3.424748 2.899089 5.726497 3.512358l12.074228 3.241564a11.946796 11.946796 0 0 0 3.106167 0.414155c1.417686 0 2.787586-0.294688 4.085804-0.772559a183.407207 183.407207 0 0 0-3.496429 28.067005 11.851221 11.851221 0 0 0-7.040644-2.333607h-12.488384c-2.381395 0-4.58757 0.716808-6.45127 1.911487 0.549553-11.628214 2.094672-22.985635 4.484031-34.040403z m22.953777-46.218171l10.823796 6.260121c1.879629 1.091141 3.942443 1.608835 5.973398 1.608836 0.374333 0 0.740701-0.111503 1.115035-0.143362a179.480694 179.480694 0 0 0-10.807868 26.075873 11.843257 11.843257 0 0 0-6.061008-3.90262l-12.074228-3.241564a11.835292 11.835292 0 0 0-6.730028 0.167255 207.28487 207.28487 0 0 1 13.173333-31.643079 11.946796 11.946796 0 0 0 4.58757 4.81854z m305.288417-51.626086c-1.903523 1.903523-2.827408 4.316776-3.177848 6.793744a182.013415 182.013415 0 0 0-22.531657-17.569754c2.174317-0.995566 4.101733-2.572543 5.391987-4.794647l6.252157-10.807868c1.178751-2.030955 1.656622-4.268988 1.569012-6.45127a208.368046 208.368046 0 0 1 27.334269 20.978574c-2.182281 0.461943-4.300846 1.322112-5.997292 3.026521l-8.840628 8.8247z m-34.741282-38.34125l-6.252157 10.807868a11.86715 11.86715 0 0 0-1.529189 7.12029 180.978026 180.978026 0 0 0-26.179412-10.728222c1.903523-1.537154 3.39289-3.623861 4.069875-6.172511l3.233599-12.090157a11.883079 11.883079 0 0 0-0.183184-6.722064c10.983088 3.528287 21.559984 7.96453 31.666973 13.189262-1.943345 1.01946-3.647755 2.54865-4.826505 4.595534z m-49.738493-17.235244l-3.233599 12.090158c-0.676985 2.532721-0.461943 5.073406 0.414155 7.343297a183.439066 183.439066 0 0 0-28.154615-3.584039c1.481403-1.991133 2.389359-4.428279 2.389359-7.096397v-12.520241c0-2.381395-0.716808-4.58757-1.911487-6.45127 11.62025 0.557517 22.985635 2.094672 34.032439 4.491995a11.787505 11.787505 0 0 0-3.536252 5.726497z m-50.096897 15.849416a182.658542 182.658542 0 0 0-28.170544 3.584039 11.86715 11.86715 0 0 0 0.414156-7.343297l-3.2336-12.090158a11.835292 11.835292 0 0 0-3.512358-5.734461 207.189295 207.189295 0 0 1 34.032439-4.491996c-1.202644 1.8637-1.911487 4.069875-1.911487 6.45127v12.520242c-0.007965 2.676082 0.899992 5.121193 2.381394 7.104361z m-54.079161-9.66894l3.233599 12.090157c0.68495 2.540685 2.166352 4.635357 4.069875 6.164547a180.978026 180.978026 0 0 0-26.179412 10.728222 11.86715 11.86715 0 0 0-1.529189-7.12029l-6.252157-10.807868a11.86715 11.86715 0 0 0-4.826505-4.587569 205.572496 205.572496 0 0 1 31.659008-13.181298 11.922902 11.922902 0 0 0-0.175219 6.714099z m-47.333205 23.009529l6.252156 10.807867c1.290254 2.230069 3.21767 3.799081 5.391988 4.794648a182.013415 182.013415 0 0 0-22.531657 17.569754c-0.350439-2.476969-1.274325-4.890222-3.177848-6.793745l-8.832664-8.832664c-1.696445-1.696445-3.81501-2.556614-5.997291-3.026521a209.459187 209.459187 0 0 1 27.326304-20.970609c-0.08761 2.190246 0.390262 4.420314 1.569012 6.45127z m63.110939 108.174252a99.118582 99.118582 0 0 1 21.846708 32.989085c1.242467 3.050415 3.695542 5.455703 6.76985 6.634454 3.074309 1.19468 6.507021 1.051318 9.469827-0.374333 7.797275-3.751294 16.048529-4.515889 26.020121-4.515888 23.686514 0 65.763128 18.995405 83.157663 54.652608 15.491012 31.754583 7.040645 69.848932-24.443144 110.165385l-0.055752 0.08761a157.41098 157.41098 0 0 1-74.914374 18.788327 157.275583 157.275583 0 0 1-111.933511-46.369496c-0.923886-0.923886-1.712374-1.935381-2.612366-2.875196 1.26636-1.664587 2.484934-3.297316 3.703507-4.930044 1.967239 0.493801 4.069875 0.541588 6.156582-0.055752 13.260943-3.743329 20.620169 9.461862 21.456445 11.062733a11.930867 11.930867 0 0 0 15.984813 5.280484 11.946796 11.946796 0 0 0 5.352164-16.024635c-4.268988-8.545941-15.34765-21.71131-31.762547-24.43518 2.381395-3.504393 4.667215-6.929142 6.881354-10.298138 0.42212-0.071681 0.852205-0.103539 1.274325-0.223007 13.245014-3.807046 20.612205 9.437969 21.456445 11.046804a11.930867 11.930867 0 0 0 15.984813 5.280484 11.946796 11.946796 0 0 0 5.352164-16.024636c-3.998194-8.004353-14.001645-20.02283-28.74399-23.750229 12.775107-19.887433 23.367932-35.959855 36.063394-48.400452a11.970689 11.970689 0 0 0-3.225635-19.329915 100.114148 100.114148 0 0 1-22.73077-14.92553l-0.08761-0.111504a109.615833 109.615833 0 0 1-4.643321-4.229166c-0.151326-0.151326-0.318581-0.278759-0.469908-0.430084-0.230971-0.230971-0.406191-0.493801-0.637162-0.724773a100.369013 100.369013 0 0 1-15.076856-19.648496c-0.039823-0.063716-0.103539-0.103539-0.143362-0.159291a98.210625 98.210625 0 0 1-4.730931-9.477791l9.199033-9.191068a99.699992 99.699992 0 0 1 30.082031 20.51663z m-63.310052 6.236228c3.289351 1.823877 6.475163 3.846868 9.501685 6.148617 0.477872 0.780524 1.067247 1.473438 1.561048 2.245998 1.744232 2.731834 3.592003 5.391987 5.551277 7.988424 0.796453 1.059283 1.584942 2.110601 2.421218 3.145989 2.723869 3.368996 5.559242 6.650383 8.641515 9.732657l0.047787 0.055751 0.007965 0.007965 0.007964 0.007964 0.039823 0.031858c1.473438 1.481403 3.010593 2.88316 4.555711 4.25306 1.70441 3.400855 3.153954 6.889319 4.348634 10.433535a77.813463 77.813463 0 0 1-30.806804-19.075051 78.275405 78.275405 0 0 1-13.141475-17.705151l7.263652-7.271616z m-7.454801-50.662379c-0.501765 1.561048-0.716808 3.21767-0.549552 4.890222 0.326546 3.14599 0.820347 6.284015 1.385828 9.406111 0.159291 0.860169 0.33451 1.712374 0.50973 2.564578 0.382297 1.871665 0.804418 3.735365 1.274325 5.583136a104.510569 104.510569 0 0 0-7.160113-2.166352l-0.342475-0.103539a103.116776 103.116776 0 0 0-6.403482-1.417686c-0.390262-0.071681-0.772559-0.17522-1.154857-0.246901-0.533624-0.095574-1.083176-0.151326-1.624764-0.2469a159.489722 159.489722 0 0 1 14.06536-18.262669z m-6.395518 246.47036c1.895558-1.895558 2.819444-4.300846 3.169883-6.761886a183.78154 183.78154 0 0 0 22.452012 17.506038 11.86715 11.86715 0 0 0-5.320307 4.83447l-6.252156 10.807867a11.843257 11.843257 0 0 0-1.569012 6.427377 209.32379 209.32379 0 0 1-27.31834-20.962645c2.182281-0.461943 4.300846-1.322112 5.997292-3.026521l8.840628-8.8247z m34.733318 38.349214l6.252156-10.807868c1.290254-2.230069 1.752197-4.691108 1.537154-7.072503a179.201935 179.201935 0 0 0 26.020121 10.77601 11.851221 11.851221 0 0 0-3.918548 6.076937l-3.2336 12.066263c-0.621233 2.301749-0.501765 4.611463 0.17522 6.722064a207.157437 207.157437 0 0 1-31.659009-13.181298 11.946796 11.946796 0 0 0 4.826506-4.579605z m49.730528 17.219315l3.233599-12.066264a11.86715 11.86715 0 0 0-0.33451-7.191971c9.167175 1.919452 18.541427 2.994663 28.043112 3.488465a11.851221 11.851221 0 0 0-2.333608 7.03268v12.496348c0 2.381395 0.716808 4.58757 1.911488 6.45127a207.667167 207.667167 0 0 1-34.151907-4.515889c1.664587-1.489367 3.010593-3.376961 3.631826-5.694639z m50.168577-15.76977a182.881548 182.881548 0 0 0 28.027183-3.488465 11.86715 11.86715 0 0 0-0.33451 7.191971l3.233599 12.066264c0.621233 2.317678 1.967239 4.205272 3.631826 5.702604a207.691061 207.691061 0 0 1-34.143942 4.515889c1.202644-1.8637 1.911487-4.069875 1.911487-6.45127v-12.496348a11.811399 11.811399 0 0 0-2.325643-7.040645z m54.007481 9.58133l-3.233599-12.066264a11.851221 11.851221 0 0 0-3.910584-6.076936 178.349731 178.349731 0 0 0 26.020121-10.783975 11.86715 11.86715 0 0 0 1.529189 7.04861l6.236228 10.823797c1.178751 2.046884 2.891125 3.56811 4.842434 4.587569a206.400807 206.400807 0 0 1-31.659008 13.189263c0.676985-2.102636 0.788489-4.420314 0.175219-6.722064z m47.349134-22.97767l-6.236227-10.823797a11.883079 11.883079 0 0 0-5.328271-4.850399 182.324031 182.324031 0 0 0 22.444047-17.506038c0.350439 2.469004 1.274325 4.874293 3.177847 6.777815l8.832664 8.832664c1.696445 1.696445 3.807046 2.556614 5.989327 3.018557a209.459187 209.459187 0 0 1-27.326304 20.970609 11.851221 11.851221 0 0 0-1.553083-6.419411z m14.551197-72.126788c7.478694-24.212173 6.299944-44.816413 1.505296-61.350778a20.349375 20.349375 0 0 0 1.138928-22.866167 20.277695 20.277695 0 0 0-12.615816-9.238856 20.373269 20.373269 0 0 0-4.882257-0.525659c-23.92545-32.184668-64.871101-51.498654-94.435438-51.498654-7.96453 0-16.351181 0.398227-24.952874 2.676082a122.398904 122.398904 0 0 0-22.252898-30.408577 124.461718 124.461718 0 0 0-45.302249-28.823636c-0.119468-0.047787-0.223007-0.135397-0.35044-0.175219a125.361709 125.361709 0 0 0-8.028246-2.572544c-0.68495-0.199113-1.377864-0.358404-2.070778-0.541588a130.379364 130.379364 0 0 0-19.345845-3.63979 11.668037 11.668037 0 0 0-6.01322 0.995566l0.127432-0.143361a157.825136 157.825136 0 0 1 111.925547-46.289851c40.53946 0 81.070956 15.43526 111.933511 46.289851a157.219831 157.219831 0 0 1 46.361532 111.917582 156.789747 156.789747 0 0 1-32.742185 96.195599z m59.319823-191.300057a205.660106 205.660106 0 0 1 13.181298 31.666973 11.930867 11.930867 0 0 0-6.737993-0.191149l-12.074228 3.241564c-2.476969 0.661056-4.539782 2.070778-6.061008 3.90262a179.480694 179.480694 0 0 0-10.807868-26.075873c0.382297 0.039823 0.748666 0.143362 1.130964 0.143362 2.030955 0 4.093769-0.517694 5.973398-1.6168l10.807867-6.260121a11.86715 11.86715 0 0 0 4.58757-4.810576z m16.406933 83.157662h-12.488384a11.86715 11.86715 0 0 0-7.040645 2.333607 183.53464 183.53464 0 0 0-3.496429-28.067005c1.298218 0.477872 2.668118 0.772559 4.085804 0.77256a11.946796 11.946796 0 0 0 3.106167-0.414156l12.074228-3.241564c2.293785-0.613269 4.23713-1.879629 5.726498-3.512358 2.397324 11.054768 3.934478 22.420153 4.48403 34.040403a11.914938 11.914938 0 0 0-6.451269-1.911487z m-26.513922-100.59202a11.843257 11.843257 0 0 0-6.45127 1.576977l-10.807868 6.260121c-2.206175 1.274325-3.830939 3.153954-4.826505 5.304378a183.02491 183.02491 0 0 0-17.498074-22.444047c2.469004-0.350439 4.874293-1.274325 6.769851-3.177848l8.832665-8.832664c1.696445-1.696445 2.564579-3.81501 3.026521-5.997292a209.889271 209.889271 0 0 1 20.95468 27.310375z m-328.520953-27.310375c0.461943 2.182281 1.322112 4.300846 3.026522 5.997292l8.832664 8.832664c1.903523 1.895558 4.308811 2.819444 6.769851 3.177848a183.415172 183.415172 0 0 0-17.490109 22.428118 11.86715 11.86715 0 0 0-4.826505-5.288449l-10.823797-6.260121a11.946796 11.946796 0 0 0-6.443305-1.569012 208.0415 208.0415 0 0 1 20.954679-27.31834z m-20.962644 252.372077c0.159291 0.007965 0.318581 0.063716 0.477872 0.063716 2.030955 0 4.085804-0.517694 5.973398-1.608835l10.807868-6.252156c2.206175-1.274325 3.838904-3.161919 4.83447-5.312342a179.759453 179.759453 0 0 0 12.926433 17.394535c0.446014 0.605304 0.955744 1.154857 1.521225 1.680515 0.987602 1.146892 2.03892 2.245998 3.05838 3.368997-2.46104 0.358404-4.866328 1.274325-6.761887 3.169883l-8.832664 8.832664c-1.696445 1.696445-2.564579 3.81501-3.026522 5.997292a208.901669 208.901669 0 0 1-20.978573-27.334269z m328.520953 27.326304c-0.461943-2.182281-1.330077-4.292882-3.018557-5.989327l-8.832665-8.832664c-1.903523-1.895558-4.308811-2.819444-6.777815-3.177848a183.02491 183.02491 0 0 0 17.498073-22.444047c0.995566 2.150423 2.628295 4.038017 4.83447 5.312342l10.807868 6.252157c1.879629 1.091141 3.942443 1.608835 5.973398 1.608835 0.167255 0 0.318581-0.055752 0.477872-0.063716a208.256543 208.256543 0 0 1-20.962644 27.334268z" fill="#33363A" p-id="6960"></path></svg>