<?xml version="1.0" standalone="no"?><!DOCTYPE svg PUBLIC "-//W3C//DTD SVG 1.1//EN" "http://www.w3.org/Graphics/SVG/1.1/DTD/svg11.dtd"><svg t="1678893978872" class="icon" viewBox="0 0 1024 1024" version="1.1" xmlns="http://www.w3.org/2000/svg" p-id="9989" xmlns:xlink="http://www.w3.org/1999/xlink" width="200" height="200"><path d="M512.000122 511.991935m-499.833608 0a499.833608 499.833608 0 1 0 999.667215 0 499.833608 499.833608 0 1 0-999.667215 0Z" fill="#D988FF" p-id="9990"></path><path d="M12.166514 511.991935a499.833608 382.838857 0 1 0 999.667215 0 499.833608 382.838857 0 1 0-999.667215 0Z" fill="#BF44F2" p-id="9991"></path><path d="M975.172564 324.033554c-47.717064-117.424342-138.725589-212.566671-253.280585-265.65768a190.349503 190.349503 0 0 0-25.726849 95.750242c0 105.614632 85.626475 191.249213 191.257318 191.249213a190.584562 190.584562 0 0 0 87.750116-21.341775zM48.84389 324.033554A190.195498 190.195498 0 0 0 136.577795 345.375329c105.622738 0 191.257319-85.634581 191.257318-191.249213 0-34.902272-9.402377-67.591744-25.726849-95.750242-114.54689 53.091009-205.563522 148.225232-253.264374 265.65768z" fill="#D988FF" p-id="9992"></path><path d="M12.166514 511.991935c0 276.08135 223.78468 499.849819 499.833608 499.849819 276.048928 0 499.833608-223.768469 499.833607-499.849819H12.166514z" fill="#FFFFFF" p-id="9993"></path><path d="M512.000122 894.830792c276.048928 0 499.833608-171.415061 499.833607-382.838857H12.166514c0 211.423796 223.78468 382.838857 499.833608 382.838857z" fill="#D8E5EA" p-id="9994"></path><path d="M986.585105 320.207759c-0.081055-0.25127-0.048633-0.510646-0.154005-0.753811-0.518752-1.264458-1.102348-2.488388-1.629205-3.752846-1.199614-2.885557-2.480282-5.738692-3.728529-8.599932a505.231869 505.231869 0 0 0-6.759985-14.922221c-0.859183-1.807526-1.758893-3.590735-2.642392-5.390156a508.701022 508.701022 0 0 0-9.240267-18.010415l-0.883499-1.596783A509.933058 509.933058 0 0 0 777.900966 74.627396l-1.037503-0.640334a507.631096 507.631096 0 0 0-18.042838-10.383142c-1.588678-0.875394-3.16925-1.775104-4.774138-2.634287a515.217842 515.217842 0 0 0-15.051908-7.716433c-2.650498-1.313091-5.284784-2.642392-7.959599-3.914956-1.361724-0.64844-2.674814-1.353618-4.044643-1.993952-0.259376-0.121582-0.534963-0.097266-0.794339-0.202638A508.660495 508.660495 0 0 0 512.000122 0.000081a508.790182 508.790182 0 0 0-214.212088 47.141573c-0.259376 0.097266-0.534963 0.081055-0.794339 0.202638-1.369829 0.632229-2.68292 1.345513-4.044643 1.993952-2.674814 1.272563-5.317206 2.601865-7.967704 3.923061-5.05783 2.504599-10.083239 5.049725-15.035698 7.708328-1.604889 0.867288-3.193566 1.758893-4.790349 2.642392a519.562389 519.562389 0 0 0-18.026626 10.375037l-1.053715 0.64844A509.89253 509.89253 0 0 0 62.679974 266.77632l-1.248246 2.277644a518.678889 518.678889 0 0 0-8.810676 17.17555c-1.029398 2.091218-2.083113 4.174331-3.088195 6.289866a545.443242 545.443242 0 0 0-6.265549 13.827978c-1.426568 3.234093-2.861241 6.460081-4.222965 9.734703-0.470119 1.13477-0.996976 2.229012-1.458989 3.371887-0.08916 0.218848-0.056738 0.453908-0.137794 0.672756A509.025242 509.025242 0 0 0 0.008268 511.991935c0 282.322583 229.677377 512.008065 511.991854 512.008065s511.991854-229.685482 511.991854-512.008065a509.08198 509.08198 0 0 0-37.406871-191.784176zM727.047075 74.432864c103.393726 51.024107 186.175172 137.59082 232.327875 243.683677a176.789006 176.789006 0 0 1-71.960607 15.092436c-98.757381 0-179.099072-80.341691-179.099072-179.090967a179.204444 179.204444 0 0 1 18.731804-79.685146z m-22.063164-10.221032a203.415565 203.415565 0 0 0-20.977027 89.914284c0 112.155769 91.251691 203.407459 203.415564 203.407459 28.271975 0 55.490236-5.698165 81.095503-16.899962a484.814121 484.814121 0 0 1 30.857629 159.208181H24.632769a484.854648 484.854648 0 0 1 30.857629-159.208181 200.797489 200.797489 0 0 0 81.095502 16.899962c112.163874 0 203.415565-91.243585 203.415565-203.407459 0-31.214271-7.221998-62.031372-20.977027-89.914284C378.243202 38.590355 443.476246 24.316574 512.000122 24.316574s133.756919 14.273781 192.983789 39.895258zM71.895925 302.05955c0.235059-0.48633 0.445802-0.988871 0.680862-1.483306a490.885139 490.885139 0 0 1 224.376381-226.14338 179.107178 179.107178 0 0 1 18.731805 79.693252c0 98.749276-80.341691 179.090967-179.099073 179.090967-25.110831 0-49.265214-5.074041-71.952501-15.100542 2.342489-5.398261 4.725505-10.764101 7.262526-16.056991z m440.104197 697.623958c-264.830919 0-480.874849-212.234346-487.367353-475.533327h974.734705c-6.492503 263.29898-222.536433 475.533326-487.367352 475.533327z" fill="#33363A" p-id="9995"></path><path d="M512.000122 558.209482m-135.88056 0a135.88056 135.88056 0 1 0 271.761119 0 135.88056 135.88056 0 1 0-271.761119 0Z" fill="#A7BBC1" p-id="9996"></path><path d="M512.000122 512.000041m-135.88056 0a135.88056 135.88056 0 1 0 271.761119 0 135.88056 135.88056 0 1 0-271.761119 0Z" fill="#FFFFFF" p-id="9997"></path><path d="M415.917554 608.082608c-53.066692-53.066692-53.066692-139.090337 0-192.17324 53.066692-53.058587 139.106548-53.058587 192.157029 0" fill="#D8E5EA" p-id="9998"></path><path d="M512.000122 660.046952c-39.538617 0-76.718534-15.400445-104.6825-43.364411-57.719248-57.711142-57.719248-151.637647 0-209.365a147.106674 147.106674 0 0 1 104.6825-43.356306 147.033724 147.033724 0 0 1 104.674394 43.356306c57.711142 57.735459 57.711142 151.653858 0 209.365a147.017513 147.017513 0 0 1-104.674394 43.364411z m0-271.769225c-33.046113 0-64.114485 12.863425-87.482635 36.231574-48.235816 48.252027-48.235816 126.745664 0 174.981479a122.911764 122.911764 0 0 0 87.482635 36.23968c33.054219 0 64.114485-12.87153 87.474528-36.23968 48.235816-48.235816 48.235816-126.729453 0-174.981479a122.879342 122.879342 0 0 0-87.474528-36.231574z" fill="#33363A" p-id="9999"></path><path d="M558.225774 558.225693a65.411365 65.411365 0 0 1-92.435094 0A65.370837 65.370837 0 0 1 558.225774 465.798705a65.354626 65.354626 0 0 1 0 92.426988z" fill="#FFFFFF" p-id="10000"></path><path d="M465.79068 465.798705A65.362732 65.362732 0 0 1 558.225774 558.225693" fill="#D8E5EA" p-id="10001"></path><path d="M512.008227 589.472385a77.285918 77.285918 0 0 1-54.809374-22.64676c-30.2254-30.233506-30.217295-79.409559 0-109.626853a76.961699 76.961699 0 0 1 54.809374-22.711604h0.008106c20.709546 0 40.178951 8.073075 54.817479 22.711604 30.217295 30.217295 30.217295 79.385242 0 109.618748h-0.008105a77.294024 77.294024 0 0 1-54.81748 22.654865z m-0.008105-130.668724a52.815422 52.815422 0 0 0-37.609509 15.586871 53.253118 53.253118 0 0 0 0 75.235228 53.293646 53.293646 0 0 0 75.243333 0c20.733863-20.758179 20.733863-54.501365 0-75.235228a52.94511 52.94511 0 0 0-37.633824-15.586871zM570.764978 189.70925h-117.529713a12.158246 12.158246 0 0 0-12.158246 12.158246v98.676326a12.158246 12.158246 0 1 0 24.316492 0V214.025742h34.448364v86.51808a12.158246 12.158246 0 1 0 24.316493 0V214.025742h34.448364v86.51808a12.158246 12.158246 0 1 0 24.316493 0V201.867496a12.158246 12.158246 0 0 0-12.158247-12.158246z" fill="#33363A" p-id="10002"></path></svg>