<?xml version="1.0" standalone="no"?><!DOCTYPE svg PUBLIC "-//W3C//DTD SVG 1.1//EN" "http://www.w3.org/Graphics/SVG/1.1/DTD/svg11.dtd"><svg t="1678893859345" class="icon" viewBox="0 0 1024 1024" version="1.1" xmlns="http://www.w3.org/2000/svg" p-id="7715" xmlns:xlink="http://www.w3.org/1999/xlink" width="200" height="200"><path d="M1008.671478 394.06538a67.360158 67.360158 0 0 0-54.615909-46.033869l-263.523374-38.38571-117.870214-238.864097a67.658034 67.658034 0 0 0-121.315911 0l-117.862164 238.872148L69.936381 348.031511a67.400412 67.400412 0 0 0-54.623961 46.033869 67.641933 67.641933 0 0 0 17.131878 69.308427l190.737047 185.818073-45.075837 262.557291a67.649983 67.649983 0 0 0 26.929572 66.184757 67.73049 67.73049 0 0 0 71.280847 5.063886l235.692124-123.843829 235.692124 123.843829a67.046181 67.046181 0 0 0 31.470163 7.817224 67.593629 67.593629 0 0 0 39.794582-12.88111 67.682186 67.682186 0 0 0 26.91347-66.184757L800.802554 649.19188l190.728996-185.818073a67.561426 67.561426 0 0 0 17.139928-69.308427z" fill="#FFAA00" p-id="7716"></path><path d="M512 33.112505a67.706338 67.706338 0 0 0-60.65393 37.669199l-117.862164 238.872148L69.936381 348.031511a67.400412 67.400412 0 0 0-54.623961 46.033869 67.641933 67.641933 0 0 0 17.131878 69.308427l190.737047 185.818073-45.075837 262.557291a67.649983 67.649983 0 0 0 26.929572 66.184757 67.73049 67.73049 0 0 0 71.280847 5.063886l235.684073-123.843829V33.112505z" fill="#FFD00B" p-id="7717"></path><path d="M512 553.614038m-176.559775 0a176.559775 176.559775 0 1 0 353.11955 0 176.559775 176.559775 0 1 0-353.11955 0Z" fill="#FF8F8F" p-id="7718"></path><path d="M688.559775 553.614038c0 74.68629-79.049766 135.251663-176.559775 135.251663s-176.559775-60.557322-176.559775-135.251663c0-74.670189 79.041716-135.227511 176.559775-135.22751 97.501958 0 176.559775 60.557322 176.559775 135.22751z" fill="#FF1A1A" p-id="7719"></path><path d="M335.440225 553.614038c0 97.518059 79.041716 176.567826 176.559775 176.567826 97.501958 0 176.559775-79.041716 176.559775-176.567826H335.440225z" fill="#FFFFFF" p-id="7720"></path><path d="M512 688.865701c97.501958 0 176.559775-60.557322 176.559775-135.251663H335.440225c0 74.694341 79.049766 135.251663 176.559775 135.251663z" fill="#D8E5EA" p-id="7721"></path><path d="M1020.159819 390.34596c-9.459566-29.191817-34.142994-49.98676-64.3653-54.261679l-257.251883-37.467931L583.490165 65.444093c-13.299747-26.977876-41.356416-44.407629-71.482114-44.407629-30.117647 0-58.182367 17.429753-71.490165 44.399579L325.465415 298.61635l-257.21968 37.45988c-30.246458 4.282969-54.929887 25.069862-64.421655 54.27778-9.266349 28.692674-1.336415 60.758589 20.191141 81.674293l186.188405 181.382141-43.997044 256.29385c-5.176596 30.109596 6.979952 59.993773 31.77609 78.035379a80.0239 80.0239 0 0 0 46.798686 15.223863 79.299338 79.299338 0 0 0 37.153953-9.2744l230.08079-120.889224 230.032486 120.873123a79.460352 79.460352 0 0 0 37.129802 9.226095 79.275186 79.275186 0 0 0 46.903344-15.19166 79.307389 79.307389 0 0 0 31.703634-77.995125l-43.997044-256.29385 186.172304-181.37409c21.56781-20.964008 29.497744-53.029923 20.199192-81.698445z m-344.287938 175.34412c-6.223187 85.063635-77.246411 152.415743-163.871881 152.415743s-157.648694-67.352108-163.871881-152.415743h327.743762z m-327.743762-24.152083c6.223187-85.055584 77.246411-152.399641 163.871881-152.399641s157.640643 67.344057 163.871881 152.399641h-327.743762z m634.990456-86.810636L792.381527 640.545435a12.076041 12.076041 0 0 0-3.477899 10.691321l45.075836 262.557291a55.276066 55.276066 0 0 1-22.107206 54.366338c-16.737393 12.156548-40.132711 13.91965-58.552699 4.146107l-229.243518-120.454486V742.958316c0-0.386433-0.080507-0.748715-0.112709-1.119047 98.45999-6.199035 176.672485-88.227558 176.672484-188.225231 0-104.006919-84.620847-188.627765-188.635816-188.627765s-188.635816 84.620847-188.635816 188.627765c0 99.997673 78.212494 182.026196 176.672484 188.225231-0.032203 0.370332-0.11271 0.732613-0.112709 1.119047v108.909791L270.66434 972.330645c-18.742016 9.918455-41.187352 8.308316-58.528547-4.154159a55.268016 55.268016 0 0 1-22.131359-54.374388L235.080271 651.244807a12.076041 12.076041 0 0 0-3.4779-10.691322L40.857273 454.719311c-15.006494-14.579807-20.52122-36.920484-14.064563-56.918408 6.617671-20.344104 23.797852-34.835354 44.882621-37.814111l263.547525-38.38571a12.076041 12.076041 0 0 0 9.089234-6.60962l117.862164-238.864098a55.936223 55.936223 0 0 1 49.833797-30.938817 55.904021 55.904021 0 0 1 49.825746 30.930767l117.870214 238.872148a12.076041 12.076041 0 0 0 9.089234 6.60962l263.579729 38.393761c21.052565 2.978757 38.232747 17.461956 44.818214 37.798009a55.879869 55.879869 0 0 1-14.072613 56.934509z" fill="#33363A" p-id="7722"></path><path d="M512 573.845433m-58.383634 0a58.383634 58.383634 0 1 0 116.767268 0 58.383634 58.383634 0 1 0-116.767268 0Z" fill="#A7BBC1" p-id="7723"></path><path d="M512 554.000472m-58.383634 0a58.383634 58.383634 0 1 0 116.767268 0 58.383634 58.383634 0 1 0-116.767268 0Z" fill="#FFFFFF" p-id="7724"></path><path d="M470.71604 595.284432a58.375584 58.375584 0 1 1 82.559869-82.56792" fill="#D8E5EA" p-id="7725"></path><path d="M512 624.419894a70.258408 70.258408 0 0 1-49.817696-20.593676c-27.468969-27.477019-27.468969-72.174474-0.00805-99.643442a70.000786 70.000786 0 0 1 49.825746-20.633929c18.822523 0 36.509898 7.334182 49.817696 20.633929 27.468969 27.468969 27.468969 72.174474 0 99.643442a70.258408 70.258408 0 0 1-49.817696 20.593676z m0-116.727015a45.969464 45.969464 0 0 0-32.742173 13.565419 46.371999 46.371999 0 0 0 0 65.492398 46.355897 46.355897 0 0 0 65.476296 0 46.347847 46.347847 0 0 0 0-65.484347 45.937261 45.937261 0 0 0-32.734123-13.57347z" fill="#33363A" p-id="7726"></path></svg>