<?xml version="1.0" standalone="no"?><!DOCTYPE svg PUBLIC "-//W3C//DTD SVG 1.1//EN" "http://www.w3.org/Graphics/SVG/1.1/DTD/svg11.dtd"><svg t="1678894013793" class="icon" viewBox="0 0 1024 1024" version="1.1" xmlns="http://www.w3.org/2000/svg" p-id="10908" xmlns:xlink="http://www.w3.org/1999/xlink" width="200" height="200"><path d="M778.176528 1011.83998l226.466209-839.446191-409.4818 242.998008-0.008096 0.016191c0.404794 58.581829-29.226147 115.916891-83.160937 147.919927s-118.434711 30.529585-169.665475 2.10493l-215.82012 128.076911c127.526391 137.743398 338.537554 173.065747 506.357168 73.478258 1.55441-0.931027 3.060245-1.943013 4.606559-2.874039l1.619177 13.325828 139.087315 234.400177z" fill="#FF7676" p-id="10909"></path><path d="M511.991904 563.327915c-53.93479 32.003036-118.434711 30.529585-169.665475 2.10493L157.052086 675.391164c125.219063 78.772967 289.257898 86.553113 425.001612 5.990955 135.768002-80.57835 207.538029-228.247304 198.365391-375.908162L595.152841 415.407988c0.404794 58.581829-29.226147 115.916891-83.160937 147.919927z" fill="#FF1A1A" p-id="10910"></path><path d="M256.113342 420.192657c-0.396698-58.59802 29.218051-115.916891 83.152842-147.919927 53.93479-32.003036 118.467095-30.545777 169.673571-2.121122l215.828216-128.093103C597.257772 4.331299 386.238512-30.99105 218.426995 68.612631 50.623573 168.192024-19.502989 370.322001 40.293223 548.24528l215.820119-128.052623z" fill="#FF7676" p-id="10911"></path><path d="M339.27428 272.27273c53.93479-32.003036 118.467095-30.545777 169.673571-2.121122L694.23029 160.193289c-125.243351-78.821543-289.249802-86.569305-425.001613-6.007147C133.452579 234.764492 61.666361 382.433446 70.855191 530.110496l185.266247-109.909743c-0.404794-58.606116 29.218051-115.924987 83.152842-147.928023z" fill="#FF1A1A" p-id="10912"></path><path d="M40.293223 560.389109a12.103349 12.103349 0 0 1-11.504254-8.282092C-33.735555 366.087853 43.418235 158.355523 212.225546 58.168938s388.108662-68.385946 521.455995 75.63986a12.143828 12.143828 0 0 1-2.712122 18.6934L515.141204 280.595301a12.143828 12.143828 0 0 1-12.095254 0.170013c-49.166314-27.315518-109.553525-26.554505-157.578318 1.943013-48.008602 28.489422-77.590968 81.12887-77.210461 137.403371a12.143828 12.143828 0 0 1-5.94238 10.524651L46.494671 558.688973c-1.902533 1.125328-4.039847 1.700136-6.201448 1.700136zM425.276873 24.255273c-69.033617 0-138.472028 17.891907-200.64843 54.80105C69.924164 170.863667-3.060245 358.5182 47.271876 529.980962l196.786693-116.750767c1.983492-62.192594 35.629993-119.721957 89.014262-151.401157 53.408558-31.695392 120.037696-33.646501 175.534993-5.594257L705.402612 139.435438C629.803232 63.876538 527.989374 24.255273 425.276873 24.255273z" fill="#33363A" p-id="10913"></path><path d="M501.936814 372.50789c25.032478 42.155277 11.139939 96.583916-31.023434 121.584011-42.122893 25.016287-96.57582 11.148035-121.600202-31.023434-25.000095-42.122893-11.107555-96.600108 31.039626-121.592106 42.139085-25.024383 96.583916-11.107555 121.58401 31.031529z" fill="#FF7676" p-id="10914"></path><path d="M349.313178 463.060371c-25.000095-42.122893-11.107555-96.600108 31.039626-121.592106 42.139085-25.016287 96.583916-11.099459 121.58401 31.039625" fill="#FF1A1A" p-id="10915"></path><path d="M425.79501 518.703393c-8.36305 0-16.782771-1.052465-25.105342-3.173587a100.210873 100.210873 0 0 1-61.828278-46.276082 100.170393 100.170393 0 0 1-10.978021-76.417065 100.194681 100.194681 0 0 1 46.267986-61.820183 100.065147 100.065147 0 0 1 76.417065-10.978021 100.202777 100.202777 0 0 1 61.803991 46.267987 100.178489 100.178489 0 0 1 11.002308 76.42516 100.105626 100.105626 0 0 1-46.284178 61.795896 100.040859 100.040859 0 0 1-51.295531 14.175895z m-0.307644-177.542772a76.020366 76.020366 0 0 0-38.94121 10.751336 76.093229 76.093229 0 0 0-35.136144 46.939945 76.068942 76.068942 0 0 0 8.338763 58.015117 76.068942 76.068942 0 0 0 46.939945 35.136143 75.923216 75.923216 0 0 0 58.015116-8.354954 76.060846 76.060846 0 0 0 35.14424-46.915657 76.077037 76.077037 0 0 0-8.36305-58.023212 76.068942 76.068942 0 0 0-46.923753-35.136144 76.805667 76.805667 0 0 0-19.073907-2.412574zM172.272351 580.296891a12.143828 12.143828 0 0 1-6.209545-22.587521l107.821005-63.98988a12.151924 12.151924 0 0 1 12.402897 20.887385l-107.821005 63.98988c-1.951108 1.149616-4.080326 1.700136-6.193352 1.700136zM110.136428 617.108883a12.127637 12.127637 0 0 1-8.589734-20.725467c4.541792-4.460833 12.71054-4.460833 17.163277 0 2.266848 2.258752 3.56219 5.424243 3.56219 8.581639 0 3.238354-1.295342 6.314791-3.489327 8.581639-2.339711 2.266848-5.416147 3.56219-8.646406 3.562189zM53.546188 650.706809c-3.157395 0-6.314791-1.295342-8.589735-3.56219a12.305746 12.305746 0 0 1-3.554094-8.581639c0-3.165491 1.295342-6.314791 3.554094-8.589734 4.541792-4.533696 12.637677-4.533696 17.163278 0 2.266848 2.266848 3.56219 5.424243 3.562189 8.589734 0 3.157395-1.295342 6.306695-3.562189 8.581639-2.258752 2.266848-5.424243 3.56219-8.573543 3.56219zM571.180924 343.557003a12.143828 12.143828 0 0 1-6.209544-22.587521l107.821005-63.957496a12.143828 12.143828 0 0 1 12.402897 20.887385l-107.821005 63.957496c-1.943013 1.149616-4.080326 1.700136-6.193353 1.700136zM741.12166 242.674172c-3.230258 0-6.39575-1.214383-8.654502-3.481231a12.532431 12.532431 0 0 1-3.489327-8.589734c0-3.230258 1.295342-6.39575 3.489327-8.654502 4.533696-4.460833 12.702445-4.460833 17.244236 0 2.258752 2.258752 3.554094 5.424243 3.554094 8.654502 0 3.165491-1.295342 6.314791-3.554094 8.589734-2.266848 2.258752-5.424243 3.481231-8.589734 3.481231zM797.695709 209.14911a12.143828 12.143828 0 0 1-6.209545-22.587521l163.844534-97.247779a12.143828 12.143828 0 0 1 12.402897 20.887385L803.880965 207.448974c-1.943013 1.157712-4.07223 1.700136-6.185256 1.700136z" fill="#33363A" p-id="10916"></path><path d="M778.176528 1023.983808a12.143828 12.143828 0 0 1-10.443692-5.94238l-139.087316-234.400177-0.105246-0.170014c-167.33386 92.795041-380.360899 59.334746-510.947535-81.703677a12.16002 12.16002 0 0 1 2.712122-18.6934l215.820119-128.076911a12.151924 12.151924 0 0 1 12.087158-0.170014c49.190601 27.291231 109.553525 26.562601 157.578318-1.926821s77.60716-81.136966 77.218557-137.395275a12.224787 12.224787 0 0 1 5.950476-10.548939l409.473704-242.989912a12.143828 12.143828 0 1 1 17.924291 13.609184L789.899371 1015.005471a12.143828 12.143828 0 0 1-11.722843 8.978337zM650.836343 773.440435l123.106037 207.473262 211.181177-782.807375-377.915942 224.256032c-1.9673 62.184498-35.621897 119.721957-89.022358 151.409253-53.38427 31.679201-119.997217 33.654597-175.526897 5.578066L145.879763 696.132823c126.401063 126.360583 326.102274 152.20265 480.782265 60.411499l4.549888-2.841656a12.16002 12.16002 0 0 1 18.320989 8.937858l1.303438 10.799911z" fill="#33363A" p-id="10917"></path><path d="M741.097372 692.416812c-43.094399 0-78.149584-35.063281-78.149584-78.15768s35.055185-78.15768 78.149584-78.15768 78.15768 35.063281 78.15768 78.15768-35.063281 78.15768-78.15768 78.15768z m0-132.027703c-29.703804 0-53.861927 24.166219-53.861927 53.870023s24.158123 53.870023 53.861927 53.870023 53.870023-24.166219 53.870023-53.870023-24.166219-53.870023-53.870023-53.870023z" fill="#33363A" p-id="10918"></path></svg>