<?xml version="1.0" standalone="no"?><!DOCTYPE svg PUBLIC "-//W3C//DTD SVG 1.1//EN" "http://www.w3.org/Graphics/SVG/1.1/DTD/svg11.dtd"><svg t="1678894006558" class="icon" viewBox="0 0 1024 1024" version="1.1" xmlns="http://www.w3.org/2000/svg" p-id="10722" xmlns:xlink="http://www.w3.org/1999/xlink" width="200" height="200"><path d="M512 511.991895m-499.841753 0a499.841753 499.841753 0 1 0 999.683506 0 499.841753 499.841753 0 1 0-999.683506 0Z" fill="#4E5154" p-id="10723"></path><path d="M12.158247 511.991895a499.841753 382.838887 0 1 0 999.683506 0 499.841753 382.838887 0 1 0-999.683506 0Z" fill="#33363A" p-id="10724"></path><path d="M815.23479 114.733326C731.124036 50.440515 626.052464 12.158247 512.008105 12.158247c-114.06057 0-219.132142 38.282268-303.242895 102.583184V523.777289h606.46958V114.733326z" fill="#FFDB80" p-id="10725"></path><path d="M815.23479 207.7196c-84.110754-49.249007-189.182326-78.566593-303.226685-78.566593-114.06057 0-219.132142 29.317587-303.242895 78.566593V523.777289h606.46958V207.7196z" fill="#FFBE08" p-id="10726"></path><path d="M524.036665 203.415581h-24.081435c-107.414061 0-194.499533 87.101683-194.499533 194.523849V523.777289h413.080501V397.93943c0-107.422167-87.085472-194.523849-194.499533-194.523849z" fill="#33363A" p-id="10727"></path><path d="M12.158247 511.991895c0 276.081372 223.784698 499.849858 499.849858 499.849858 276.04895 0 499.833647-223.768487 499.833648-499.849858H12.158247z" fill="#FFFFFF" p-id="10728"></path><path d="M512.008105 894.830782c276.04895 0 499.833647-171.415074 499.833648-382.838887H12.158247c0 211.423813 223.784698 382.838887 499.849858 382.838887z" fill="#D8E5EA" p-id="10729"></path><path d="M512.008105 0C229.6855 0 0 229.677395 0 511.991895c0 282.322605 229.6855 512.008105 512.008105 512.008105 282.3145 0 511.991895-229.6855 511.991895-512.008105C1024 229.677395 794.322605 0 512.008105 0z m0 24.316494c264.83094 0 480.874887 212.226257 487.367392 475.517153H24.624503C31.117007 236.542752 247.16906 24.316494 512.008105 24.316494z m0 975.367012c-264.839046 0-480.891098-212.234363-487.383602-475.533364h974.750994c-6.492504 263.299001-222.536451 475.533364-487.367392 475.533364z" fill="#33363A" p-id="10730"></path><path d="M608.066364 462.12687c53.082907 53.082907 53.082907 139.098453 0 192.173255-53.050485 53.082907-139.090348 53.082907-192.140833 0-53.066696-53.074802-53.066696-139.090348 0-192.173255 53.050485-53.066696 139.098453-53.066696 192.140833 0z" fill="#A7BBC1" p-id="10731"></path><path d="M608.066364 415.90932c53.082907 53.082907 53.082907 139.106559 0 192.173255-53.050485 53.066696-139.090348 53.066696-192.140833 0-53.066696-53.066696-53.066696-139.090348 0-192.173255 53.050485-53.050485 139.098453-53.050485 192.140833 0z" fill="#FFFFFF" p-id="10732"></path><path d="M415.925531 608.082575c-53.066696-53.066696-53.066696-139.090348 0-192.173255 53.050485-53.058591 139.090348-53.058591 192.140833 0" fill="#D8E5EA" p-id="10733"></path><path d="M512 660.046923c-39.53862 0-76.71854-15.400446-104.674403-43.364415-57.711147-57.711147-57.711147-151.637659 0-209.365016 27.955863-27.955863 65.127677-43.356309 104.674403-43.35631s76.710434 15.392341 104.666297 43.35631a147.090474 147.090474 0 0 1 43.372521 104.690613c0 39.53862-15.400446 76.71854-43.372521 104.682509a147.041841 147.041841 0 0 1-104.666297 43.356309z m0-271.769246c-33.046116 0-64.11449 12.863426-87.474536 36.231576-48.235819 48.25203-48.235819 126.745674 0 174.981494 23.360046 23.368151 54.42842 36.239682 87.474536 36.239682s64.11449-12.871531 87.474536-36.239682a122.895563 122.895563 0 0 0 36.255893-87.482642c0-33.046116-12.871531-64.11449-36.247788-87.490746a122.911774 122.911774 0 0 0-87.482641-36.239682z" fill="#33363A" p-id="10734"></path><path d="M558.233761 558.225656a65.41137 65.41137 0 0 1-92.4351 0 65.370842 65.370842 0 0 1 92.4351-92.426995 65.370842 65.370842 0 0 1 0 92.426995z" fill="#FFFFFF" p-id="10735"></path><path d="M465.798661 465.798661A65.370842 65.370842 0 0 1 558.233761 558.225656" fill="#D8E5EA" p-id="10736"></path><path d="M512.008105 589.472351a77.310241 77.310241 0 0 1-54.809378-22.638656c-30.225403-30.233508-30.217297-79.409565 0-109.626862a76.953599 76.953599 0 0 1 54.801273-22.711606h0.008105c20.701442 0 40.170849 8.064971 54.817484 22.7035 30.217297 30.217297 30.217297 79.393354 0 109.626862l-0.008105 0.008106a77.350769 77.350769 0 0 1-54.809379 22.638656z m-0.008105-130.668735c-14.208938 0-27.558694 5.536055-37.601406 15.586873a53.253123 53.253123 0 0 0 0 75.235233c20.74197 20.725759 54.493264 20.717653 75.243339 0 20.725759-20.750075 20.725759-54.501369 0-75.235233a52.977536 52.977536 0 0 0-37.641933-15.586873c0.008105 0 0 0 0 0z" fill="#33363A" p-id="10737"></path></svg>