<?xml version="1.0" standalone="no"?><!DOCTYPE svg PUBLIC "-//W3C//DTD SVG 1.1//EN" "http://www.w3.org/Graphics/SVG/1.1/DTD/svg11.dtd"><svg t="1678893718264" class="icon" viewBox="0 0 1024 1024" version="1.1" xmlns="http://www.w3.org/2000/svg" p-id="5522" xmlns:xlink="http://www.w3.org/1999/xlink" width="200" height="200"><path d="M909.405412 78.630297c50.001454 68.696548 60.489719 162.346294 18.837684 243.004534-41.62827 80.689926-124.029273 126.389925-209.012734 125.431405-50.009376-68.712392-60.481797-162.362137-18.845605-243.020377C742.020949 123.371776 824.41403 77.671778 909.405412 78.630297z" fill="#FFECD2" p-id="5523"></path><path d="M719.230362 447.058314c-50.009376-68.712392-60.481797-162.362137-18.845605-243.020377C742.020949 123.371776 824.41403 77.671778 909.405412 78.630297" fill="#F4D3A2" p-id="5524"></path><path d="M721.939566 458.956632l-2.843872-0.015843a11.898318 11.898318 0 0 1-9.474293-4.887658c-54.730679-75.200223-62.31962-173.095973-19.796203-255.465289 42.515495-82.369316 126.635496-132.600498 219.714882-131.847941 3.754862 0.04753 7.264153 1.853666 9.474293 4.887658 54.738601 75.208144 62.31962 173.088051 19.788282 255.449445-42.071883 81.545464-124.987793 131.879628-216.863089 131.879628z m181.326567-368.435938c-81.569229 1.235777-154.868256 46.405025-192.321817 118.97526-37.461483 72.562313-31.821268 158.472607 14.425325 225.679885 81.577151-1.235777 154.868256-46.412947 192.313895-118.991104 37.461483-72.554392 31.829189-158.456764-14.417403-225.664041z" fill="#33363A" p-id="5525"></path><path d="M872.846998 164.603964c30.77561 42.285767 37.223833 99.931614 11.597295 149.568672-25.618616 49.668745-76.34094 77.790602-128.647595 77.2044-30.77561-42.285767-37.223833-99.931614-11.597295-149.568672 25.626538-49.660823 76.333019-77.790602 128.647595-77.2044z" fill="#EFA3CC" p-id="5526"></path><path d="M757.452323 403.267433l-1.798214-0.007922a11.898318 11.898318 0 0 1-9.474294-4.887658c-34.71267-47.696254-39.521112-109.770303-12.547893-162.013584 26.688039-51.712531 79.279873-83.644702 137.543608-83.644702l1.798214 0.007922c3.754862 0.04753 7.264153 1.853666 9.474293 4.887658 34.71267 47.696254 39.521112 109.770303 12.547894 162.013584-26.680117 51.720452-79.264029 83.644702-137.543608 83.644702z m109.223709-226.709699c-47.5299 1.58433-90.029551 28.272369-111.924992 70.700725-21.903362 42.412514-19.035725 92.51695 7.20078 132.172729 47.5299-1.58433 90.037473-28.272369 111.924992-70.700725 21.903362-42.420435 19.035725-92.51695-7.20078-132.172729z" fill="#33363A" p-id="5527"></path><path d="M114.594588 78.630297C64.593134 147.326845 54.104869 240.976591 95.756904 321.634831c41.62827 80.689926 124.029273 126.389925 209.012734 125.431405 50.009376-68.712392 60.481797-162.362137 18.845605-243.020377C281.979051 123.371776 199.578048 77.671778 114.594588 78.630297z" fill="#FFECD2" p-id="5528"></path><path d="M304.769638 447.058314c50.009376-68.712392 60.481797-162.362137 18.845605-243.020377C281.979051 123.371776 199.578048 77.671778 114.594588 78.630297" fill="#F4D3A2" p-id="5529"></path><path d="M302.060434 458.956632c-91.883218 0-174.791206-50.334164-216.863089-131.879628-42.531338-82.353473-34.950319-180.233379 19.788282-255.441524a11.898318 11.898318 0 0 1 9.474293-4.887658l2.843872-0.015843c91.883218 0 174.783284 50.334164 216.87101 131.863785 42.523417 82.361394 34.934476 180.257144-19.796203 255.457367a11.898318 11.898318 0 0 1-9.474293 4.887658c-0.950598 0.015843-1.901196 0.015843-2.843872 0.015843z m-181.326567-368.435938c-46.246592 67.207278-51.878885 153.10965-14.417403 225.65612 37.437718 72.578157 110.736744 117.747405 192.313895 118.991103 46.246592-67.207278 51.878885-153.117572 14.425325-225.671963-37.453561-72.562313-110.760509-117.731561-192.321817-118.97526z" fill="#33363A" p-id="5530"></path><path d="M151.153002 164.603964c-30.77561 42.285767-37.223833 99.931614-11.597295 149.568672 25.618616 49.668745 76.34094 77.790602 128.647595 77.2044 30.77561-42.285767 37.223833-99.931614 11.597295-149.568672-25.626538-49.660823-76.333019-77.790602-128.647595-77.2044z" fill="#EFA3CC" p-id="5531"></path><path d="M266.539755 403.267433c-58.279579 0-110.863491-31.924249-137.543608-83.652623-26.973218-52.23536-22.164777-114.309409 12.547894-162.005663a11.898318 11.898318 0 0 1 9.474293-4.887658c58.826172-0.491142 112.376526 31.385577 139.341823 83.644702 26.973218 52.23536 22.164777 114.309409-12.547894 162.005662a11.898318 11.898318 0 0 1-9.474293 4.887658l-1.798215 0.007922zM157.316046 176.557734c-26.236505 39.65578-29.104142 89.752294-7.20078 132.164807 21.887519 42.428357 64.395092 69.116396 111.924992 70.708647 26.236505-39.65578 29.104142-89.752294 7.20078-132.164807-21.887519-42.436279-64.395092-69.116396-111.924992-70.708647z" fill="#33363A" p-id="5532"></path><path d="M901.816471 648.783129c0 163.788034-174.52187 296.594495-389.816471 296.594495S122.183529 812.571163 122.183529 648.783129c0-163.819721 174.52187-360.110284 389.816471-360.110284s389.816471 196.298485 389.816471 360.110284z" fill="#F4D3A2" p-id="5533"></path><path d="M901.816471 648.783129c0 163.788034-174.52187 296.594495-389.816471 296.594495S122.183529 812.571163 122.183529 648.783129c0-163.819721 174.52187-276.687389 389.816471-276.687388s389.816471 112.87559 389.816471 276.687388z" fill="#F4D3A2" p-id="5534"></path><path d="M901.816471 648.783129c0 163.788034-174.52187 296.594495-389.816471 296.594495S122.183529 812.571163 122.183529 648.783129c0-163.835564 49.605372 145.28306 389.816471 145.28306s389.816471-309.110702 389.816471-145.28306z" fill="#E2BF91" p-id="5535"></path><path d="M512 957.268021c-221.497254 0-401.698946-138.383303-401.698946-308.47697 0-168.493494 179.187721-371.992759 401.698946-371.992759s401.698946 203.499265 401.698946 371.992759c0 170.093667-180.201693 308.47697-401.698946 308.47697z m0-656.712701c-209.353364 0-377.933997 190.499838-377.933997 348.227809 0 156.991258 169.539152 284.71202 377.933997 284.712021s377.933997-127.720762 377.933997-284.712021c0-157.727972-168.580632-348.227809-377.933997-348.227809z" fill="#33363A" p-id="5536"></path><path d="M594.662417 746.076834c0 11.034858-37.16046 13.015271-83.003048 13.015271s-83.01097-1.980412-83.01097-13.015271c0-11.050702 37.16046-39.901351 83.01097-39.901351 45.842588-0.007922 83.003048 28.850649 83.003048 39.901351z" fill="#F4D3A2" p-id="5537"></path><path d="M440.499188 638.556279c-2.907246 0-5.822413-1.061501-8.119691-3.208268l-101.001037-94.568657a11.882475 11.882475 0 0 1 16.247304-17.340491l101.001037 94.568656a11.882475 11.882475 0 0 1-8.127613 20.54876zM583.500812 638.556279a11.882475 11.882475 0 0 1-8.127613-20.556681l101.001037-94.568657a11.882475 11.882475 0 0 1 16.247304 17.340492l-101.001037 94.568656c-2.297278 2.16261-5.212446 3.21619-8.119691 3.21619z" fill="#33363A" p-id="5538"></path><path d="M744.397444 878.804078l178.007396-12.112202-11.011094-70.011542 100.723779-44.305788-55.83971-94.830072 49.866786-50.36585-137.377253-113.857875L752.68349 610.600777l6.804697 5.648136-71.619637 31.49648 39.687466 67.413241-8.840561 0.617889z" fill="#E2BF91" p-id="5539"></path><path d="M744.381601 890.686553a11.882475 11.882475 0 0 1-0.792165-23.733263l165.063419-11.240821-8.998994-57.186391a11.882475 11.882475 0 0 1 6.955209-12.72217l88.484829-38.926988-49.050856-83.311992a11.874553 11.874553 0 0 1 1.798215-14.385716l40.733124-41.129207-127.380131-105.571828a11.882475 11.882475 0 1 1 15.162038-18.299012l137.377253 113.857875a11.874553 11.874553 0 0 1 0.86346 17.514768l-43.426485 43.854254 51.189701 86.94803a11.882475 11.882475 0 0 1-5.458016 16.904801l-92.350595 40.630142 9.593118 60.965018a11.882475 11.882475 0 0 1-10.931877 13.704454l-178.015317 12.112203c-0.269336 0.015843-0.546594 0.015843-0.81593 0.015843z" fill="#33363A" p-id="5540"></path><path d="M279.602556 878.804078l-178.015317-12.112202 11.019015-70.011542L11.882475 752.374546l55.83971-94.830072-49.866786-50.36585 137.377253-113.857875L271.31651 610.600777l-6.804697 5.648136 71.619637 31.49648-39.687466 67.413241 8.832639 0.617889z" fill="#E2BF91" p-id="5541"></path><path d="M279.610478 890.686553a9.664413 9.664413 0 0 1-0.823852-0.031686l-178.015317-12.112203a11.882475 11.882475 0 0 1-10.931877-13.704454l9.593118-60.965018L7.097798 763.250971a11.922083 11.922083 0 0 1-6.527439-7.224545 11.914161 11.914161 0 0 1 1.069423-9.680256L52.837405 659.39814l-43.426485-43.854254a11.882475 11.882475 0 0 1 0.86346-17.514768L147.651633 484.171244a11.882475 11.882475 0 1 1 15.162038 18.299011L35.43354 608.050005l40.733124 41.129207a11.882475 11.882475 0 0 1 1.798215 14.385716L28.906101 746.87692l88.484829 38.926988c4.935188 2.170532 7.786982 7.398821 6.955209 12.72217l-8.998994 57.186391 165.063419 11.240821a11.882475 11.882475 0 0 1-0.800086 23.733263z" fill="#33363A" p-id="5542"></path><path d="M383.970294 680.81036a63.769282 63.769282 0 0 1-63.793047 63.777204 63.793047 63.793047 0 1 1 63.793047-63.777204z" fill="#CC4306" p-id="5543"></path><path d="M288.466882 660.079402m-25.983012 0a25.983012 25.983012 0 1 0 51.966024 0 25.983012 25.983012 0 1 0-51.966024 0Z" fill="#FFFFFF" p-id="5544"></path><path d="M320.177247 605.14276c-25.737441 0-48.480498 12.943976-62.153265 32.637198-0.792165 1.085266-1.48927 2.225984-2.170533 3.390466a75.105163 75.105163 0 0 0-11.343802 39.647858c0 41.72333 33.94427 75.659678 75.659678 75.659678 41.731252 0 75.675522-33.936348 75.675522-75.659678 0.007922-41.731252-33.936348-75.675522-75.6676-75.675522z m0 127.562329a51.966024 51.966024 0 0 1-47.902217-31.963858c5.458017-0.150511 12.104281-1.592252 19.59024-3.144895a37.152538 37.152538 0 0 0 7.660236-1.497192c6.487831-1.172404 13.419275-2.123002 20.659663-2.123002 19.114941 0 36.225705 6.448223 47.91806 6.765089a51.99771 51.99771 0 0 1-47.925982 31.963858z" fill="#33363A" p-id="5545"></path><path d="M288.458961 660.079402m-14.092616 0a14.092615 14.092615 0 1 0 28.185231 0 14.092615 14.092615 0 1 0-28.185231 0Z" fill="#FFFFFF" p-id="5546"></path><path d="M767.592035 680.81036a63.769282 63.769282 0 0 1-63.777204 63.777204 63.793047 63.793047 0 1 1 63.777204-63.777204z" fill="#CC4306" p-id="5547"></path><path d="M672.096545 660.079402m-25.983012 0a25.983012 25.983012 0 1 0 51.966024 0 25.983012 25.983012 0 1 0-51.966024 0Z" fill="#FFFFFF" p-id="5548"></path><path d="M703.822753 605.14276c-25.729519 0-48.472576 12.936054-62.153265 32.613433-0.808008 1.093188-1.505113 2.249749-2.194297 3.430074a75.097241 75.097241 0 0 0-11.32796 39.632015c0 41.72333 33.94427 75.659678 75.675522 75.659678 41.715409 0 75.659678-33.936348 75.659679-75.659678-0.007922-41.731252-33.94427-75.675522-75.659679-75.675522z m0 127.562329a51.981867 51.981867 0 0 1-47.91806-31.963858c5.465938-0.150511 12.104281-1.592252 19.598162-3.152816 2.637909-0.237649 5.180759-0.736713 7.63647-1.489271 6.495753-1.180326 13.435118-2.123002 20.683428-2.123002 19.10702 0 36.209862 6.448223 47.902217 6.765089a51.966024 51.966024 0 0 1-47.902217 31.963858z" fill="#33363A" p-id="5549"></path><path d="M672.088623 660.079402m-14.092615 0a14.092615 14.092615 0 1 0 28.185231 0 14.092615 14.092615 0 1 0-28.185231 0Z" fill="#FFFFFF" p-id="5550"></path><path d="M410.365231 799.944053a101.634769 62.818684 0 1 0 203.269538 0 101.634769 62.818684 0 1 0-203.269538 0Z" fill="#FFCAE8" p-id="5551"></path><path d="M613.634769 799.944053c0 34.688905-45.501957 62.818684-101.634769 62.818684s-101.634769-28.129779-101.634769-62.818684 45.501957-8.309811 101.634769-8.30981 101.634769-26.379094 101.634769 8.30981z" fill="#EFA3CC" p-id="5552"></path><path d="M512 874.645212c-63.658379 0-113.517244-32.811474-113.517244-74.701159 0-41.873842 49.858865-74.685316 113.517244-74.685315s113.517244 32.811474 113.517244 74.685315c0 41.889685-49.866786 74.701159-113.517244 74.701159z m0-125.613603c-48.654774 0-89.752294 23.313416-89.752294 50.920366s41.09752 50.936209 89.752294 50.936209 89.752294-23.321337 89.752294-50.936209c0-27.60695-41.105441-50.920366-89.752294-50.920366z" fill="#33363A" p-id="5553"></path><path d="M483.608807 829.222471a11.882475 11.882475 0 0 1-11.882475-11.882474v-31.330126a11.882475 11.882475 0 1 1 23.76495 0v31.330126a11.882475 11.882475 0 0 1-11.882475 11.882474zM540.391193 829.222471a11.882475 11.882475 0 0 1-11.882475-11.882474v-31.330126a11.882475 11.882475 0 1 1 23.76495 0v31.330126a11.882475 11.882475 0 0 1-11.882475 11.882474z" fill="#33363A" p-id="5554"></path><path d="M740.705955 386.362632L665.97311 220.055513l-71.429518 32.106448-82.543592-82.543593-82.543592 82.543593-71.437439-32.106448-74.724924 166.307119 166.283354 74.748689 3.715253-8.278124 58.707348 58.715269 58.699426-58.699426 3.715254 8.262281z" fill="#FFECD2" p-id="5555"></path><path d="M594.543592 391.44041l-82.543592-82.543593-82.543592 82.543593-71.437439-32.106447-22.655919 50.429223 114.214349 51.348135 3.715253-8.278124 58.707348 58.715269 58.699426-58.699426 3.715254 8.262281 114.22227-51.348135-22.66384-50.429223z" fill="#F4D3A2" p-id="5556"></path><path d="M740.713877 398.245107a11.882475 11.882475 0 0 1-10.844739-7.01066l-69.861031-155.470302-60.600622 27.234633a11.85871 11.85871 0 0 1-13.268763-2.439868l-74.138722-74.138722-74.138722 74.138722a11.90624 11.90624 0 0 1-13.268763 2.439868l-60.592701-27.234633-69.868952 155.478223a11.874553 11.874553 0 1 1-21.673634-9.743629l74.732845-166.307119a11.882475 11.882475 0 0 1 15.70071-5.965002l63.959402 28.747668 76.744944-76.744945a11.882475 11.882475 0 0 1 16.80182 0l76.744944 76.744945 63.959402-28.747668a11.90624 11.90624 0 0 1 15.70071 5.965002l74.732846 166.307119a11.882475 11.882475 0 0 1-10.820974 16.746368z" fill="#33363A" p-id="5557"></path><path d="M387.495428 284.80708l-171.575016-48.987483-13.387588 69.615459-109.778225 7.517646 20.35864 108.130522-63.991088 30.482509 90.623675 153.695852 148.982471-70.954219-4.491576-7.612705 78.052017-5.355036-14.464933-76.879612 8.523696 2.416103z" fill="#FFECD2" p-id="5558"></path><path d="M312.334813 390.307614l-109.794068 7.525567 20.382406 108.146365-64.006932 30.466666 27.488126 46.603066 102.323952-48.741912-4.491576-7.612705 78.052017-5.355036-14.464933-76.879612 8.523696 2.416103 21.396376-111.307103-52.029397-14.868937z" fill="#F4D3A2" p-id="5559"></path><path d="M139.753748 617.14406a11.866632 11.866632 0 0 1-10.242693-5.846178L38.88738 457.60203a11.866632 11.866632 0 0 1 5.125307-16.762211l55.728807-26.545449-18.663407-99.147371a11.850788 11.850788 0 0 1 2.281435-9.45845c2.075472-2.693361 5.204524-4.356907 8.587069-4.586635l100.652484-6.899757 11.652747-60.616465a11.882475 11.882475 0 0 1 14.93231-9.181193l171.575016 48.987483a11.882475 11.882475 0 0 1-6.519518 22.846039L225.133291 250.81528l-10.931877 56.861603a11.874553 11.874553 0 0 1-10.860582 9.608962l-96.438166 6.606656 17.887085 94.996426a11.882475 11.882475 0 0 1-6.567047 12.928132l-52.274968 24.897746 84.02494 142.518404a11.882475 11.882475 0 0 1-10.218928 17.910851z" fill="#33363A" p-id="5560"></path><path d="M636.504572 284.80708l171.575016-48.987483 13.371745 69.615459 109.794068 7.517646-20.374484 108.130522 63.99901 30.482509-90.623675 153.695852-148.990392-70.954219 4.507419-7.612705-78.06786-5.355036 14.464933-76.879612-8.515774 2.416103z" fill="#FFECD2" p-id="5561"></path><path d="M711.657265 390.307614l109.794068 7.525567-20.374484 108.146365 63.99901 30.466666-27.488125 46.603066-102.331874-48.741912 4.507419-7.612705-78.06786-5.355036 14.464933-76.879612-8.515774 2.416103-21.396377-111.307103 52.029397-14.868937z" fill="#F4D3A2" p-id="5562"></path><path d="M884.23833 617.14406a11.882475 11.882475 0 0 1-10.218928-17.918773l84.032862-142.518404-52.282889-24.897745a11.882475 11.882475 0 0 1-6.567048-12.928133l17.895007-94.996426-96.446088-6.606656a11.882475 11.882475 0 0 1-10.860582-9.608961l-10.923955-56.861604-159.090496 45.41482a11.874553 11.874553 0 1 1-6.519518-22.846039l171.575016-48.987483a11.882475 11.882475 0 0 1 14.93231 9.181192l11.644826 60.616465 100.660406 6.899758a11.882475 11.882475 0 0 1 10.868503 14.045085l-18.671329 99.14737 55.736729 26.545449a11.866632 11.866632 0 0 1 5.125308 16.762212l-90.623675 153.695852c-2.241827 3.778627-6.202652 5.862021-10.266459 5.862021z" fill="#33363A" p-id="5563"></path></svg>