<?xml version="1.0" standalone="no"?><!DOCTYPE svg PUBLIC "-//W3C//DTD SVG 1.1//EN" "http://www.w3.org/Graphics/SVG/1.1/DTD/svg11.dtd"><svg t="1678893913909" class="icon" viewBox="0 0 1024 1024" version="1.1" xmlns="http://www.w3.org/2000/svg" p-id="8876" xmlns:xlink="http://www.w3.org/1999/xlink" width="200" height="200"><path d="M512.008005 1011.991616a56.052145 56.052145 0 0 1-52.145626-35.494888L248.870322 441.135503a56.036135 56.036135 0 0 1 104.267237-41.090496l158.870446 403.091931 158.854436-403.091931a56.06015 56.06015 0 0 1 72.686872-31.58837 56.020124 56.020124 0 0 1 31.580365 72.678866l-210.992057 535.36923a56.036135 56.036135 0 0 1-52.129616 35.486883zM794.878412 274.219869a56.036135 56.036135 0 0 1-52.12161-76.593391l15.481984-39.26532-228.819553 74.784224a55.916057 55.916057 0 0 1-34.822455 0l-228.819553-74.784224 15.481983 39.26532a56.036135 56.036135 0 0 1-104.267236 41.090497l-59.150142-150.080779a56.036135 56.036135 0 0 1 69.540843-73.815599l324.633337 106.100418 324.617328-106.100418a56.012119 56.012119 0 0 1 58.197528 14.84157 56.012119 56.012119 0 0 1 11.35132 58.966024l-59.150143 150.080779a56.092171 56.092171 0 0 1-52.153631 35.510899z" fill="#FFF24D" p-id="8877"></path><path d="M512.008005 1011.991616a56.036135 56.036135 0 0 0 52.129616-35.494888L771.271189 450.925817a55.683907 55.683907 0 0 0-27.721876-23.775332 56.068155 56.068155 0 0 0-72.686872 31.58837L512.008005 861.830786 353.137559 458.74686a56.036135 56.036135 0 0 0-72.686872-31.58837 55.747949 55.747949 0 0 0-27.721876 23.775332l207.133568 525.570911a56.052145 56.052145 0 0 0 52.145626 35.486883zM774.329161 270.305345a55.956083 55.956083 0 0 0 20.541246 3.914524 56.068155 56.068155 0 0 0 52.145626-35.502894l55.251629-140.186398a55.659892 55.659892 0 0 0-7.460811-10.166556 56.004114 56.004114 0 0 0-58.197529-14.833565L512.008005 179.630874 187.374667 73.530456a56.04414 56.04414 0 0 0-58.197528 14.833565c-2.937894 3.114008-5.331438 6.564233-7.444801 10.166556l55.235619 140.186398a56.036135 56.036135 0 0 0 72.686871 31.58837 55.747949 55.747949 0 0 0 27.721877-23.775332l-11.615491-29.475006 19.108322 6.236021a55.731938 55.731938 0 0 0-3.626338-25.672555l-15.481984-39.26532 228.819553 74.784224a55.916057 55.916057 0 0 0 34.822455 0l228.819553-74.784224-15.481983 39.26532a55.507794 55.507794 0 0 0-3.610328 25.672555l19.092311-6.236021-11.61549 29.475006a55.852016 55.852016 0 0 0 27.721876 23.775332z" fill="#FFD00B" p-id="8878"></path><path d="M512.008005 1023.99936a67.67564 67.67564 0 0 1-63.312827-43.099793L237.695116 445.538343c-13.760874-34.894502 3.450225-74.488033 38.352732-88.248907 34.894502-13.744863 74.512049 3.47424 88.256912 38.360737l147.69524 374.745652 147.67923-374.745652c13.776884-34.894502 53.338395-52.113605 88.256912-38.360737a67.627609 67.627609 0 0 1 37.464158 36.191338 67.603594 67.603594 0 0 1 0.888573 52.065574l-210.992056 535.361224a67.64362 67.64362 0 0 1-63.288812 43.091788zM300.935897 376.565866c-5.363459 0-10.806969 0.984635-16.090376 3.057972a44.076422 44.076422 0 0 0-24.807997 57.100821l210.992056 535.36923a43.796242 43.796242 0 0 0 40.97042 27.881979 43.788237 43.788237 0 0 0 40.954409-27.881979l210.992057-535.36923a43.708185 43.708185 0 0 0-0.576372-33.693727 43.7322 43.7322 0 0 0-24.231625-23.415099 44.124453 44.124453 0 0 0-57.116832 24.832013L523.175206 807.531772a12.007743 12.007743 0 0 1-22.350412 0L341.970357 404.447846a44.124453 44.124453 0 0 0-41.03446-27.88198zM794.878412 286.227612c-8.533503 0-16.930918-1.601032-24.936079-4.747061-34.910512-13.768879-52.12161-53.36241-38.360737-88.256912l6.123949-15.514004-204.571917 66.843103a67.579578 67.579578 0 0 1-42.283266 0l-204.555907-66.851108 6.123949 15.514004c13.760874 34.902507-3.450225 74.488033-38.352731 88.256912-34.894502 13.752868-74.496038-3.450225-88.256912-38.360737l-59.150143-150.088784a68.332064 68.332064 0 0 1 13.784889-71.606174 68.332064 68.332064 0 0 1 70.669571-18.011615l320.894927 104.883633L832.894927 3.413241a68.276027 68.276027 0 0 1 70.661566 18.01962 68.276027 68.276027 0 0 1 13.784889 71.598169L858.191239 243.111809a67.691651 67.691651 0 0 1-63.312827 43.115803z m-36.647632-139.874197a12.023753 12.023753 0 0 1 11.175207 16.410582l-15.481984 39.26532a44.068417 44.068417 0 0 0 40.962415 60.182809 43.804247 43.804247 0 0 0 40.970419-27.905995l59.150143-150.080779a44.188495 44.188495 0 0 0-8.909746-46.325873 44.188495 44.188495 0 0 0-45.733491-11.663521L515.738411 132.344381a12.007743 12.007743 0 0 1-7.460811 0L183.644262 26.243963a44.188495 44.188495 0 0 0-45.725486 11.663521 44.1965 44.1965 0 0 0-8.91775 46.333879l59.150142 150.080778a44.092433 44.092433 0 0 0 57.116832 24.824008 44.076422 44.076422 0 0 0 24.816002-57.100821L254.602019 162.763997a12.007743 12.007743 0 0 1 14.905611-15.8182l228.819553 74.784224a43.660154 43.660154 0 0 0 27.353639 0l228.827558-74.784224c1.208779-0.400258 2.46559-0.592382 3.7224-0.592382z" fill="#33363A" p-id="8879"></path><path d="M512 388.469542m-125.961225 0a125.961225 125.961225 0 1 0 251.92245 0 125.961225 125.961225 0 1 0-251.92245 0Z" fill="#FFAF10" p-id="8880"></path><path d="M637.961225 388.469542c0 53.298369-56.396367 96.494224-125.96923 96.494224-69.556853 0-125.95322-43.195855-125.95322-96.494224 0-53.242333 56.396367-96.494224 125.95322-96.494224 69.572864 0 125.96923 43.243886 125.96923 96.494224z" fill="#FFD00B" p-id="8881"></path><path d="M386.03077 388.469542c0 69.572864 56.396367 125.977236 125.95322 125.977236 69.572864 0 125.96923-56.404372 125.96923-125.977236h-251.92245z" fill="#FFFFFF" p-id="8882"></path><path d="M511.991995 484.955761c69.572864 0 125.96923-43.195855 125.96923-96.494224H386.03077c0 53.306374 56.396367 96.494224 125.961225 96.494224z" fill="#DCE6EA" p-id="8883"></path><path d="M511.991995 250.492569c-76.073055 0-137.960963 61.895913-137.960963 137.968968 0 76.089066 61.887908 137.984979 137.960963 137.984979 76.08106 0 137.976974-61.895913 137.976973-137.984979 0-76.073055-61.895913-137.968968-137.976973-137.968968z m0 24.015486c58.781905 0 107.293187 44.740851 113.321074 101.945739h-226.626138c6.019882-57.204888 54.531164-101.945739 113.305064-101.945739z m0 227.93098c-58.7739 0-107.285182-44.740851-113.305064-101.96175h226.618133c-6.019882 57.212893-54.531164 101.961749-113.313069 101.96175z" fill="#33363A" p-id="8884"></path><path d="M512 402.902849m-41.642853 0a41.642853 41.642853 0 1 0 83.285706 0 41.642853 41.642853 0 1 0-83.285706 0Z" fill="#A7BBC1" p-id="8885"></path><path d="M541.450991 359.290726a41.610832 41.610832 0 0 1 0 58.885973 41.642853 41.642853 0 1 1 0-58.885973z" fill="#FFFFFF" p-id="8886"></path><path d="M482.549009 418.176699a41.642853 41.642853 0 0 1 58.893977-58.885973" fill="#D8E5EA" p-id="8887"></path><path d="M512 442.400319a53.274354 53.274354 0 0 1-37.944468-15.730143c-10.12653-10.118525-15.706128-23.591213-15.706128-37.928458s5.579598-27.809933 15.714133-37.944469a53.714638 53.714638 0 0 1 75.872926 0 53.266348 53.266348 0 0 1 15.738149 37.952474 53.250338 53.250338 0 0 1-15.738149 37.936463 53.306374 53.306374 0 0 1-37.936463 15.714133z m0-83.285706a29.539048 29.539048 0 0 0-20.957514 8.66959 29.434981 29.434981 0 0 0-8.677596 20.957515c0 7.917105 3.081987 15.353901 8.677596 20.949509 11.207227 11.223237 30.715807 11.215232 41.907023 0.008005a29.434981 29.434981 0 0 0 8.701611-20.949509 29.458996 29.458996 0 0 0-8.685601-20.957514l-0.008005-0.008006a29.539048 29.539048 0 0 0-20.957514-8.66959z" fill="#33363A" p-id="8888"></path></svg>