<?xml version="1.0" standalone="no"?><!DOCTYPE svg PUBLIC "-//W3C//DTD SVG 1.1//EN" "http://www.w3.org/Graphics/SVG/1.1/DTD/svg11.dtd"><svg t="1678894028436" class="icon" viewBox="0 0 1024 1024" version="1.1" xmlns="http://www.w3.org/2000/svg" p-id="11275" xmlns:xlink="http://www.w3.org/1999/xlink" width="200" height="200"><path d="M666.310955 527.095724c-31.019823 53.120543-88.499387 88.998021-154.343125 88.998021-65.85178 0-123.323301-35.877478-154.343125-88.998021H94.09695c41.34636 192.721812 212.96472 337.671327 417.862838 337.671327s376.516478-144.949515 417.862838-337.671327H666.310955z" fill="#87C3F4" p-id="11276"></path><path d="M511.959788 616.093745c-65.85178 0-123.323301-35.877478-154.343125-88.998021H131.405988c70.846156 138.258176 214.790362 233.167415 380.5538 233.167416 165.763438 0 309.715686-94.909239 380.553799-233.167416H666.310955c-31.027866 53.128585-88.499387 88.998021-154.351167 88.998021z" fill="#5F9AD6" p-id="11277"></path><path d="M511.959788 876.830762c-205.798875 0-386.497188-146.019164-429.661148-347.209701a12.063711 12.063711 0 0 1 11.79831-14.597091h263.519713a12.063711 12.063711 0 0 1 10.415004 5.975559c29.90192 51.214476 85.057208 83.022462 143.928121 83.022462s114.026201-31.807986 143.92812-83.022462a12.063711 12.063711 0 0 1 10.415004-5.975559h263.519714a12.079796 12.079796 0 0 1 11.79831 14.597091c-43.16396 201.190538-223.85423 347.209701-429.661148 347.209701zM109.305268 539.159436c46.195972 182.564167 213.165782 313.543904 402.65452 313.543904s356.466589-130.979737 402.654519-313.543904H673.082718c-34.928466 55.074864-96.027143 88.998021-161.12293 88.998021s-126.194465-33.931199-161.122931-88.998021H109.305268z" fill="#33363A" p-id="11278"></path><path d="M357.616663 349.735038C388.636486 296.63058 446.11605 260.737017 511.959788 260.737017s123.323301 35.893563 154.343124 88.998021h263.519714C888.484308 157.029311 716.857906 12.063711 511.959788 12.063711 307.069712 12.063711 135.44331 157.029311 94.09695 349.735038h263.519713z" fill="#87C3F4" p-id="11279"></path><path d="M511.959788 260.737017c65.843737 0 123.323301 35.893563 154.343124 88.998021h226.210675c-70.846156-138.274261-214.790362-233.167415-380.553799-233.167415-165.763438 0-309.715686 94.893154-380.5538 233.167415h226.210675C388.636486 296.63058 446.11605 260.737017 511.959788 260.737017z" fill="#5F9AD6" p-id="11280"></path><path d="M929.822626 361.79875H666.310955a12.063711 12.063711 0 0 1-10.415005-5.975559c-29.918004-51.214476-85.065251-83.022462-143.936162-83.022462S397.941629 304.608715 368.031667 355.823191a12.063711 12.063711 0 0 1-10.415004 5.975559H94.09695a12.063711 12.063711 0 0 1-11.79831-14.597091C125.470642 146.019164 306.160912 0 511.959788 0s386.497188 146.019164 429.661148 347.209701a12.079796 12.079796 0 0 1-11.79831 14.589049z m-256.739908-24.127423h241.539631C868.418334 155.10716 701.448525 24.127423 511.959788 24.127423S155.501241 155.10716 109.305268 337.671327h241.539632c34.936508-55.074864 96.035186-88.998021 161.12293-88.998021s126.17838 33.931199 161.114888 88.998021z" fill="#33363A" p-id="11281"></path><path d="M605.12381 438.41136c0 51.487921-41.708272 93.180107-93.164022 93.180107s-93.180107-41.692187-93.180108-93.180107c0-51.439666 41.724357-93.180107 93.180108-93.180107 51.463793 0 93.164022 41.732399 93.164022 93.180107z" fill="#87C3F4" p-id="11282"></path><path d="M418.77968 438.41136c0-51.439666 41.724357-93.180107 93.180108-93.180107 51.455751 0 93.164022 41.740442 93.164022 93.180107" fill="#5F9AD6" p-id="11283"></path><path d="M511.959788 543.655179c-58.034495 0-105.243819-47.209324-105.243819-105.243819s47.209324-105.243819 105.243819-105.243819c58.01841 0 105.227734 47.209324 105.227734 105.243819s-47.201282 105.243819-105.227734 105.243819z m0-186.360215c-44.732242 0-81.116396 36.384154-81.116396 81.116396s36.384154 81.116396 81.116396 81.116396c44.7242 0 81.100311-36.384154 81.100311-81.116396s-36.376111-81.116396-81.100311-81.116396zM334.261318 450.475071h-131.655305a12.063711 12.063711 0 1 1 0-24.127422h131.647262a12.063711 12.063711 0 0 1 0.008043 24.127422zM126.805693 450.458987a12.079796 12.079796 0 0 1-12.063712-12.063712c0-3.136565 1.286796-6.27313 3.538689-8.525023 4.503786-4.511828 12.54626-4.511828 17.050045 0 2.251893 2.24385 3.538689 5.388458 3.538689 8.525023 0 3.144607-1.286796 6.27313-3.538689 8.533065a12.224561 12.224561 0 0 1-8.525022 3.530647zM57.720838 450.458987c-3.21699 0-6.353555-1.286796-8.605447-3.530647-2.171468-2.251893-3.458264-5.388458-3.458264-8.533065 0-3.136565 1.286796-6.27313 3.458264-8.525023 4.503786-4.511828 12.54626-4.511828 17.13047 0 2.251893 2.24385 3.538689 5.388458 3.538689 8.525023 0 3.144607-1.286796 6.27313-3.538689 8.533065a12.224561 12.224561 0 0 1-8.525023 3.530647zM821.313562 450.475071H689.682385a12.063711 12.063711 0 1 1 0-24.127422h131.631177a12.063711 12.063711 0 1 1 0 24.127422zM897.113883 450.458987c-3.136565 0-6.27313-1.286796-8.525023-3.530647-2.251893-2.251893-3.538689-5.388458-3.538689-8.533065 0-3.136565 1.286796-6.27313 3.538689-8.525023 4.423361-4.511828 12.54626-4.511828 17.050045 0 2.251893 2.24385 3.538689 5.388458 3.538689 8.525023 0 3.144607-1.286796 6.27313-3.458264 8.533065-2.332318 2.24385-5.388458 3.530646-8.605447 3.530647zM966.198737 450.458987a12.063711 12.063711 0 0 1-8.525023-20.588735c4.503786-4.511828 12.626685-4.511828 17.050046 0a11.926989 11.926989 0 0 1 0.080425 17.058088c-2.251893 2.24385-5.388458 3.530646-8.605448 3.530647z" fill="#33363A" p-id="11284"></path><path d="M481.551192 817.018881a22.028337 22.028337 0 0 0-17.838208-15.031385l-86.054475-12.522132-38.491282-78.003958a22.100719 22.100719 0 0 0-39.617229 0l-38.491282 78.003958-86.062517 12.522132a22.092677 22.092677 0 0 0-12.240646 37.678993l62.280921 60.680468-14.717728 85.716692a22.092677 22.092677 0 0 0 32.065345 23.27492l76.966479-40.445603 76.966479 40.445603a22.124847 22.124847 0 0 0 23.266879-1.648707 22.092677 22.092677 0 0 0 8.782382-21.626213l-14.701643-85.716692 62.280921-60.680468a22.084634 22.084634 0 0 0 5.605604-22.647608z" fill="#FFD00B" p-id="11285"></path><path d="M413.680751 900.346957l50.297635-49.026923c-0.09651 0-0.168892-0.03217-0.257359-0.048255l-86.054476-12.522132-38.491282-77.987874a22.060507 22.060507 0 0 0-19.808614-12.296943 22.060507 22.060507 0 0 0-19.808614 12.296943l-38.491282 77.987874-86.062518 12.522132c-0.080425 0.016085-0.168892 0.048255-0.249317 0.048255l50.297635 49.026923-7.238227 42.222991 7.238227 7.069334-9.409695 54.817505c1.045522 1.174201 2.187553 2.27602 3.490434 3.233075 6.836103 4.913952 15.835632 5.58952 23.266878 1.648707l76.966479-40.445603 76.966479 40.445603a22.124847 22.124847 0 0 0 23.266879-1.648707c1.302881-0.957054 2.43687-2.058873 3.490433-3.233075l-9.409695-54.817505 7.238227-7.069334-7.238227-42.222991z" fill="#FFBE08" p-id="11286"></path><path d="M232.089724 1024a34.164431 34.164431 0 0 1-20.017719-6.514404 33.995539 33.995539 0 0 1-13.640036-33.472778l13.640036-79.459647-57.736923-56.249065a33.939242 33.939242 0 0 1-8.64566-35.016933 33.874902 33.874902 0 0 1 27.59373-23.250793l79.76526-11.605291 35.684458-72.317929a34.35745 34.35745 0 0 1 30.625743-19.020452c13.093148 0 24.827118 7.286482 30.625742 19.020452l35.684458 72.317929 79.781346 11.605291a33.882944 33.882944 0 0 1 27.577644 23.250793 33.987496 33.987496 0 0 1-8.64566 35.016933l-57.744965 56.249065 13.631994 79.467689a33.963369 33.963369 0 0 1-13.567655 33.416481c-10.366749 7.511671-24.738651 8.525023-36.022242 2.565549l-71.328705-37.485973-71.360874 37.502058c-5.002419 2.662059-10.455217 3.981025-15.899972 3.981025z m87.268889-312.771826c-3.796048 0-7.318652 2.179511-8.983444 5.565392l-38.499325 78.012001a12.079796 12.079796 0 0 1-9.079953 6.594829l-86.062518 12.522132a9.932456 9.932456 0 0 0-8.090729 6.820019c-1.182244 3.667368-0.217147 7.600138 2.533379 10.286324l62.288964 60.680469a12.063711 12.063711 0 0 1 3.474349 10.680406l-14.717728 85.716691c-0.659483 3.796048 0.87663 7.559926 4.005152 9.835946 3.104395 2.24385 7.14976 2.525337 10.519556 0.74795l77.006692-40.46973a12.095881 12.095881 0 0 1 11.227294 0l76.966479 40.445603c3.385882 1.801514 7.567968 1.447645 10.575854-0.739908a9.972668 9.972668 0 0 0 3.972982-9.811818l-14.709685-85.724734a12.063711 12.063711 0 0 1 3.474349-10.680406l62.280921-60.680469a9.972668 9.972668 0 0 0 2.533379-10.286324 9.948541 9.948541 0 0 0-8.074644-6.820019l-86.078602-12.522132a12.055669 12.055669 0 0 1-9.079954-6.594829l-38.491282-78.003959a10.093305 10.093305 0 0 0-8.991486-5.573434z" fill="#33363A" p-id="11287"></path><path d="M866.737457 817.018881a22.028337 22.028337 0 0 0-17.838208-15.031385l-86.062518-12.522132-38.483239-78.003958a22.092677 22.092677 0 0 0-39.617229 0l-38.483239 78.003958-86.062518 12.522132a22.052465 22.052465 0 0 0-17.84625 15.031385 22.148974 22.148974 0 0 0 5.597562 22.647608l62.280921 60.680468-14.709686 85.716692a22.100719 22.100719 0 0 0 8.790425 21.626213 22.116804 22.116804 0 0 0 23.27492 1.648707l76.96648-40.445603 76.966479 40.445603a22.116804 22.116804 0 0 0 23.266878-1.648707 22.100719 22.100719 0 0 0 8.790424-21.626213l-14.717728-85.716692 62.280922-60.680468a22.116804 22.116804 0 0 0 5.605604-22.647608z" fill="#FFD00B" p-id="11288"></path><path d="M798.850931 900.346957l50.305677-49.026923c-0.088467 0-0.168892-0.03217-0.257359-0.048255l-86.062518-12.522132-38.483239-77.987874c-3.707581-7.543841-11.396186-12.296943-19.808614-12.296943s-16.101034 4.761145-19.808615 12.296943l-38.483239 77.987874-86.062518 12.522132c-0.09651 0.016085-0.168892 0.048255-0.257359 0.048255l50.297634 49.026923-7.246269 42.222991 7.246269 7.069334-9.417737 54.817505c1.053564 1.174201 2.179511 2.27602 3.498476 3.233075a22.116804 22.116804 0 0 0 23.274921 1.648707l76.966479-40.445603 76.966479 40.445603a22.116804 22.116804 0 0 0 23.266879-1.648707c1.302881-0.957054 2.444912-2.058873 3.490433-3.233075l-9.417737-54.817505 7.246269-7.069334-7.254312-42.222991z" fill="#FFBE08" p-id="11289"></path><path d="M617.275989 1024a34.164431 34.164431 0 0 1-20.017719-6.514404 34.019666 34.019666 0 0 1-13.631994-33.472778l13.631994-79.459647-57.736923-56.249065a34.019666 34.019666 0 0 1-8.661745-34.992806 33.931199 33.931199 0 0 1 27.617857-23.27492l79.76526-11.605291 35.676416-72.317929c5.694072-11.557036 17.717571-19.020452 30.625743-19.020452s24.93167 7.471459 30.633784 19.028495l35.676416 72.309886 79.789388 11.605291a33.882944 33.882944 0 0 1 27.577645 23.250793v0.016085a33.971412 33.971412 0 0 1-8.661745 35.000848l-57.736923 56.249065 13.648078 79.467689a33.979454 33.979454 0 0 1-13.575696 33.416481c-10.366749 7.511671-24.738651 8.525023-36.022243 2.565549l-71.328704-37.485973-71.360875 37.502058a33.899029 33.899029 0 0 1-15.908014 3.981025z m87.268889-312.771826c-3.796048 0-7.318652 2.179511-8.983444 5.565392l-38.491282 78.012001a12.063711 12.063711 0 0 1-9.079954 6.594829l-86.062517 12.522132a10.004838 10.004838 0 1 0-5.55735 17.106343l62.280921 60.680469a12.063711 12.063711 0 0 1 3.474349 10.680406l-14.709686 85.716691a9.996796 9.996796 0 0 0 14.516666 10.583896l77.006692-40.46973a12.095881 12.095881 0 0 1 11.227294 0l76.966479 40.445603c3.385882 1.801514 7.559926 1.447645 10.575854-0.739908 3.096353-2.251893 4.632465-6.023813 3.981025-9.811818l-14.725771-85.724734a12.063711 12.063711 0 0 1 3.474349-10.680406l62.280921-60.680469a10.012881 10.012881 0 0 0-5.525179-17.106343l-86.086645-12.522132a12.055669 12.055669 0 0 1-9.079954-6.594829l-38.48324-78.003959a10.101348 10.101348 0 0 0-8.999528-5.573434z" fill="#33363A" p-id="11290"></path></svg>